<?xml version="1.0" encoding="utf-8"?>
<!-- Generator: Adobe Illustrator 27.5.0, SVG Export Plug-In . SVG Version: 6.00 Build 0)  -->
<svg version="1.1" id="Layer_1" xmlns="http://www.w3.org/2000/svg" xmlns:xlink="http://www.w3.org/1999/xlink" x="0px" y="0px"
	 viewBox="0 0 265.512 182.092" style="enable-background:new 0 0 265.512 182.092;" xml:space="preserve">
<g>
	<g>
		<g>
			<g>
				<path style="fill:#C68C50;" d="M141.01,105.134l1.729-11.888c-4.244,2.259-25.456,12.732-68.79,21.271l-1.248,4.951
					C72.701,119.469,105.689,118.441,141.01,105.134z"/>
				<path style="fill:#684923;" d="M72.252,119.588c-0.02-0.075-0.021-0.155-0.001-0.232l1.248-4.951
					c0.044-0.174,0.184-0.308,0.361-0.342c43.508-8.574,64.829-19.186,68.662-21.225c0.154-0.083,0.343-0.071,0.486,0.03
					c0.143,0.1,0.217,0.274,0.192,0.447l-1.729,11.887c-0.024,0.167-0.138,0.308-0.296,0.368
					c-34.988,13.184-68.127,14.355-68.459,14.365c-0.145,0.005-0.284-0.06-0.376-0.174C72.298,119.709,72.268,119.65,72.252,119.588
					z M74.328,114.917l-1.023,4.061c4.683-0.227,35.166-2.131,67.285-14.183l1.559-10.717
					C136.66,96.883,115.345,106.807,74.328,114.917z"/>
			</g>
		</g>
		<g>
			<path style="fill:#C68C50;" d="M73.524,116.203c1.16-0.223,2.322-0.432,3.48-0.662c6.046-1.203,12.072-2.52,18.04-4.068
				c5.981-1.551,11.873-3.393,17.733-5.349c9.952-3.323,19.79-6.973,29.632-10.609l0.33-2.269
				c-4.244,2.259-25.457,12.732-68.79,21.271L73.524,116.203z"/>
		</g>
		<g>
			<path style="fill:#C68C50;" d="M100.133,108.51c0.707,2.416,1.168,4.911,1.557,7.415c3.378-0.625,6.957-1.357,10.693-2.218
				c-0.413-2.765-0.841-5.528-1.463-8.246C107.6,106.463,104.003,107.484,100.133,108.51z"/>
			<path style="fill:#C68C50;" d="M96.134,109.547c-6.632,1.68-14.01,3.359-22.185,4.97l-1.248,4.951c0,0,9.212-0.293,23.101-2.526
				C95.738,114.482,95.895,112.005,96.134,109.547z"/>
			<path style="fill:#C68C50;" d="M135.355,107.164c1.876-0.645,3.761-1.316,5.655-2.03l1.729-11.888
				c-1.114,0.593-3.41,1.756-6.954,3.297C135.624,100.082,135.545,103.626,135.355,107.164z"/>
		</g>
		<g>
			<path style="fill:#C68C50;" d="M137.425,46.502c0,0,13.311,30.921,2.823,96.733l-4.98,2.181c0,0,10.319-42.638-3.194-96.433
				L137.425,46.502z"/>
			<path style="fill:#684923;" d="M134.819,145.535c-0.02-0.074-0.021-0.151-0.002-0.229c0.102-0.425,10.134-43.154-3.193-96.21
				c-0.054-0.217,0.053-0.441,0.256-0.535l5.351-2.48c0.114-0.053,0.244-0.057,0.361-0.013c0.117,0.045,0.212,0.136,0.261,0.251
				c0.137,0.306,13.246,31.794,2.855,96.989c-0.024,0.157-0.127,0.289-0.272,0.353l-4.98,2.181c-0.162,0.071-0.35,0.044-0.485-0.07
				C134.895,145.709,134.843,145.626,134.819,145.535z M132.618,49.242c12.184,48.863,4.664,88.939,3.301,95.382l3.91-1.713
				c9.606-60.544-1.121-91.757-2.656-95.78L132.618,49.242z"/>
		</g>
		<g>
			<path style="fill:#C68C50;" d="M93.986,61.966c0,0,17.964,28.471,17.853,95.113l-4.58,2.93c0,0,3.553-43.724-18.173-94.759
				L93.986,61.966z"/>
			<path style="fill:#684923;" d="M106.809,160.128c-0.013-0.05-0.018-0.103-0.014-0.157c0.035-0.437,3.293-44.204-18.137-94.54
				c-0.082-0.205-0.017-0.443,0.169-0.568l4.9-3.284c0.104-0.07,0.232-0.094,0.355-0.069c0.122,0.026,0.229,0.101,0.296,0.207
				c0.18,0.287,18.033,29.349,17.925,95.361c0,0.158-0.082,0.305-0.215,0.391l-4.58,2.93c-0.149,0.095-0.339,0.097-0.489,0.007
				C106.913,160.345,106.84,160.243,106.809,160.128z M100.205,96.288c8.6,32.499,7.838,57.776,7.573,62.837l3.595-2.301
				c0.06-61.303-15.399-90.46-17.538-94.198l-4.172,2.795C94.199,76.126,97.624,86.533,100.205,96.288z"/>
		</g>
		<g>
			<g>
				<path style="fill:#C68C50;" d="M141.348,152.298c0.067-0.265,0.146-0.533,0.215-0.795c1.734-3.971,2.721-8.33,3.581-12.632
					c-5.098-0.115-10.196-0.417-15.287-0.664c-0.213-0.01-0.405-0.148-0.461-0.359c-0.809-3.058-1.622-6.165-3.093-8.982
					c-1.834,1.871-3.437,3.958-5.074,5.998c-1.624,2.024-3.286,4.047-5.229,5.777c-1.477,1.315-3.357,2.915-5.454,2.869
					c-1.823-0.04-3.411-1.181-4.701-2.368c-1.219-1.12-2.276-2.395-3.37-3.633c-0.16,1.288-0.096,2.617-0.557,3.849
					c-0.197,0.526-0.611,1.392-1.238,1.487c-0.461,0.07-1.033-0.234-1.446-0.396c-1.027-0.404-2.026-0.922-3.088-1.229
					c-2.206-0.638-4.462-1.076-6.736-1.385c-4.627-0.628-9.271-1.151-13.906-1.72c-2.363-0.29-4.725-0.63-7.092-0.886
					c-1.923-0.208-3.855-0.318-5.78-0.5c-3.845-0.364-7.743-0.921-11.269-2.583c-0.463-0.218-0.198-0.885,0.247-0.899
					c3.848-0.118,7.641-0.805,11.385-1.668c3.371-0.777,6.707-1.697,10.071-2.502c1.882-0.45,3.798-0.634,5.709-0.923
					c1.08-0.163,2.162-0.348,3.216-0.637c0.707-0.194,1.559-0.424,2.109-0.942c0.612-0.577,0.367-1.645,0.256-2.38
					c-0.143-0.946-0.445-1.96-0.353-2.922c0.022-0.233,0.214-0.513,0.487-0.477c2.249,0.298,4.365,1.286,6.634,1.429
					c1.084-3.906,1.922-7.873,2.811-11.826c1.683-7.484,3.733-14.893,5.634-22.325c0.848-3.316,1.886-6.63,2.235-10.044
					c0.279-2.732,0.304-5.706,1.579-8.204c0.097-0.189,0.348-0.276,0.545-0.222c4.947,1.345,9.331,4.718,14.548,5.028
					c0.65-1.966,0.54-4.096,1.028-6.103c0.056-0.232,0.356-0.43,0.593-0.336c4.516,1.8,8.604,4.438,12.915,6.65
					c0.99-2.238,1.871-4.522,2.637-6.846c2.132-6.466,3.454-13.151,4.422-19.883c-0.54-1.716-1.105-3.424-1.717-5.116
					c-2.351-6.502-5.364-12.753-8.772-18.77c-1.959-3.453-4.865-7.911-7.269-11.108c-3.507-4.667-8.769-7.169-14.337-8.428
					c-3.993-0.897-8.104-1.204-12.184-1.371C83.499,2.83,71.385,3.751,59.341,6.272c-14.956,3.125-31.279,7.959-43.666,17.341
					c-7.919,6-9.134,16.104-10.26,25.332c-0.736,6.028-1.071,12.097-0.94,18.171c0.257,12.262,2.453,24.395,5.475,36.252
					c5.699,22.374,14.849,43.885,29.443,61.95c0.955,1.184,1.993,2.305,2.991,3.457c0.58,0.658,0.814,1.614,1.478,2.212
					c0.721,0.657,1.728,0.8,2.612,1.137c1.58,0.602,3.137,1.326,4.742,1.848c2.712,0.872,5.461,1.643,8.234,2.295
					c5.559,1.305,11.223,2.167,16.922,2.483c3.257,0.18,6.513,0.203,9.775,0.039c3.987-0.204,8.009-0.69,11.935-1.436
					C114.845,174.144,130.635,165.679,141.348,152.298z"/>
				<path style="fill:#684923;" d="M10.008,105.437c-0.172-0.649-0.341-1.299-0.508-1.955C5.985,89.693,4.241,78.14,4.01,67.125
					c-0.128-5.919,0.189-12.055,0.944-18.236c1.121-9.195,2.383-19.541,10.44-25.646C28.899,13.014,46.889,8.399,59.246,5.818
					c11.767-2.464,24.069-3.46,36.565-2.961c3.7,0.151,8.051,0.435,12.266,1.382c6.509,1.471,11.424,4.365,14.608,8.602
					c2.369,3.153,5.304,7.637,7.301,11.158c3.707,6.544,6.587,12.707,8.805,18.841c0.553,1.528,1.117,3.208,1.723,5.134
					c0.029,0.067,0.027,0.138,0.017,0.206c-1.128,7.853-2.539,14.196-4.44,19.962c-0.762,2.31-1.654,4.628-2.653,6.889
					c-0.052,0.117-0.15,0.208-0.27,0.25c-0.121,0.043-0.254,0.034-0.367-0.024c-1.467-0.753-2.928-1.565-4.342-2.352
					c-2.741-1.525-5.575-3.101-8.534-4.28c-0.176,0.867-0.275,1.773-0.371,2.65c-0.126,1.157-0.257,2.354-0.636,3.503
					c-0.066,0.2-0.259,0.33-0.469,0.317c-3.224-0.191-6.148-1.525-8.976-2.815c-1.835-0.836-3.731-1.701-5.667-2.228
					c-1.019,1.964-1.217,4.3-1.408,6.559c-0.042,0.494-0.083,0.984-0.133,1.467c-0.28,2.733-1,5.424-1.697,8.025
					c-0.186,0.696-0.373,1.392-0.55,2.088c-0.546,2.137-1.105,4.273-1.665,6.409c-1.361,5.2-2.769,10.577-3.966,15.902l-0.456,2.043
					c-0.717,3.226-1.459,6.561-2.36,9.806c-0.059,0.212-0.258,0.353-0.477,0.34c-1.296-0.082-2.541-0.428-3.745-0.764
					c-0.954-0.265-1.94-0.539-2.921-0.669c-0.023,0.691,0.111,1.386,0.242,2.057c0.053,0.274,0.105,0.546,0.145,0.811l0.033,0.21
					c0.129,0.796,0.305,1.886-0.43,2.578c-0.63,0.593-1.548,0.846-2.287,1.048c-1.122,0.308-2.242,0.495-3.287,0.653
					c-0.542,0.082-1.086,0.156-1.63,0.229c-1.334,0.181-2.714,0.369-4.039,0.686c-1.494,0.358-2.983,0.738-4.472,1.118
					c-1.832,0.468-3.727,0.952-5.603,1.385c-3.096,0.712-7.199,1.548-11.476,1.679c3.411,1.651,7.332,2.203,11.052,2.555
					c0.812,0.076,1.625,0.14,2.438,0.204c1.117,0.088,2.234,0.176,3.348,0.296c1.493,0.162,2.984,0.356,4.473,0.551
					c0.875,0.114,1.751,0.228,2.626,0.336c1.44,0.177,2.881,0.349,4.323,0.522c3.145,0.376,6.396,0.766,9.589,1.199
					c2.493,0.339,4.717,0.796,6.803,1.399c0.725,0.209,1.417,0.511,2.086,0.803c0.347,0.151,0.693,0.302,1.043,0.439l0.252,0.105
					c0.315,0.134,0.707,0.302,0.953,0.264c0.276-0.042,0.619-0.508,0.872-1.189c0.299-0.799,0.36-1.651,0.425-2.553
					c0.029-0.398,0.058-0.797,0.106-1.191c0.022-0.181,0.15-0.333,0.324-0.387c0.174-0.054,0.364,0,0.486,0.136l0.616,0.704
					c0.86,0.985,1.748,2.003,2.719,2.895c1.029,0.945,2.603,2.206,4.397,2.245c1.841,0.041,3.546-1.337,5.135-2.752
					c1.893-1.685,3.529-3.667,5.176-5.72l0.731-0.915c1.375-1.725,2.797-3.509,4.373-5.117c0.104-0.106,0.254-0.156,0.4-0.134
					c0.147,0.021,0.275,0.112,0.343,0.244c1.477,2.826,2.338,5.926,3.1,8.963l0.031,0.116l3.452,0.185
					c3.886,0.198,7.905,0.402,11.856,0.492c0.138,0.003,0.266,0.067,0.352,0.174c0.085,0.106,0.121,0.245,0.093,0.381
					c-0.794,3.974-1.793,8.562-3.611,12.727l-0.069,0.273c-0.042,0.149-0.084,0.3-0.121,0.45c-0.016,0.064-0.046,0.125-0.087,0.177
					c-10.296,12.859-25.759,21.816-43.541,25.218c-3.964,0.754-8,1.239-11.998,1.443c-3.166,0.159-6.471,0.146-9.824-0.039
					c-5.534-0.307-11.254-1.145-17.003-2.494c-2.723-0.641-5.505-1.416-8.27-2.305c-1.025-0.333-2.037-0.75-3.016-1.153
					c-0.582-0.24-1.164-0.48-1.749-0.702c-0.236-0.091-0.481-0.166-0.728-0.241c-0.705-0.217-1.434-0.442-2.032-0.986
					c-0.425-0.382-0.683-0.864-0.934-1.33c-0.182-0.342-0.356-0.664-0.58-0.918c-0.329-0.38-0.659-0.753-0.99-1.126
					c-0.671-0.759-1.365-1.542-2.013-2.346C26.099,149.6,16.339,129.362,10.008,105.437z M139.595,48.152
					c-0.59-1.871-1.14-3.507-1.679-4.996c-2.2-6.084-5.058-12.201-8.739-18.699c-1.98-3.49-4.887-7.934-7.235-11.057
					c-3.049-4.056-7.782-6.833-14.07-8.254c-4.142-0.931-8.441-1.21-12.1-1.36C83.353,3.289,71.128,4.28,59.436,6.727
					c-12.268,2.564-30.124,7.141-43.48,17.258c-7.743,5.866-8.98,16.005-10.07,24.951C5.128,55.14,4.812,61.231,4.94,67.105
					c0.229,10.942,1.964,22.429,5.461,36.148c6.269,24.647,16.154,45.434,29.353,61.772c0.636,0.787,1.323,1.563,1.987,2.314
					c0.333,0.376,0.666,0.752,0.994,1.131c0.292,0.332,0.5,0.718,0.699,1.089c0.222,0.414,0.432,0.806,0.738,1.082
					c0.446,0.406,1.046,0.591,1.682,0.787c0.265,0.082,0.53,0.164,0.785,0.261c0.592,0.226,1.182,0.468,1.773,0.712
					c0.962,0.396,1.957,0.806,2.947,1.128c2.739,0.881,5.498,1.65,8.196,2.284c5.695,1.337,11.361,2.168,16.841,2.471
					c3.321,0.183,6.593,0.196,9.727,0.039c3.955-0.201,7.949-0.682,11.871-1.428c17.528-3.354,32.769-12.163,42.927-24.808
					c0.033-0.124,0.067-0.249,0.102-0.372l0.089-0.329c1.722-3.958,2.699-8.265,3.465-12.061c-3.785-0.096-7.617-0.292-11.328-0.481
					l-3.416-0.171c-0.424-0.021-0.781-0.304-0.887-0.704l-0.031-0.116c-0.715-2.752-1.482-5.604-2.733-8.189
					c-1.368,1.45-2.632,3.036-3.858,4.575l-0.733,0.918c-1.673,2.085-3.336,4.1-5.283,5.833c-1.359,1.209-3.413,3.038-5.774,2.986
					c-2.108-0.046-3.867-1.443-5.005-2.49c-0.971-0.891-1.846-1.885-2.69-2.853c-0.003,0.026-0.004,0.052-0.006,0.077
					c-0.066,0.928-0.136,1.887-0.481,2.812c-0.278,0.745-0.782,1.66-1.604,1.783c-0.507,0.077-1.034-0.147-1.457-0.328l-0.229-0.095
					c-0.36-0.142-0.716-0.297-1.073-0.453c-0.642-0.28-1.306-0.569-1.972-0.762c-2.042-0.59-4.223-1.038-6.669-1.371
					c-3.186-0.432-6.434-0.822-9.575-1.197c-1.443-0.173-2.885-0.346-4.326-0.523c-0.878-0.107-1.756-0.222-2.634-0.337
					c-1.482-0.194-2.966-0.387-4.452-0.548c-1.105-0.119-2.213-0.206-3.321-0.293c-0.819-0.064-1.637-0.128-2.454-0.206
					c-3.804-0.36-7.82-0.927-11.423-2.625c-0.384-0.181-0.575-0.567-0.49-0.984c0.094-0.45,0.481-0.786,0.921-0.8
					c3.274-0.1,6.757-0.611,11.295-1.656c1.866-0.43,3.755-0.913,5.582-1.379c1.493-0.381,2.986-0.763,4.485-1.122
					c1.371-0.328,2.775-0.518,4.132-0.703c0.538-0.073,1.077-0.146,1.615-0.227c1.018-0.154,2.105-0.335,3.162-0.626
					c0.691-0.189,1.453-0.398,1.914-0.832c0.375-0.354,0.251-1.129,0.149-1.753l-0.035-0.219c-0.038-0.253-0.089-0.512-0.139-0.774
					c-0.142-0.736-0.29-1.497-0.217-2.261c0.026-0.279,0.169-0.547,0.382-0.716c0.182-0.145,0.405-0.208,0.629-0.178
					c1.045,0.138,2.063,0.421,3.047,0.695c1.086,0.301,2.116,0.588,3.18,0.7c0.849-3.106,1.559-6.298,2.247-9.389l0.456-2.044
					c1.201-5.341,2.611-10.726,3.974-15.934c0.558-2.135,1.117-4.269,1.663-6.405c0.179-0.698,0.366-1.397,0.553-2.097
					c0.687-2.566,1.398-5.22,1.67-7.88c0.048-0.477,0.09-0.962,0.131-1.451c0.199-2.347,0.404-4.776,1.497-6.918
					c0.193-0.376,0.658-0.573,1.08-0.46c2.011,0.547,3.943,1.428,5.811,2.281c2.641,1.204,5.368,2.448,8.282,2.706
					c0.269-0.948,0.376-1.932,0.489-2.967c0.098-0.906,0.201-1.843,0.422-2.755c0.061-0.253,0.247-0.48,0.496-0.609
					c0.233-0.121,0.496-0.138,0.721-0.048c3.015,1.201,5.875,2.792,8.642,4.332c1.265,0.703,2.569,1.428,3.875,2.109
					c0.907-2.09,1.722-4.225,2.423-6.351C137.083,62.163,138.477,55.902,139.595,48.152z"/>
			</g>
			<path style="opacity:0.66;fill:#C68C50;" d="M7.45,36.937c2.975,3.796,6.581,7.114,10.509,9.881
				c5.009,3.53,10.633,6.267,16.64,7.571c7.62,1.654,15.475,1.866,23.221,1.128c7.399-0.705,14.667-2.303,21.881-4.043
				c6.153-1.484,12.255-3.334,18.042-5.917c5.726-2.556,11.266-5.854,15.615-10.429c3.951-4.156,6.75-9.365,7.148-15.153
				c0.251-3.646-0.448-7.294-1.953-10.592c-3.07-2.346-6.744-3.824-10.577-4.691c-3.993-0.897-8.104-1.204-12.184-1.371
				C83.499,2.83,71.385,3.751,59.341,6.272c-14.956,3.125-31.279,7.959-43.666,17.341C11.165,27.03,8.833,31.779,7.45,36.937z"/>
			<path style="opacity:0.66;fill:#C68C50;" d="M63.216,137.01c8.994,1.532,18.055,2.717,26.962,4.725
				c3.224,0.727,6.4,1.362,9.405,2.796c2.531,1.207,4.844,2.824,7.134,4.439c-0.147-0.817-0.298-1.633-0.686-2.38
				c-0.206-0.396,0.238-0.95,0.659-0.659c1.477,1.018,2.968,2.026,4.557,2.865c1.219,0.644,2.76,1.445,4.188,1.286
				c1.216-0.135,2.137-1.614,2.762-2.527c0.936-1.367,1.74-2.819,2.594-4.237c0.739-1.228,1.501-2.508,2.531-3.519
				c0.184-0.18,0.499-0.189,0.682-0.001c2.854,2.925,6.062,5.289,10.121,6.165c3.121,0.673,6.245,0.486,9.374-0.003
				c0.655-2.331,1.173-4.716,1.646-7.086c-5.098-0.115-10.196-0.417-15.287-0.664c-0.213-0.01-0.405-0.148-0.461-0.359
				c-0.809-3.058-1.622-6.165-3.093-8.982c-1.834,1.871-3.437,3.958-5.074,5.998c-1.624,2.024-3.286,4.047-5.229,5.777
				c-1.477,1.315-3.357,2.915-5.454,2.869c-1.823-0.04-3.411-1.181-4.701-2.368c-1.219-1.12-2.276-2.395-3.37-3.633
				c-0.16,1.288-0.096,2.617-0.557,3.849c-0.197,0.526-0.611,1.392-1.238,1.487c-0.461,0.07-1.033-0.234-1.446-0.396
				c-1.027-0.404-2.026-0.922-3.088-1.229c-2.206-0.638-4.462-1.076-6.736-1.385c-4.627-0.628-9.271-1.151-13.906-1.72
				c-2.363-0.29-4.725-0.63-7.092-0.886c-1.923-0.208-3.855-0.318-5.78-0.5c-0.907-0.086-1.816-0.184-2.723-0.303
				C61.01,136.627,62.112,136.822,63.216,137.01z"/>
			<path style="opacity:0.66;fill:#C68C50;" d="M80.561,121.373c-1.286-0.183-2.564-0.416-3.847-0.624
				c-0.434-0.071-0.873-0.142-1.313-0.2c1.649,1.064,3.367,2.019,5.144,2.854c0.314,0.147,0.319,0.687,0.001,0.833
				c-2.217,1.019-4.507,1.863-6.833,2.598c-7.264,2.294-14.901,3.583-21.989,6.406c3.808-0.128,7.564-0.806,11.27-1.66
				c3.371-0.777,6.707-1.697,10.071-2.502c1.882-0.45,3.798-0.634,5.709-0.923c1.08-0.163,2.162-0.348,3.216-0.637
				c0.707-0.194,1.559-0.424,2.109-0.942c0.612-0.577,0.367-1.645,0.256-2.38c-0.124-0.823-0.354-1.697-0.355-2.544
				C82.85,121.671,81.697,121.534,80.561,121.373z"/>
			<path style="opacity:0.66;fill:#C68C50;" d="M139.517,48.185c-1.303,3.334-2.635,6.666-3.621,10.112
				c-0.95,3.32-1.601,6.786-1.251,10.249c0.04,0.4-0.434,0.541-0.724,0.412c-5.464-2.423-10.658-5.419-15.722-8.586
				c0.568,2.44,1.643,4.734,2.298,7.154c0.09,0.332-0.244,0.716-0.595,0.588c-0.692-0.253-1.375-0.53-2.053-0.819
				c-3.105-1.323-6.12-2.899-9.373-3.843c-1.547-0.449-3.138-0.742-4.753-0.673c-0.852,0.036-1.895-0.082-2.714,0.209
				c-0.42,0.149-0.534,0.646-0.639,1.175c-0.27,1.349-0.424,2.713-0.732,4.056c-0.938,4.086-1.877,8.172-2.816,12.258
				c-0.918,3.993-1.841,7.973-2.929,11.924c-1.065,3.871-2.177,7.728-3.217,11.606c-0.526,1.962-1.035,3.929-1.509,5.904
				c-0.386,1.607-0.88,3.262-1.095,4.901c-0.149,1.141-0.08,2.306-0.192,3.451c-0.09,0.924-0.207,2.075-1.005,2.68
				c-0.137,0.104-0.291,0.18-0.445,0.256c1.554,0.404,3.085,0.926,4.691,1.028c1.084-3.906,1.922-7.873,2.811-11.826
				c1.683-7.484,3.733-14.893,5.634-22.325c0.848-3.316,1.886-6.63,2.235-10.044c0.279-2.732,0.304-5.706,1.579-8.204
				c0.097-0.189,0.348-0.276,0.545-0.222c4.947,1.345,9.331,4.718,14.548,5.028c0.65-1.966,0.54-4.096,1.028-6.103
				c0.056-0.232,0.356-0.43,0.593-0.336c4.516,1.8,8.604,4.438,12.915,6.65c0.99-2.238,1.871-4.522,2.637-6.846
				c2.132-6.466,3.454-13.151,4.422-19.883c-0.078-0.248-0.161-0.494-0.24-0.741C139.725,47.643,139.623,47.915,139.517,48.185z"/>
			<g>
				<path style="fill:#C68C50;" d="M51.264,133.424c-0.607,0.248-1.21,0.504-1.808,0.778c1.803,0.448,3.616,0.85,5.434,1.232
					c-1.204-0.337-2.387-0.75-3.527-1.288C51.046,133.996,51.074,133.64,51.264,133.424z"/>
				<path style="fill:#684923;" d="M49.006,134.321c-0.007-0.025-0.011-0.05-0.013-0.075c-0.018-0.197,0.09-0.384,0.269-0.467
					c0.603-0.276,1.214-0.534,1.825-0.785c0.2-0.082,0.43-0.015,0.555,0.16c0.123,0.173,0.114,0.413-0.029,0.577
					c-0.019,0.021-0.026,0.045-0.027,0.052c1.005,0.429,2.134,0.841,3.429,1.204c0.241,0.068,0.383,0.316,0.326,0.558
					c-0.061,0.243-0.302,0.396-0.548,0.344c-2.112-0.444-3.844-0.836-5.45-1.235C49.177,134.612,49.049,134.483,49.006,134.321z"/>
			</g>
			<path style="opacity:0.66;fill:#C68C50;" d="M130.588,162.876c-6.95,1.682-14.014,2.898-21.129,3.604
				c-9.673,0.959-19.62,1.118-29.255-0.324c-7.701-1.152-15.182-3.738-21.368-8.57c-6.787-5.301-11.125-12.656-14.853-20.277
				c-5.124-10.475-9.412-21.529-11.985-32.923c-1.702-7.536-3.842-15.603-2.377-23.355c0.697-3.688,2.445-7.194,5.785-9.131
				c3.663-2.124,8.18-2.375,12.312-2.432c2.163-0.03,4.326,0.027,6.489,0.019c1.838-0.007,3.668-0.132,5.503-0.21
				c3.968-0.167,7.934-0.501,11.867-1.059c4.244-0.602,8.483-1.443,12.553-2.808c3.104-1.04,6.262-2.415,8.773-4.568
				c-0.765,0.064-1.529,0.124-2.293,0.198c-9.384,0.905-18.689,2.51-28.089,3.262c-9.247,0.739-18.621,0.546-27.631-1.857
				c-4.438-1.184-8.728-2.882-12.776-5.053c-3.715-1.992-7.33-4.461-9.997-7.77c-2.577-3.197-3.918-6.981-3.95-11.085
				c-0.015-1.976,0.243-3.942,0.72-5.855c-2.1,5.042-2.808,10.804-3.475,16.265c-0.736,6.028-1.071,12.097-0.94,18.171
				c0.257,12.262,2.453,24.395,5.475,36.252c5.699,22.374,14.849,43.885,29.443,61.95c0.955,1.184,1.993,2.305,2.991,3.457
				c0.58,0.658,0.814,1.614,1.478,2.212c0.721,0.657,1.728,0.8,2.612,1.137c1.58,0.602,3.137,1.326,4.742,1.848
				c2.712,0.872,5.461,1.643,8.234,2.295c5.559,1.305,11.223,2.167,16.922,2.483c3.257,0.18,6.513,0.203,9.775,0.039
				c3.987-0.204,8.009-0.69,11.935-1.436C109.879,175.094,121.185,170.222,130.588,162.876z"/>
			<g style="opacity:0.8;">
				<path style="fill:#FFB479;" d="M118.697,73.835c-0.435-1.053-0.895-2.086-1.39-3.09c-0.523-1.059-1.911-0.401-1.831,0.638
					c0.073,0.938,0.179,1.879,0.299,2.821c0.879,0.219,1.776,0.373,2.7,0.428C118.562,74.369,118.634,74.103,118.697,73.835z"/>
				<path style="fill:#FFB479;" d="M55.706,169.915c0.101,0.035,0.211,0.06,0.314,0.094c-1.298-0.182-2.622-0.269-3.997-0.2
					c-0.098,0.004-0.175,0.027-0.247,0.066c-0.725-0.121-1.449-0.227-2.181-0.315c-0.758-0.091-0.975,0.901-0.446,1.306
					c3.963,2.997,9.849,3.606,14.646,4.143c0.769,0.085,1.541,0.169,2.316,0.24c2.862,0.52,5.838,0.575,8.717,0.721
					c3.904,0.195,7.779,0.258,11.674-0.167c4.539-0.5,9.218-2.28,13.713-3.252c0.469-0.095,0.324-0.813-0.147-0.726
					c-7.311,1.352-14.956,1.559-22.435,1.315c-3.317-0.349-6.683-0.421-10.007-0.63c-0.981-0.124-1.958-0.273-2.933-0.466
					c12.248,1.854,25.232-0.114,36.901-3.353c0.366-0.106,0.262-0.623-0.118-0.582c-7.463,0.886-14.999,1.307-22.518,1.316
					c-7.686,0.011-15.209-1.035-22.857-1.472C54.963,167.892,54.608,169.546,55.706,169.915z"/>
				<path style="fill:#FFB479;" d="M17.353,57.414c17.817,9.933,40.997,11.045,59.948,3.803c0.524-0.201,0.201-0.993-0.313-0.905
					c-9.739,1.7-19.444,3.209-29.357,2.856c-10.325-0.361-20.147-3.145-29.697-6.938C17.235,55.954,16.689,57.048,17.353,57.414z"/>
				<path style="fill:#FFB479;" d="M13.847,51.924c2.583,1.115,5.234,2.091,7.938,2.941c-0.037,0.421,0.111,0.879,0.519,1.178
					c4.078,2.973,9.865,4.075,14.754,4.956c5.737,1.029,11.551,1.451,17.381,1.469c11.11,0.029,22.045-2.047,32.462-5.876
					c0.533-0.194,0.207-1.038-0.321-0.927c-8.986,1.863-18.102,3.044-27.272,3.222c7.165-0.535,14.236-1.763,20.978-3.618
					c0.641-0.177,0.452-1.091-0.204-1.009c-11.009,1.355-21.968,2.693-33.083,2.275c-11.141-0.42-22.01-2.82-32.591-6.25
					C13.332,49.935,12.831,51.492,13.847,51.924z"/>
				<path style="fill:#FFB479;" d="M55.533,37.698c-0.408,0.318-0.356,0.757-0.104,1.064c-3.842,1.174-7.678,2.355-11.5,3.549
					c-0.409,0.126-0.297,0.78,0.134,0.665c11.542-3.069,24.58-4.023,35.09-10.111c0.531-0.316,0.28-1.265-0.373-1.078
					c-1.739,0.501-3.476,1.017-5.211,1.529c0.185-0.096,0.373-0.178,0.557-0.274c0.81-0.424,0.386-1.762-0.529-1.538
					C67.778,32.917,60.356,33.921,55.533,37.698z"/>
				<path style="fill:#FFB479;" d="M56.804,34.647c-0.671,0.301-0.154,1.243,0.506,0.992c6.082-2.26,12.517-3.337,18.581-5.597
					c0.653-0.246,0.258-1.264-0.39-1.133C69.162,30.174,62.706,31.979,56.804,34.647z"/>
				<path style="fill:#FFB479;" d="M58.972,30.848c-0.71,0.293-0.297,1.469,0.445,1.276c3.928-1.038,7.813-2.299,11.722-3.436
					c0.851-0.247,0.6-1.585-0.275-1.361C66.873,28.335,62.779,29.26,58.972,30.848z"/>
				<path style="fill:#FFB479;" d="M45.403,46.215c-0.492,0.194-0.202,1.013,0.301,0.876c8.208-2.265,17.276-3.078,25.016-6.72
					c0.759-0.354,0.311-1.44-0.462-1.335C61.843,40.185,53.32,43.199,45.403,46.215z"/>
				<path style="fill:#FFB479;" d="M40.057,23.152c-0.684,0.221-0.503,1.31,0.227,1.123c3.299-0.84,6.724-1.563,10.158-2.321
					c-0.744,0.312-1.491,0.624-2.217,0.944c-0.554,0.246-0.237,1.193,0.356,1.014c3.666-1.127,7.421-1.98,11.168-2.835
					c-2.65,1.043-5.269,2.163-7.801,3.237c-0.975,0.413-0.222,1.78,0.732,1.438c5.599-1.997,11.919-3.208,17.15-6.075
					c0.468-0.256,0.552-0.784,0.372-1.189c0.751-0.215,1.504-0.434,2.245-0.674c1.087-0.345,0.794-1.833-0.349-1.728
					c-1.494,0.145-3.002,0.375-4.512,0.644c0.146-0.513-0.334-1.188-0.978-1.109C57.721,16.745,48.543,20.355,40.057,23.152z"/>
				<path style="fill:#FFB479;" d="M29.235,28.625c-1.565,0.726-3.326,2.4-2.613,4.255c0.744,1.948,4.438,1.523,5.925,1.199
					c0.051-0.018,0.088-0.042,0.108-0.077c3.181,0.207,6.481-0.901,7.453-3.828c0.254-0.776-0.153-1.669-0.943-1.927
					c-0.544-0.169-1.077-0.286-1.612-0.363c2.031-0.108,4.058-0.092,6.103-0.277c0.276-0.028,0.287-0.459,0.036-0.534
					c-1.996-0.557-4.419-0.308-6.452-0.164C34.513,27.106,31.737,27.467,29.235,28.625z"/>
				<path style="fill:#FFB479;" d="M25.199,35.183c2.189,3.363,8.465,3.118,11.765,2.065c0.245-0.081,0.185-0.447-0.08-0.393
					c-1.887,0.397-3.812,0.472-5.738,0.27c-2.196-0.237-3.756-1.09-5.529-2.314C25.396,34.659,25.041,34.936,25.199,35.183z"/>
				<path style="fill:#FFB479;" d="M25.532,34.116c1.695,1.881,4.599,2.144,6.931,2.625c0.196,0.043,0.301-0.234,0.103-0.296
					c-2.361-0.751-4.639-1.05-6.569-2.75C25.705,33.444,25.255,33.806,25.532,34.116z"/>
				<path style="fill:#FFB479;" d="M34.61,14.085c-7.964,2.692-15.793,6.521-21.118,13.217c-4.297,5.406-5.299,11.543,0.16,16.445
					c5.092,4.575,12.307,6.124,18.778,7.625c0.253,0.051,0.387-0.306,0.132-0.389c-5.597-1.915-11.468-4.089-16.261-7.622
					c-7.894-5.819-3.087-13.764,2.536-19.308c5.846-5.774,14.153-8.299,21.734-10.918c9.064-3.123,18.523-5.089,27.84-7.295
					c0.307-0.07,0.213-0.555-0.098-0.484C57.036,7.915,45.576,10.384,34.61,14.085z"/>
				<path style="fill:#FFB479;" d="M50.348,47.79c-0.379,0.187-0.087,0.726,0.291,0.575c4.118-1.647,8.539-1.923,12.795-3.043
					c0.491-0.131,0.342-0.828-0.155-0.767C58.852,45.111,54.381,45.802,50.348,47.79z"/>
				<path style="fill:#FFB479;" d="M44.801,19.132c-0.418,0.191-0.176,0.921,0.266,0.769c2.686-0.913,5.496-1.292,8.242-1.957
					c0.49-0.119,0.345-0.837-0.154-0.764C50.315,17.604,47.442,17.933,44.801,19.132z"/>
			</g>
			<path style="opacity:0.6;fill:#806365;" d="M25.94,31.802c2.887-2.89,9.412-5.507,11.562-5.863
				c1.782-0.293,4.459-0.35,5.945,0.892c1.289,1.07,1.155,2.569-0.033,3.722c-3.77,3.642-10.355,5.044-15.616,4.116
				c4.054,2.683,10.577,0.168,15.007,0.202c0.298-0.005,0.463,0.375,0.302,0.608c-1.791,2.605-5.477,3.24-8.424,3.229
				c-2.408-0.009-5.195-0.304-7.365-1.557c-0.089,0.077-0.209,0.105-0.35,0.039c-1.866-0.898-2.533-1.928-2.421-2.994
				c-0.147,0.396-0.269,0.802-0.342,1.23c1.568,2.442,3.32,4.571,6.349,5.32c4.222,1.047,9.242,1.072,13.503,0.278
				c4.365-0.815,15.9-5.595,10.51-11.687c-4.352-4.921-11.802-5.367-17.716-3.59C33.404,26.78,28.552,28.653,25.94,31.802z"/>
			<path style="opacity:0.4;fill:#806365;" d="M130.894,52.1c1.472,6.139,2.744,12.324,3.809,18.544
				c0.327-0.878,0.653-1.757,0.946-2.647c2.132-6.466,3.454-13.151,4.422-19.883c-0.54-1.716-1.105-3.424-1.717-5.116
				c-2.351-6.502-5.364-12.753-8.772-18.77c-1.959-3.453-4.865-7.911-7.269-11.108c-3.507-4.667-8.769-7.169-14.337-8.428
				c-3.993-0.897-8.104-1.204-12.184-1.371c-4.031-0.161-8.04-0.154-12.036-0.007c7.597,0.542,15.09,1.774,22.172,4.869
				c0.393,0.172,0.322,0.816-0.157,0.772c-1.598-0.158-3.201-0.282-4.805-0.343c3.837,0.992,7.465,2.249,10.316,5.313
				c0.164,0.176,0.109,0.403-0.027,0.56c-0.558,0.628-1.218,1.136-1.952,1.556c0.51-0.001,1.018,0.015,1.526,0.054
				c1.301,0.107,3.153,0.354,3.887,1.622c0.955,1.657,0.492,3.702-0.263,5.358c-2.505,5.497-7.961,7.048-13.521,8.289
				c2.113-0.238,4.226-0.256,6.292,0.24c0.308,0.076,0.322,0.482,0.136,0.673c-5.618,5.791-13.647,7.811-20.868,10.845
				c-7.058,2.977-14.298,5.408-21.796,6.861c10.578-0.116,20.974-3.043,30.747-6.978c5.438-2.185,10.394-4.855,15.397-7.866
				c4.09-2.448,8.855-5.292,10.965-9.78c0.182-0.387,0.799-0.319,0.77,0.159c-0.282,4.283-0.609,8.796-2.465,12.745
				c-1.891,4.018-4.924,7.016-8.181,9.965c-5.681,5.138-12.023,10.49-19.181,13.687c6.083-1.415,12.205-3.274,17.394-6.408
				c3.3-1.986,6.11-4.568,8.965-7.125c1.735-1.551,3.863-4.153,6.344-4.411C129.048,43.591,130.303,49.646,130.894,52.1z"/>
			<path style="opacity:0.4;fill:#806365;" d="M141.348,152.298c0.067-0.265,0.146-0.533,0.215-0.795
				c1.734-3.971,2.721-8.33,3.581-12.632c-2.913-0.066-5.826-0.188-8.738-0.333c-1.708,3.608-4.062,6.878-7.239,9.477
				c-8.15,6.657-17.939,11.784-27.734,15.735c3.165-0.541,6.248-1.585,9.253-2.693c3.146-1.159,6.408-2.173,9.497-3.482
				c5.014-2.123,10.269-5.767,15.901-5.725c0.282,0.002,0.399,0.289,0.347,0.52c-0.81,3.694-4.626,6.464-7.463,8.608
				c-4.098,3.087-8.074,6.111-12.642,8.501c-2.748,1.433-5.549,2.747-8.332,4.104c-2.128,1.036-4.281,2.144-6.559,2.821
				c-1.242,0.369-2.499,0.69-3.755,1.011c0.132-0.019,0.27-0.039,0.404-0.066C114.845,174.144,130.635,165.679,141.348,152.298z"/>
			<path style="opacity:0.6;fill:#806365;" d="M72.275,166.176c-7.758-9.124-13.544-19.741-17.92-30.895
				c-0.321-0.097-0.638-0.206-0.955-0.317c4.515,11.37,10.567,22.033,18.75,31.32C72.221,166.364,72.349,166.256,72.275,166.176z"/>
			<path style="opacity:0.6;fill:#806365;" d="M141.348,152.298c0.067-0.265,0.146-0.533,0.215-0.795
				c1.734-3.971,2.721-8.33,3.581-12.632c-0.435-0.01-0.87-0.016-1.305-0.028c-0.039,0.169-0.075,0.339-0.114,0.508
				c-6.691,6.751-15.295,11.265-23.761,15.388c-9.532,4.642-19.558,8.329-29.982,10.334c-10.205,1.972-20.572,2.096-30.862,0.791
				c-2.006-0.256-4.061-0.553-6.128-0.91c-11.688-9.648-17.451-24.492-22.429-38.421c-6.704-18.735-10.452-38.827-10.634-58.711
				c-0.006-0.341-0.489-0.374-0.529-0.039c-0.641,4.706,0.006,9.629,0.447,14.333c0.47,5.06,1.322,10.106,2.201,15.107
				c1.743,9.84,4.215,19.541,7.49,28.985c2.679,7.715,5.755,15.428,9.589,22.65c3.067,5.787,7.028,11.877,12.436,15.833
				c-5.429-1.043-10.856-2.639-15.461-5.427c-9.677-13.845-17.223-29.001-22.099-45.39C10.462,101.973,7.627,89.827,6.3,77.471
				c-0.996-9.239-0.893-18.567,0.171-27.79c4.324,12.904,20.916,16.453,32.931,17.767c0.403,0.048,0.807,0.081,1.213,0.121
				c-0.153,8.657,0.816,17.076,2.122,25.639c1.372,9.026,3.206,17.978,5.647,26.772c1.244,4.472,2.679,8.88,4.321,13.196
				c0.276-0.016,0.552-0.033,0.828-0.054c-1.718-4.593-3.213-9.264-4.506-13.952c-2.309-8.368-3.972-16.907-5.321-25.48
				c-0.643-4.097-1.194-8.204-1.692-12.322c-0.557-4.594-0.611-9.121-0.661-13.727c8.246,0.805,16.618,0.911,24.895,0.163
				c0.254,3.632,1.11,7.284,1.961,10.804c0.962,4.008,1.933,8.015,2.887,12.025c1.928,8.126,3.89,16.246,6.057,24.312
				c1.15,4.29,2.359,8.579,3.653,12.845c0.308-0.064,0.615-0.132,0.919-0.211c-1.268-4.254-2.462-8.532-3.593-12.832
				c-2.062-7.844-3.949-15.731-5.834-23.618c-0.96-4.001-1.858-8.027-2.902-12.007c-0.985-3.764-1.592-7.604-2.486-11.386
				c7.812-0.756,15.532-2.27,22.972-4.734c0.481-0.16,0.958-0.323,1.437-0.495c2.356,7.568,4.948,15.056,7.201,22.649
				c0.326,1.1,0.633,2.206,0.948,3.31c0.033-0.13,0.068-0.26,0.101-0.391c0.124-0.484,0.252-0.968,0.381-1.453
				c-2.358-8.203-4.948-16.338-7.738-24.429c8.244-2.988,16.092-7.258,22.641-13.1c2.981,6.453,5.384,13.151,7.297,19.99
				c0.357,0.165,0.714,0.331,1.067,0.504c-1.938-7.143-4.444-14.157-7.716-20.987c-0.008-0.022-0.025-0.034-0.035-0.048
				c0.92-0.843,1.811-1.72,2.673-2.626c4.81-5.057,8.911-11.529,9.622-18.379c1.271,3.375,2.889,6.582,4.513,9.808
				c2.152,4.264,3.872,8.615,5.263,13.182c0.479,1.579,0.916,3.171,1.335,4.768c0.143-0.747,0.276-1.496,0.407-2.246
				c-0.187-0.676-0.368-1.354-0.565-2.028c-1.293-4.43-2.888-8.684-4.919-12.831c-2.055-4.189-4.364-8.272-5.93-12.682
				c0.002-0.819-0.031-1.643-0.133-2.468c0.677,1.13,1.338,2.268,1.958,3.429c2.826,5.249,5.373,10.705,7.448,16.29
				c0.952,2.561,1.788,5.168,2.557,7.799c0.129-0.818,0.259-1.637,0.377-2.457c-0.54-1.716-1.105-3.424-1.717-5.116
				c-2.351-6.502-5.364-12.753-8.772-18.77c-1.959-3.453-4.865-7.911-7.269-11.108c-3.507-4.667-8.769-7.169-14.337-8.428
				c-3.993-0.897-8.104-1.204-12.184-1.371C83.499,2.83,71.385,3.751,59.341,6.272c-14.956,3.125-31.279,7.959-43.666,17.341
				c-7.919,6-9.134,16.104-10.26,25.332c-0.736,6.028-1.071,12.097-0.94,18.171c0.257,12.262,2.453,24.395,5.475,36.252
				c5.699,22.374,14.849,43.885,29.443,61.95c0.955,1.184,1.993,2.305,2.991,3.457c0.58,0.658,0.814,1.614,1.478,2.212
				c0.721,0.657,1.728,0.8,2.612,1.137c1.58,0.602,3.137,1.326,4.742,1.848c2.712,0.872,5.461,1.643,8.234,2.295
				c5.559,1.305,11.223,2.167,16.922,2.483c3.257,0.18,6.513,0.203,9.775,0.039c3.987-0.204,8.009-0.69,11.935-1.436
				C114.845,174.144,130.635,165.679,141.348,152.298z M15.554,25.267c5.222-4.294,11.538-7.314,17.75-9.9
				c20.233-8.406,42.4-11.722,64.201-10.733c4.544,0.207,9.132,0.713,13.465,2.135c3.254,1.066,6.927,2.331,9.035,5.219
				c2.426,3.33,1.818,8.286,0.31,11.901c-2.097,5.008-6.643,8.363-11.011,11.277c-10.138,6.76-21.697,11.111-33.463,14.075
				c-15.603,3.937-32.281,5.973-48.148,2.222c-4.267-1.011-8.465-2.559-12.084-5.075c-3.367-2.338-7.069-6.34-6.849-10.697
				C8.971,31.509,12.488,27.792,15.554,25.267z M6.67,48.078c0.322-2.537,0.71-5.055,1.172-7.561
				c0.142-0.749,0.289-1.491,0.453-2.229c1.326,5.478,6.474,9.309,11.357,11.573c6.594,3.059,14.125,4.072,21.316,4.452
				c6.538,0.347,13.161,0.071,19.638-0.892c11.333-1.669,22.681-4.647,33.283-8.994c4.645-1.911,9.135-4.2,13.427-6.806
				c3.88-2.358,7.799-4.949,10.809-8.379c3.934-4.503,5.179-9.909,3.94-15.302c1.26,2.087,2.578,4.138,3.875,6.206
				c4.631,20.594-18.521,35.509-35.257,41.434c-7.775,2.752-15.921,4.39-24.174,5.162c-0.07-0.014-0.14-0.011-0.2,0.025
				c-8.313,0.763-16.72,0.648-24.97-0.097c0.002-0.06-0.001-0.122-0.004-0.184c-0.003-0.452-0.696-0.513-0.712-0.045
				c0,0.055,0.005,0.101,0.001,0.161c-0.542-0.052-1.084-0.1-1.623-0.156C26.707,65.153,10.781,61.446,6.67,48.078z M97.839,176.141
				c-8.795,1.766-17.827,1.946-26.724,0.986c-8.831-0.962-17.35-3.325-25.829-5.85c-2.816-3.382-5.501-6.849-8.047-10.404
				c2.67,1.645,5.75,2.639,8.735,3.477c3.885,1.096,7.873,1.824,11.85,2.485c10.455,1.728,21.26,1.37,31.675-0.467
				c10.54-1.855,20.688-5.665,30.327-10.246c8.174-3.891,16.764-8.276,23.396-14.611c-0.728,3.048-1.468,6.094-2.104,9.15
				c-2.485,2.911-4.976,5.775-7.798,8.384c-3.172,2.936-6.689,5.41-10.37,7.661C115.287,171.395,106.618,174.386,97.839,176.141z"/>
			<path style="opacity:0.6;fill:#806365;" d="M130.2,142.667c-0.027-1.48-0.054-2.963-0.08-4.446
				c-0.088-0.004-0.175-0.009-0.263-0.013c-0.073-0.003-0.141-0.027-0.205-0.058c0.089,1.512,0.178,3.024,0.29,4.535
				C129.951,142.835,130.208,142.823,130.2,142.667z"/>
			<path style="opacity:0.6;fill:#806365;" d="M94.449,161.966c-3.412-7.396-6.356-14.957-8.976-22.631
				c-0.315-0.04-0.63-0.081-0.946-0.12c2.747,7.826,5.895,15.504,9.647,22.889C94.262,162.28,94.532,162.146,94.449,161.966z"/>
			<path style="opacity:0.6;fill:#806365;" d="M111.855,153.647c0.316-3.441,0.324-6.897,0.121-10.356
				c-0.247,0.077-0.498,0.134-0.753,0.17c0.318,3.373,0.498,6.763,0.476,10.178C111.701,153.738,111.847,153.751,111.855,153.647z"
				/>
			<path style="opacity:0.5;fill:#806365;" d="M57.996,9.5c-7.75,1.791-15.416,4.064-22.827,6.971
				c-7.923,3.112-32.374,13.76-19.836,25.559c4.56,4.297,10.472,6.872,16.764,8.225c11.373,2.451,23.375,1.718,34.66-0.803
				c11.847-2.642,24.075-5.975,35.006-11.329c5.981-2.933,12.38-7.327,15.704-13.233c4.093-7.269-1.981-14.31-8.344-17.014
				c-7.364-3.132-15.72-2.427-23.505-2.018C76.328,6.341,67.061,7.408,57.996,9.5z M116.851,15.514
				c0.011,0.017,0.031,0.029,0.046,0.045c1.399,2.685,1.594,5.841-0.307,9.247c-0.605,1.075-1.33,2.095-2.132,3.06
				c-0.041-0.181-0.235-0.334-0.426-0.221c-1.46,0.87-3.092,1.196-4.739,1.517c-1.698,0.331-3.392,1.016-5.06,1.487
				c-3.417,0.958-6.87,1.798-10.325,2.599c-6.969,1.605-13.996,2.931-20.996,4.393c-13.839,2.891-28.02,5.6-41.373,10.337
				c-0.162,0.064-0.064,0.336,0.097,0.284c14.178-4.125,28.481-7.15,42.973-9.937c7.022-1.345,14.037-2.739,21.007-4.344
				c3.451-0.799,6.883-1.682,10.293-2.655c2.699-0.774,5.799-1.223,8.099-2.92c-4.195,4.76-10.462,8.08-15.984,10.57
				c-5.898,2.652-12.107,4.592-18.332,6.314c-6.019,1.665-12.075,3.342-18.24,4.403c-8.351,1.428-17.018,1.668-25.411,0.437
				c-5.531-0.81-12.871-3.75-17.721-6.855c-1.386-1.443-2.52-3.182-2.571-5.226c1.427,0.034,2.829-0.237,4.23-0.54
				c1.561-0.339,3.269-0.657,4.763-1.29c0.12,0.263,0.256,0.511,0.433,0.751c0.049,0.069,0.13,0.069,0.184,0.026
				c3.65,3.331,9.619,3.549,14.217,2.856c4.885-0.735,11.509-3.223,12.676-8.67c0.044-0.19-0.069-0.34-0.212-0.398
				c-0.013-0.218-0.036-0.441-0.061-0.68c3.921-0.848,7.97-1.934,11.791-3.131c0.07-0.022,0.086-0.08,0.077-0.126
				c17.613-3.938,35.533-6.639,52.906-11.464C116.786,15.429,116.821,15.465,116.851,15.514z M45.325,32.831
				c-6.021,1.851-12.636,2.377-18.809,1.138c-3.163-1.309,0.945-3.646,2.471-4.561c1.319-0.786,2.595-1.343,4.069-1.783
				c4.126-1.235,8.682-2.247,13.01-2.016c1.517,0.079,3.847,0.38,4.371,2.096C51.346,30.658,47.424,32.183,45.325,32.831z
				 M25.126,34.092c0.366,0.225,0.828,0.4,1.375,0.506c0.053,0.009,0.096,0,0.139-0.016c3.854,1.071,7.879,0.966,11.851,0.367
				c3.261-0.493,6.609-0.832,9.628-2.237c1.275-0.596,2.54-1.686,3.029-3.025c0.007,0.113,0.044,0.216,0.102,0.298
				c0.12,0.361,0.24,0.731,0.371,1.066c-1.597,5.171-7.329,7.227-12.196,8.049c-5.02,0.854-9.798,0.024-14.085-2.69
				c-0.116-0.496-0.224-1.002-0.317-1.51c-0.048-0.274-0.047-0.565-0.05-0.864C25.025,34.058,25.076,34.07,25.126,34.092z
				 M116.221,14.689c-4.71,0.909-9.375,2.147-14.069,3.135c-5.078,1.066-10.161,2.093-15.239,3.167
				c-8.508,1.802-17,3.711-25.386,6.02c-3.27,0.393-6.671,1.002-9.728,2.006c-0.148-0.608-0.358-1.187-0.681-1.665
				c-0.68-1.728-2.681-2.213-4.358-2.409c-5.034-0.588-10.857,0.632-15.596,2.318c-2.136,0.762-4.386,2.209-5.994,3.793
				c-0.738,0.724-0.986,1.403-0.86,1.976c-0.238,0.517-0.096,1.22-0.011,1.757c0.05,0.336,0.135,0.658,0.244,0.962
				c-1.372,0.069-2.745,0.543-4.066,0.865c-1.56,0.378-3.122,0.607-4.708,0.794c0.204-2.088,1.651-3.95,3.067-5.397
				c4.164-4.273,9.957-7.026,15.322-9.448c13.855-6.256,28.93-9.79,43.912-12c7.75-1.141,15.907-1.838,23.704-0.761
				C106.274,10.419,112.962,10.968,116.221,14.689z M80.241,7.369C88.888,6.597,98.43,5.18,106.88,7.88
				c2.466,0.792,4.93,2.121,6.909,3.841c-1.532-0.796-3.263-1.296-4.765-1.693C105.04,9,100.875,8.535,96.776,8.356
				C85.284,7.845,73.771,9.92,62.609,12.443c-12.373,2.8-24.588,6.465-35.741,12.666c-4.084,2.262-8.675,5.094-11.039,9.287
				c-1.548,2.757-1.004,5.421,0.683,7.563c-4.064-3.389-5.337-8.055-1.343-12.747c4.741-5.574,12.064-8.393,18.635-11.133
				C48.577,11.907,64.341,8.788,80.241,7.369z"/>
			<path style="fill:#FFD479;" d="M71.17,163.169c-5.578-8.714-10.253-17.758-14.109-27.211c-0.588-0.118-1.172-0.253-1.751-0.405
				c3.914,9.945,8.914,19.493,15.667,27.749C71.06,163.403,71.243,163.28,71.17,163.169z"/>
			<path style="fill:#FFD479;" d="M55.827,132.886c-1.433-3.721-2.746-7.505-3.928-11.363c-4.575-14.943-6.909-30.496-8.104-46.047
				c-0.027-0.357-0.59-0.302-0.613,0.041c-0.543,7.827,0.912,15.805,2.109,23.516c1.229,7.953,3.153,15.797,5.501,23.48
				c1.08,3.532,2.26,7.061,3.563,10.552C54.847,133.019,55.337,132.949,55.827,132.886z"/>
			<path style="fill:#FFD479;" d="M94.906,157.163c-2.381-5.76-4.689-11.602-6.855-17.501c-0.335-0.044-0.67-0.084-1.005-0.128
				c2.267,6.03,4.711,11.994,7.686,17.715C94.789,157.364,94.956,157.283,94.906,157.163z"/>
			<path style="fill:#FFD479;" d="M83.664,126.895c-1.407-4.411-2.712-8.845-3.853-13.303C75.997,98.7,72.565,83.707,68.92,68.777
				c-0.101-0.424-0.715-0.296-0.66,0.133c0.96,7.61,2.931,15.055,4.838,22.457c1.992,7.72,3.615,15.518,5.621,23.228
				c1.128,4.313,2.474,8.537,3.918,12.733C82.993,127.217,83.35,127.082,83.664,126.895z"/>
			<path style="fill:#FFD479;" d="M17.927,58.238c17.933,9.079,38.764,10.331,58.105,5.344c0.267-0.07,0.184-0.462-0.085-0.42
				c-4.949,0.709-9.845,1.604-14.832,2.034c-4.907,0.413-9.87,0.342-14.774-0.06c-9.679-0.79-19.377-3.27-28.246-7.235
				C17.898,57.815,17.738,58.135,17.927,58.238z"/>
			<path style="fill:#FFD479;" d="M25.599,36.082c3.222,3.024,8.658,2.855,12.678,1.959c0.151-0.035,0.15-0.29-0.018-0.284
				c-4.277,0.054-8.592,0.005-12.499-1.921C25.629,35.773,25.497,35.977,25.599,36.082z"/>
			<path style="fill:#FFD479;" d="M25.513,33.117c3.413,3.269,9.702,0.998,13.587,0.001c0.188-0.046,0.126-0.309-0.057-0.28
				c-4.428,0.482-9.027,1.919-13.254-0.135C25.556,32.58,25.328,32.941,25.513,33.117z"/>
			<path style="fill:#FFD479;" d="M49.86,171.159c12.099,7.523,27.735,4.241,41.098,3.775c0.088-0.01,0.108-0.148,0.01-0.152
				c-6.715-0.123-13.421,0.371-20.131,0.311c-7.318-0.068-14.061-1.487-20.81-4.283C49.819,170.727,49.668,171.041,49.86,171.159z"
				/>
		</g>
	</g>
	<g>
		<g>
			<g>
				<path style="fill:#C68C50;" d="M210.22,69l-9.529-4.064c0.947,4.037,4.999,24.032,2.558,62.043l3.853,2.133
					C207.101,129.112,213.522,101.383,210.22,69z"/>
				<path style="fill:#684923;" d="M207.101,129.512c-0.067,0-0.134-0.017-0.194-0.05l-3.853-2.133
					c-0.135-0.075-0.216-0.221-0.206-0.377c2.45-38.164-1.693-58.28-2.548-61.925c-0.035-0.147,0.016-0.301,0.132-0.398
					c0.115-0.097,0.276-0.12,0.415-0.062l9.529,4.064c0.134,0.057,0.226,0.183,0.241,0.328c3.272,32.078-3.062,59.964-3.126,60.243
					c-0.028,0.122-0.113,0.224-0.228,0.276C207.212,129.501,207.157,129.512,207.101,129.512z M203.665,126.751l3.16,1.749
					c0.844-3.954,5.981-29.788,3.02-59.224l-8.591-3.664C202.381,70.807,205.953,90.766,203.665,126.751z"/>
			</g>
		</g>
		<g>
			<path style="fill:#C68C50;" d="M204.56,127.705c0.07-1.016,0.152-2.031,0.215-3.048c0.331-5.306,0.562-10.62,0.589-15.937
				c0.027-5.328-0.209-10.647-0.548-15.964c-0.575-9.03-1.448-18.037-2.308-27.044l-1.819-0.776
				c0.947,4.037,4.999,24.032,2.558,62.043L204.56,127.705z"/>
		</g>
		<g>
			<path style="fill:#C68C50;" d="M204.017,103.824c2.17-0.056,4.352,0.109,6.525,0.338c0.224-2.954,0.404-6.099,0.51-9.404
				c-2.396-0.266-4.794-0.519-7.197-0.599C203.957,97.147,204.015,100.372,204.017,103.824z"/>
			<path style="fill:#C68C50;" d="M203.999,107.386c-0.062,5.899-0.29,12.421-0.751,19.592l3.853,2.133
				c0,0,1.788-7.744,2.991-19.816C208.025,108.805,205.996,108.129,203.999,107.386z"/>
			<path style="fill:#C68C50;" d="M210.664,74.163c-0.124-1.706-0.268-3.426-0.445-5.163l-9.529-4.064
				c0.249,1.06,0.712,3.23,1.214,6.525C204.82,72.376,207.757,73.224,210.664,74.163z"/>
		</g>
		<g>
			<path style="fill:#C68C50;" d="M160.548,59.055c0,0,28.715-4.276,81.268,18.986l0.719,4.633c0,0-33.27-18.009-81.101-18.611
				L160.548,59.055z"/>
			<path style="fill:#684923;" d="M242.536,83.075c-0.066,0-0.131-0.016-0.191-0.049c-0.332-0.179-33.742-17.968-80.915-18.563
				c-0.193-0.002-0.356-0.142-0.39-0.331l-0.887-5.008c-0.019-0.106,0.006-0.216,0.069-0.304c0.063-0.088,0.16-0.146,0.267-0.162
				c0.286-0.047,29.429-4.029,81.489,19.016c0.125,0.055,0.213,0.17,0.234,0.304l0.719,4.633c0.024,0.151-0.041,0.301-0.165,0.389
				C242.698,83.05,242.617,83.075,242.536,83.075z M161.771,63.666c43.424,0.622,75.177,15.732,80.248,18.29l-0.565-3.637
				c-48.357-21.365-76.745-19.308-80.437-18.916L161.771,63.666z"/>
		</g>
		<g>
			<path style="fill:#C68C50;" d="M163.857,98.681c0,0,27.699-8.696,83.234,6.099l1.432,4.464c0,0-35.669-12.608-83.009-5.754
				L163.857,98.681z"/>
			<path style="fill:#684923;" d="M248.523,109.645c-0.045,0-0.09-0.008-0.134-0.023c-0.356-0.125-36.127-12.497-82.819-5.735
				c-0.189,0.023-0.373-0.084-0.436-0.266l-1.657-4.809c-0.035-0.103-0.027-0.214,0.021-0.312c0.048-0.096,0.135-0.169,0.238-0.201
				c0.279-0.087,28.447-8.56,83.457,6.093c0.132,0.035,0.236,0.135,0.279,0.265l1.433,4.465c0.046,0.145,0.006,0.304-0.103,0.41
				C248.727,109.606,248.626,109.645,248.523,109.645z M193.843,101.067c28.991,0,49.896,6.211,54.057,7.548l-1.125-3.505
				c-51.095-13.574-78.814-7.118-82.401-6.159l1.41,4.094C175.709,101.627,185.141,101.067,193.843,101.067z"/>
		</g>
		<g>
			<g>
				<path style="fill:#C68C50;" d="M249.615,79.123c-0.206-0.114-0.412-0.239-0.615-0.355c-2.928-2.321-6.344-4.106-9.742-5.772
					c-1.221,4.225-2.597,8.408-3.926,12.598c-0.056,0.175-0.212,0.305-0.401,0.305c-2.728,0-5.498-0.008-8.171,0.597
					c1.155,1.942,2.541,3.738,3.881,5.553c1.329,1.801,2.649,3.632,3.663,5.634c0.77,1.522,1.69,3.441,1.188,5.18
					c-0.436,1.511-1.737,2.583-3.011,3.397c-1.203,0.769-2.498,1.369-3.772,2.008c1.039,0.417,2.161,0.657,3.087,1.313
					c0.395,0.28,1.026,0.816,0.966,1.36c-0.044,0.4-0.423,0.809-0.649,1.118c-0.563,0.767-1.215,1.485-1.706,2.303
					c-1.019,1.699-1.881,3.482-2.641,5.311c-1.544,3.719-3.005,7.475-4.502,11.214c-0.763,1.906-1.568,3.8-2.303,5.717
					c-0.597,1.557-1.116,3.144-1.692,4.709c-1.152,3.125-2.476,6.252-4.639,8.825c-0.284,0.338-0.782-0.03-0.695-0.404
					c0.751-3.234,1.014-6.548,1.121-9.86c0.096-2.982,0.065-5.966,0.136-8.948c0.04-1.668,0.31-3.306,0.49-4.963
					c0.102-0.936,0.187-1.879,0.178-2.822c-0.006-0.632-0.009-1.393-0.32-1.966c-0.346-0.638-1.29-0.669-1.927-0.738
					c-0.82-0.089-1.732-0.062-2.514-0.35c-0.189-0.07-0.381-0.291-0.29-0.511c0.745-1.809,2.035-3.355,2.655-5.215
					c-3.017-1.766-6.14-3.339-9.24-4.952c-5.868-3.055-11.593-6.398-17.369-9.622c-2.578-1.439-5.111-3.035-7.881-4.079
					c-2.216-0.836-4.69-1.512-6.491-3.126c-0.137-0.122-0.153-0.351-0.065-0.504c2.213-3.827,5.992-6.739,7.401-11.02
					c-1.496-0.976-3.295-1.354-4.861-2.203c-0.181-0.098-0.28-0.392-0.149-0.569c2.497-3.367,5.598-6.194,8.393-9.3
					c-1.648-1.319-3.357-2.558-5.126-3.709c-4.921-3.204-10.202-5.781-15.601-8.073c-1.55,0.072-3.098,0.166-4.644,0.303
					c-5.939,0.526-11.815,1.658-17.583,3.172c-3.31,0.872-7.668,2.311-10.864,3.609c-4.664,1.894-7.911,5.729-10.19,10.094
					c-1.628,3.131-2.791,6.491-3.831,9.855c-3.121,10.14-5.025,20.442-5.58,31.04c-0.694,13.158-0.265,27.833,4.824,40.23
					c3.255,7.926,11.411,11.167,18.855,14.142c4.863,1.943,9.849,3.562,14.941,4.792c10.279,2.491,20.88,3.336,31.431,3.432
					c19.91,0.185,39.862-2.699,58.143-10.88c1.198-0.535,2.361-1.153,3.542-1.731c0.677-0.338,1.525-0.323,2.171-0.745
					c0.707-0.456,1.048-1.264,1.524-1.927c0.85-1.184,1.797-2.323,2.586-3.546c1.326-2.069,2.575-4.191,3.73-6.358
					c2.314-4.347,4.282-8.878,5.803-13.56c0.868-2.676,1.606-5.385,2.189-8.141c0.71-3.369,1.192-6.829,1.436-10.267
					C261.981,106.038,258.407,91.007,249.615,79.123z"/>
				<path style="fill:#684923;" d="M181.573,178.283c-0.579,0-1.159-0.002-1.742-0.008c-12.271-0.112-22.287-1.206-31.521-3.444
					c-4.963-1.199-10.008-2.817-14.995-4.81c-7.419-2.963-15.766-6.297-19.078-14.361c-5.549-13.516-5.428-29.532-4.854-40.403
					c0.542-10.354,2.425-20.829,5.598-31.137c0.943-3.052,2.139-6.616,3.858-9.921c2.662-5.102,6.16-8.561,10.394-10.281
					c3.151-1.28,7.537-2.737,10.913-3.625c6.274-1.647,12.047-2.688,17.65-3.184c1.396-0.124,2.921-0.223,4.66-0.304
					c0.062-0.009,0.12,0.008,0.175,0.031c6.298,2.673,11.275,5.248,15.663,8.105c1.758,1.145,3.493,2.4,5.158,3.732
					c0.086,0.069,0.14,0.171,0.149,0.28c0.009,0.11-0.027,0.219-0.101,0.301c-0.951,1.057-1.951,2.096-2.919,3.101
					c-1.876,1.949-3.815,3.964-5.451,6.171c0.684,0.338,1.418,0.621,2.128,0.894c0.937,0.36,1.906,0.734,2.78,1.303
					c0.152,0.099,0.218,0.289,0.161,0.461c-0.871,2.645-2.627,4.789-4.327,6.862c-1.102,1.345-2.241,2.735-3.108,4.233
					c1.412,1.283,3.316,1.964,5.158,2.62c0.402,0.144,0.802,0.287,1.194,0.435c2.217,0.836,4.301,2.03,6.316,3.186
					c0.539,0.308,1.078,0.618,1.619,0.919c1.661,0.927,3.319,1.864,4.976,2.802c4.035,2.282,8.208,4.642,12.383,6.815l1.602,0.831
					c2.531,1.31,5.148,2.664,7.655,4.13c0.163,0.095,0.237,0.293,0.178,0.473c-0.354,1.062-0.918,2.024-1.463,2.954
					c-0.431,0.737-0.878,1.498-1.203,2.288c0.572,0.171,1.181,0.213,1.769,0.252c0.24,0.016,0.478,0.033,0.708,0.058l0.182,0.019
					c0.692,0.068,1.639,0.162,2.054,0.927c0.355,0.656,0.363,1.477,0.369,2.138c0.009,1.004-0.081,1.978-0.181,2.885
					c-0.051,0.47-0.109,0.939-0.168,1.409c-0.143,1.152-0.291,2.344-0.319,3.519c-0.031,1.325-0.043,2.65-0.054,3.975
					c-0.014,1.631-0.028,3.317-0.081,4.977c-0.089,2.738-0.298,6.343-1.132,9.938c2.129-2.479,3.454-5.627,4.568-8.65
					c0.243-0.66,0.475-1.324,0.708-1.988c0.32-0.912,0.64-1.824,0.986-2.726c0.464-1.209,0.955-2.409,1.446-3.607
					c0.288-0.705,0.576-1.409,0.86-2.115c0.465-1.162,0.927-2.325,1.389-3.488c1.008-2.539,2.05-5.164,3.115-7.73
					c0.832-2.003,1.704-3.757,2.667-5.363c0.334-0.558,0.738-1.069,1.13-1.562c0.203-0.256,0.405-0.511,0.597-0.773l0.143-0.187
					c0.182-0.233,0.408-0.523,0.43-0.737c0.026-0.24-0.287-0.628-0.799-0.99c-0.6-0.426-1.297-0.665-2.035-0.918
					c-0.326-0.112-0.651-0.224-0.969-0.352c-0.146-0.059-0.244-0.198-0.251-0.355c-0.006-0.157,0.081-0.304,0.221-0.375l0.723-0.359
					c1.011-0.5,2.056-1.015,3.013-1.628c1.015-0.649,2.414-1.683,2.842-3.171c0.441-1.526-0.332-3.251-1.161-4.888
					c-0.987-1.95-2.279-3.751-3.627-5.577l-0.602-0.811c-1.135-1.527-2.309-3.106-3.301-4.775c-0.066-0.11-0.074-0.246-0.023-0.363
					c0.05-0.118,0.154-0.204,0.279-0.232c2.682-0.608,5.456-0.642,8.156-0.608h0.103l0.916-2.837
					c1.022-3.197,2.079-6.502,3.026-9.776c0.033-0.114,0.114-0.207,0.223-0.255c0.107-0.048,0.231-0.047,0.338,0.006
					c3.138,1.538,6.743,3.384,9.814,5.818l0.212,0.118c0.115,0.068,0.232,0.136,0.348,0.2c0.05,0.028,0.094,0.066,0.129,0.112
					c8.449,11.421,12.505,26.288,11.419,41.863c-0.246,3.471-0.732,6.943-1.444,10.321c-0.566,2.674-1.306,5.427-2.2,8.182
					c-1.477,4.546-3.438,9.13-5.83,13.625c-1.135,2.129-2.395,4.277-3.746,6.386c-0.504,0.781-1.075,1.533-1.627,2.26
					c-0.329,0.432-0.657,0.864-0.971,1.303c-0.128,0.177-0.244,0.365-0.362,0.553c-0.337,0.54-0.685,1.098-1.271,1.476
					c-0.413,0.27-0.871,0.379-1.315,0.486c-0.325,0.077-0.632,0.15-0.893,0.281c-0.389,0.19-0.773,0.384-1.157,0.577
					c-0.78,0.392-1.587,0.798-2.4,1.161C221.941,174.611,202.915,178.283,181.573,178.283z M162.402,57.609
					c-1.69,0.079-3.175,0.177-4.536,0.298c-5.558,0.492-11.288,1.525-17.517,3.16c-3.346,0.881-7.693,2.324-10.815,3.593
					c-4.054,1.647-7.414,4.981-9.985,9.909c-1.689,3.248-2.871,6.77-3.803,9.787c-3.153,10.245-5.024,20.655-5.563,30.943
					c-0.569,10.793-0.692,26.69,4.796,40.057c3.182,7.75,11.363,11.017,18.58,13.9c5.005,2,10.014,3.607,14.94,4.796
					c9.173,2.223,19.132,3.311,31.341,3.422c21.931,0.211,41.441-3.445,57.975-10.844c0.796-0.356,1.595-0.758,2.367-1.146
					c0.387-0.195,0.773-0.389,1.162-0.579c0.341-0.171,0.708-0.258,1.062-0.343c0.395-0.094,0.767-0.182,1.065-0.377
					c0.437-0.283,0.723-0.742,1.027-1.229c0.127-0.203,0.254-0.405,0.391-0.597c0.319-0.444,0.651-0.882,0.985-1.321
					c0.542-0.715,1.104-1.454,1.591-2.208c1.339-2.089,2.588-4.22,3.712-6.329c2.37-4.453,4.314-8.994,5.775-13.495
					c0.885-2.728,1.618-5.454,2.178-8.1c0.705-3.341,1.185-6.777,1.428-10.212c1.071-15.353-2.911-30.003-11.212-41.261
					c-0.096-0.055-0.193-0.11-0.288-0.167l-0.254-0.147c-2.92-2.309-6.295-4.073-9.291-5.55c-0.915,3.134-1.924,6.286-2.9,9.338
					l-0.896,2.811c-0.111,0.349-0.426,0.584-0.783,0.584h-0.103c-2.452-0.011-4.999-0.001-7.43,0.472
					c0.907,1.461,1.951,2.864,2.963,4.226l0.604,0.813c1.369,1.855,2.682,3.686,3.697,5.691c0.709,1.4,1.78,3.516,1.216,5.472
					c-0.503,1.747-2.056,2.905-3.18,3.623c-0.957,0.613-1.979,1.123-2.972,1.614c0.021,0.008,0.042,0.015,0.063,0.022
					c0.759,0.26,1.543,0.529,2.238,1.022c0.56,0.396,1.211,1.018,1.133,1.731c-0.048,0.44-0.351,0.829-0.595,1.142l-0.13,0.17
					c-0.197,0.268-0.406,0.532-0.615,0.795c-0.375,0.474-0.763,0.964-1.07,1.476c-0.942,1.572-1.798,3.292-2.614,5.258
					c-1.063,2.561-2.104,5.183-3.11,7.718c-0.463,1.165-0.925,2.329-1.39,3.491c-0.283,0.708-0.572,1.415-0.862,2.122
					c-0.488,1.193-0.977,2.387-1.439,3.59c-0.343,0.895-0.66,1.8-0.977,2.704c-0.234,0.669-0.468,1.336-0.713,2
					c-1.139,3.091-2.498,6.315-4.708,8.944c-0.236,0.28-0.6,0.355-0.928,0.191c-0.355-0.178-0.55-0.575-0.464-0.944
					c0.639-2.752,0.982-5.768,1.112-9.782c0.053-1.65,0.067-3.332,0.081-4.958c0.012-1.329,0.023-2.658,0.054-3.986
					c0.029-1.216,0.18-2.428,0.326-3.6c0.058-0.465,0.116-0.93,0.167-1.397c0.096-0.882,0.185-1.829,0.176-2.775
					c-0.006-0.618-0.011-1.299-0.272-1.779c-0.212-0.391-0.886-0.458-1.429-0.511l-0.19-0.02c-0.219-0.024-0.446-0.039-0.676-0.055
					c-0.645-0.044-1.312-0.088-1.933-0.318c-0.227-0.083-0.419-0.261-0.513-0.476c-0.081-0.184-0.084-0.384-0.009-0.564
					c0.345-0.841,0.806-1.627,1.252-2.387c0.491-0.839,0.957-1.635,1.285-2.497c-2.402-1.393-4.906-2.689-7.331-3.944l-1.603-0.832
					c-4.188-2.179-8.367-4.543-12.408-6.828c-1.657-0.936-3.312-1.873-4.973-2.8c-0.542-0.303-1.084-0.613-1.626-0.924
					c-1.988-1.139-4.044-2.317-6.201-3.131c-0.387-0.146-0.782-0.287-1.181-0.429c-1.913-0.684-3.892-1.39-5.437-2.774
					c-0.271-0.244-0.333-0.675-0.145-1.002c0.9-1.556,2.06-2.972,3.183-4.341c1.586-1.936,3.225-3.936,4.083-6.308
					c-0.731-0.434-1.528-0.74-2.366-1.062c-0.734-0.282-1.492-0.574-2.204-0.96c-0.197-0.106-0.346-0.312-0.398-0.548
					c-0.049-0.221-0.005-0.444,0.119-0.611c1.667-2.248,3.624-4.282,5.518-6.249c0.865-0.9,1.757-1.826,2.613-2.765
					c-1.542-1.217-3.143-2.368-4.761-3.421C173.529,62.794,168.616,60.251,162.402,57.609z"/>
			</g>
			<path style="opacity:0.66;fill:#C68C50;" d="M123.9,165.304c3.821-1.643,7.382-3.917,10.556-6.581
				c4.048-3.398,7.571-7.482,9.982-12.203c3.06-5.988,4.97-12.49,6.063-19.11c1.044-6.324,1.315-12.736,1.456-19.134
				c0.12-5.457-0.076-10.952-0.953-16.347c-0.868-5.338-2.395-10.684-5.25-15.319c-2.593-4.21-6.318-7.693-11.056-9.302
				c-2.984-1.013-6.18-1.236-9.262-0.708c-2.633,2.042-4.676,4.779-6.244,7.784c-1.628,3.131-2.791,6.491-3.831,9.855
				c-3.121,10.14-5.025,20.442-5.58,31.04c-0.694,13.158-0.265,27.833,4.824,40.23C116.461,160.021,119.905,163.013,123.9,165.304z"
				/>
			<path style="opacity:0.66;fill:#C68C50;" d="M219.633,140.889c3.261-7.161,6.248-14.453,9.887-21.436
				c1.317-2.527,2.548-5.035,4.406-7.224c1.565-1.844,3.423-3.415,5.274-4.968c-0.714-0.057-1.427-0.112-2.135,0.047
				c-0.375,0.084-0.739-0.408-0.404-0.695c1.175-1.007,2.344-2.028,3.393-3.167c0.805-0.874,1.813-1.982,1.996-3.208
				c0.155-1.044-0.875-2.138-1.498-2.86c-0.933-1.082-1.966-2.072-2.96-3.097c-0.86-0.887-1.76-1.805-2.376-2.886
				c-0.11-0.193-0.048-0.457,0.149-0.569c3.069-1.734,5.747-3.887,7.372-7.078c1.25-2.453,1.783-5.099,2.065-7.816
				c-1.799-1.06-3.673-2.018-5.545-2.936c-1.221,4.225-2.597,8.408-3.926,12.598c-0.056,0.175-0.212,0.305-0.401,0.305
				c-2.728,0-5.498-0.008-8.171,0.597c1.155,1.942,2.541,3.738,3.881,5.553c1.329,1.801,2.649,3.632,3.663,5.634
				c0.77,1.522,1.69,3.441,1.188,5.18c-0.436,1.511-1.737,2.583-3.011,3.397c-1.203,0.769-2.498,1.369-3.772,2.008
				c1.039,0.417,2.161,0.657,3.087,1.313c0.395,0.28,1.026,0.816,0.966,1.36c-0.044,0.4-0.423,0.809-0.649,1.118
				c-0.563,0.767-1.215,1.485-1.706,2.303c-1.019,1.699-1.881,3.482-2.641,5.311c-1.544,3.719-3.005,7.475-4.502,11.214
				c-0.763,1.906-1.568,3.8-2.303,5.717c-0.597,1.557-1.116,3.144-1.692,4.709c-0.271,0.737-0.554,1.473-0.853,2.203
				C218.827,142.644,219.233,141.768,219.633,140.889z"/>
			<path style="opacity:0.66;fill:#C68C50;" d="M210.423,122.979c-0.436,1.032-0.912,2.046-1.369,3.069
				c-0.155,0.346-0.311,0.696-0.457,1.05c1.251-1.14,2.426-2.362,3.514-3.659c0.192-0.229,0.643-0.114,0.695,0.183
				c0.36,2.073,0.559,4.169,0.658,6.27c0.31,6.562-0.3,13.213,0.49,19.745c0.734-3.203,0.997-6.484,1.102-9.762
				c0.096-2.982,0.065-5.966,0.136-8.948c0.04-1.668,0.31-3.306,0.49-4.963c0.102-0.936,0.187-1.879,0.178-2.822
				c-0.006-0.632-0.009-1.393-0.32-1.966c-0.346-0.638-1.29-0.669-1.927-0.738c-0.714-0.078-1.493-0.079-2.2-0.265
				C211.176,121.136,210.808,122.067,210.423,122.979z"/>
			<path style="opacity:0.66;fill:#C68C50;" d="M162.412,57.681c2.492,1.822,4.977,3.667,7.631,5.249
				c2.559,1.525,5.305,2.832,8.269,3.304c0.343,0.055,0.355,0.481,0.184,0.695c-3.226,4.02-6.869,7.69-10.627,11.213
				c2.16,0.065,4.309-0.325,6.471-0.338c0.297-0.002,0.543,0.361,0.359,0.625c-0.363,0.521-0.745,1.029-1.136,1.531
				c-1.788,2.297-3.767,4.463-5.271,6.967c-0.715,1.191-1.311,2.452-1.61,3.814c-0.158,0.718-0.486,1.562-0.425,2.309
				c0.032,0.383,0.421,0.587,0.839,0.792c1.066,0.522,2.168,0.952,3.22,1.505c3.199,1.684,6.399,3.368,9.598,5.051
				c3.127,1.646,6.241,3.294,9.295,5.072c2.992,1.742,5.963,3.52,8.966,5.243c1.52,0.871,3.047,1.729,4.589,2.56
				c1.255,0.676,2.526,1.453,3.845,1.994c0.918,0.376,1.905,0.575,2.835,0.921c0.751,0.279,1.684,0.63,2.013,1.429
				c0.057,0.138,0.086,0.283,0.115,0.427c0.68-1.207,1.453-2.367,1.892-3.684c-3.017-1.766-6.14-3.339-9.24-4.952
				c-5.868-3.055-11.593-6.398-17.369-9.622c-2.578-1.439-5.111-3.035-7.881-4.079c-2.216-0.836-4.69-1.512-6.491-3.126
				c-0.137-0.122-0.153-0.351-0.065-0.504c2.213-3.827,5.992-6.739,7.401-11.02c-1.496-0.976-3.295-1.354-4.861-2.203
				c-0.181-0.098-0.28-0.392-0.149-0.569c2.497-3.367,5.598-6.194,8.393-9.3c-1.648-1.319-3.357-2.558-5.126-3.709
				c-4.921-3.204-10.202-5.781-15.601-8.073c-0.224,0.01-0.447,0.025-0.671,0.037C162.006,57.388,162.21,57.534,162.412,57.681z"/>
			<g>
				<path style="fill:#C68C50;" d="M214.006,150.062c0.073,0.561,0.153,1.12,0.249,1.679c0.771-1.404,1.506-2.827,2.226-4.259
					c-0.547,0.93-1.152,1.824-1.852,2.657C214.436,150.37,214.145,150.268,214.006,150.062z"/>
				<path style="fill:#684923;" d="M214.256,152.142c-0.022,0-0.044-0.002-0.066-0.006c-0.168-0.028-0.301-0.16-0.33-0.327
					c-0.097-0.564-0.178-1.13-0.252-1.695c-0.024-0.185,0.082-0.362,0.256-0.427c0.171-0.064,0.369-0.004,0.474,0.151
					c0.013,0.02,0.031,0.031,0.038,0.034c0.579-0.743,1.172-1.594,1.76-2.593c0.11-0.186,0.348-0.25,0.537-0.149
					c0.19,0.104,0.264,0.339,0.166,0.532c-0.836,1.663-1.545,3.02-2.232,4.271C214.536,152.064,214.401,152.142,214.256,152.142z"/>
			</g>
			<path style="opacity:0.66;fill:#C68C50;" d="M256.06,90.427c-0.131,6.165-0.676,12.323-1.657,18.41
				c-1.334,8.276-3.396,16.604-6.724,24.318c-2.66,6.166-6.466,11.833-11.858,15.924c-5.916,4.489-13.005,6.483-20.182,7.909
				c-9.864,1.961-20.025,3.097-30.092,2.729c-6.658-0.244-13.855-0.239-19.996-3.171c-2.921-1.395-5.458-3.625-6.336-6.837
				c-0.962-3.522-0.175-7.343,0.688-10.801c0.452-1.81,0.977-3.601,1.447-5.406c0.4-1.534,0.699-3.087,1.039-4.634
				c0.736-3.345,1.332-6.725,1.735-10.127c0.435-3.671,0.668-7.39,0.428-11.084c-0.183-2.817-0.632-5.753-1.873-8.322
				c-0.115,0.652-0.234,1.302-0.341,1.955c-1.315,8.023-2.03,16.135-3.477,24.138c-1.424,7.872-3.653,15.645-7.644,22.626
				c-1.966,3.439-4.328,6.64-7.031,9.536c-2.48,2.658-5.336,5.127-8.683,6.62c-3.234,1.443-6.684,1.727-10.113,0.847
				c-1.651-0.423-3.232-1.072-4.723-1.892c3.741,2.863,8.388,4.725,12.793,6.485c4.863,1.943,9.849,3.562,14.941,4.792
				c10.279,2.491,20.88,3.336,31.431,3.432c19.91,0.185,39.862-2.699,58.143-10.88c1.198-0.535,2.361-1.153,3.542-1.731
				c0.677-0.338,1.525-0.323,2.171-0.745c0.707-0.456,1.048-1.264,1.524-1.927c0.85-1.184,1.797-2.323,2.586-3.546
				c1.326-2.069,2.575-4.191,3.73-6.358c2.314-4.347,4.282-8.878,5.803-13.56c0.868-2.676,1.606-5.385,2.189-8.141
				c0.71-3.369,1.192-6.829,1.436-10.267C261.677,110.387,260.11,99.887,256.06,90.427z"/>
			<g style="opacity:0.8;">
				<path style="fill:#FFB479;" d="M179.203,80.698c-0.974,0.13-1.937,0.286-2.882,0.477c-0.999,0.202-0.756,1.505,0.128,1.667
					c0.798,0.146,1.606,0.265,2.418,0.373c0.376-0.685,0.703-1.398,0.952-2.157C179.619,80.928,179.413,80.809,179.203,80.698z"/>
				<path style="fill:#FFB479;" d="M245.408,154.409c0.051-0.077,0.096-0.162,0.148-0.241c-0.439,1.042-0.803,2.127-1.048,3.288
					c-0.018,0.082-0.016,0.152,0,0.22c-0.261,0.578-0.508,1.158-0.744,1.749c-0.243,0.612,0.536,1.012,0.99,0.66
					c3.373-2.643,5.179-7.415,6.685-11.297c0.24-0.622,0.481-1.248,0.711-1.877c1.065-2.271,1.768-4.74,2.524-7.108
					c1.024-3.212,1.931-6.429,2.436-9.769c0.584-3.894,0.133-8.188,0.314-12.15c0.025-0.412-0.606-0.449-0.638-0.038
					c-0.486,6.393-2,12.813-3.853,18.994c-1.023,2.689-1.825,5.479-2.733,8.204c-0.32,0.791-0.66,1.572-1.035,2.343
					c4.247-9.802,5.472-21.061,5.345-31.504c-0.008-0.329-0.462-0.356-0.511-0.03c-0.907,6.418-2.219,12.793-3.871,19.063
					c-1.687,6.41-4.218,12.451-6.27,18.731C243.559,154.583,244.859,155.243,245.408,154.409z"/>
				<path style="fill:#FFB479;" d="M143.156,161.565c12.211-12.663,18.252-31.743,16.395-49.14
					c-0.052-0.482-0.783-0.386-0.823,0.061c-0.731,8.494-1.614,16.918-4.096,25.105c-2.579,8.528-7.067,16.103-12.335,23.228
					C141.913,161.342,142.705,162.038,143.156,161.565z"/>
				<path style="fill:#FFB479;" d="M137.806,163.278c1.5-1.907,2.898-3.902,4.203-5.969c0.343,0.124,0.757,0.102,1.097-0.173
					c3.379-2.744,5.573-7.326,7.386-11.207c2.123-4.556,3.758-9.309,5.059-14.166c2.475-9.255,3.157-18.83,2.263-28.359
					c-0.044-0.488-0.819-0.402-0.844,0.063c-0.429,7.903-1.455,15.763-3.331,23.447c1.135-6.091,1.67-12.257,1.611-18.287
					c-0.006-0.574-0.81-0.618-0.887-0.053c-1.299,9.477-2.601,18.909-5.402,28.083c-2.808,9.196-7.207,17.728-12.4,25.792
					C136.034,163.267,137.221,164.029,137.806,163.278z"/>
				<path style="fill:#FFB479;" d="M135.142,125.385c0.175,0.41,0.552,0.464,0.864,0.321c0.131,3.462,0.27,6.921,0.421,10.37
					c0.015,0.369,0.585,0.42,0.584,0.035c-0.012-10.299,2.068-21.38-0.688-31.485c-0.146-0.512-0.993-0.512-0.981,0.073
					c0.034,1.56,0.081,3.122,0.125,4.681c-0.039-0.176-0.066-0.351-0.105-0.525c-0.174-0.769-1.384-0.71-1.399,0.102
					C133.858,114.122,133.057,120.531,135.142,125.385z"/>
				<path style="fill:#FFB479;" d="M132.879,123.653c0.103,0.626,1.002,0.403,0.938-0.203c-0.543-5.569-0.02-11.171-0.568-16.726
					c-0.061-0.598-0.997-0.494-1.031,0.075C131.876,112.363,131.956,118.143,132.879,123.653z"/>
				<path style="fill:#FFB479;" d="M130.19,121.007c0.088,0.657,1.159,0.572,1.162-0.089c0.001-3.504-0.193-7.021-0.279-10.53
					c-0.018-0.764-1.189-0.85-1.195-0.071C129.837,113.865,129.706,117.483,130.19,121.007z"/>
				<path style="fill:#FFB479;" d="M140.008,135.709c0.053,0.453,0.8,0.392,0.796-0.058c-0.077-7.342,1.245-15.082-0.084-22.339
					c-0.128-0.711-1.132-0.577-1.215,0.091C138.607,120.674,139.24,128.444,140.008,135.709z"/>
				<path style="fill:#FFB479;" d="M119.601,135.078c0.033,0.619,0.981,0.708,0.986,0.059c0.028-2.936,0.18-5.951,0.306-8.981
					c0.096,0.689,0.191,1.381,0.298,2.057c0.083,0.516,0.942,0.461,0.924-0.074c-0.131-3.305-0.013-6.624,0.1-9.936
					c0.285,2.439,0.641,4.87,0.978,7.217c0.13,0.904,1.435,0.578,1.36-0.293c-0.43-5.109-0.045-10.645-1.281-15.638
					c-0.11-0.446-0.532-0.633-0.909-0.572c-0.013-0.674-0.03-1.35-0.067-2.02c-0.048-0.983-1.353-1.067-1.518-0.09
					c-0.209,1.277-0.35,2.585-0.458,3.903c-0.396-0.235-1.064,0.017-1.14,0.571C118.156,118.939,119.141,127.387,119.601,135.078z"
					/>
				<path style="fill:#FFB479;" d="M121.777,145.308c0.26,1.465,1.267,3.303,2.971,3.117c1.788-0.191,2.249-3.364,2.307-4.675
					c-0.004-0.047-0.015-0.082-0.04-0.107c0.874-2.606,0.679-5.602-1.547-7.059c-0.59-0.383-1.425-0.241-1.814,0.361
					c-0.261,0.416-0.476,0.835-0.658,1.264c0.358-1.717,0.819-3.404,1.115-5.149c0.038-0.236-0.32-0.341-0.438-0.148
					c-0.905,1.541-1.231,3.616-1.56,5.343C121.674,140.573,121.362,142.967,121.777,145.308z"/>
				<path style="fill:#FFB479;" d="M126.353,150.12c3.287-1.083,4.467-6.37,4.317-9.353c-0.013-0.222-0.332-0.253-0.345-0.02
					c-0.085,1.661-0.448,3.282-1.04,4.844c-0.682,1.779-1.738,2.891-3.149,4.099C125.96,149.84,126.112,150.197,126.353,150.12z"/>
				<path style="fill:#FFB479;" d="M125.537,149.607c1.942-0.998,2.802-3.361,3.717-5.2c0.079-0.154-0.128-0.302-0.224-0.152
					c-1.147,1.803-1.899,3.636-3.742,4.87C125.015,149.314,125.218,149.769,125.537,149.607z"/>
				<path style="fill:#FFB479;" d="M110.84,137.62c0.487,7.233,1.952,14.605,6.36,20.522c3.559,4.775,8.454,6.965,13.745,3.495
					c4.938-3.236,7.82-8.91,10.5-13.973c0.099-0.199-0.17-0.39-0.295-0.196c-2.831,4.244-5.939,8.658-9.942,11.875
					c-6.593,5.297-12.156-0.463-15.537-6.374c-3.524-6.147-3.797-13.63-4.307-20.528c-0.604-8.245-0.157-16.565,0.06-24.819
					c0.009-0.271-0.416-0.3-0.425-0.025C110.643,117.562,110.174,127.661,110.84,137.62z"/>
				<path style="fill:#FFB479;" d="M142.411,131.934c0.072,0.358,0.586,0.233,0.543-0.116c-0.464-3.796,0.281-7.543,0.286-11.338
					c-0.001-0.438-0.615-0.468-0.674-0.04C142.054,124.254,141.644,128.133,142.411,131.934z"/>
				<path style="fill:#FFB479;" d="M117.296,130.236c0.067,0.391,0.729,0.35,0.7-0.052c-0.168-2.441,0.135-4.867,0.187-7.303
					c0.009-0.434-0.622-0.472-0.671-0.04C117.239,125.303,116.879,127.771,117.296,130.236z"/>
			</g>
			<path style="opacity:0.6;fill:#806365;" d="M123.698,148.756c-1.772-3.044-2.515-9.062-2.337-10.932
				c0.149-1.55,0.691-3.794,2.055-4.76c1.176-0.839,2.396-0.396,3.096,0.848c2.205,3.946,1.921,9.746-0.013,13.927
				c3.131-2.788,2.473-8.781,3.479-12.466c0.062-0.25,0.415-0.304,0.574-0.118c1.777,2.068,1.493,5.28,0.834,7.736
				c-0.539,2.006-1.399,4.264-2.923,5.796c0.044,0.091,0.042,0.197-0.044,0.3c-1.16,1.358-2.166,1.686-3.03,1.358
				c0.297,0.209,0.609,0.401,0.95,0.556c2.382-0.768,4.543-1.76,5.836-4.119c1.804-3.289,2.932-7.469,3.21-11.196
				c0.283-3.819-1.157-14.49-7.425-11.341c-5.063,2.542-7.078,8.656-6.901,13.978C121.157,141.426,121.649,145.884,123.698,148.756z
				"/>
			<path style="opacity:0.4;fill:#806365;" d="M163.774,65.734c5.443,0.127,10.88,0.431,16.3,0.916
				c-0.66-0.466-1.321-0.932-1.998-1.373c-4.921-3.204-10.202-5.781-15.601-8.073c-1.55,0.072-3.098,0.166-4.644,0.303
				c-5.939,0.526-11.815,1.658-17.583,3.172c-3.31,0.872-7.668,2.311-10.864,3.609c-4.664,1.894-7.911,5.729-10.19,10.094
				c-1.628,3.131-2.791,6.491-3.831,9.855c-1.024,3.325-1.902,6.669-2.661,10.033c2.128-6.214,4.808-12.189,8.951-17.41
				c0.23-0.29,0.752-0.089,0.609,0.301c-0.484,1.297-0.941,2.606-1.346,3.93c1.673-2.98,3.522-5.728,6.705-7.428
				c0.183-0.098,0.36-0.002,0.461,0.146c0.401,0.604,0.678,1.266,0.866,1.971c0.112-0.425,0.237-0.846,0.382-1.26
				c0.376-1.061,0.991-2.55,2.21-2.883c1.592-0.43,3.195,0.406,4.409,1.401c4.03,3.301,4.119,8.192,3.928,13.101
				c0.268-1.814,0.719-3.58,1.588-5.193c0.131-0.24,0.473-0.162,0.591,0.035c3.588,5.961,3.502,13.101,4.438,19.79
				c0.925,6.541,1.355,13.113,0.912,19.685c2.237-8.845,2.09-18.157,0.965-27.173c-0.622-5.016-1.755-9.737-3.161-14.572
				c-1.139-3.95-2.458-8.55-5.734-11.299c-0.282-0.237-0.09-0.737,0.303-0.607c3.509,1.18,7.199,2.448,10.082,4.867
				c2.933,2.463,4.763,5.653,6.503,9.019c3.031,5.869,6.093,12.338,7.18,19.01c0.163-5.384-0.037-10.897-1.505-15.914
				c-0.927-3.189-2.461-6.101-3.962-9.046c-0.91-1.789-2.61-4.137-2.278-6.262C156.273,65.396,161.598,65.685,163.774,65.734z"/>
			<path style="opacity:0.4;fill:#806365;" d="M249.615,79.123c-0.206-0.114-0.412-0.239-0.615-0.355
				c-2.928-2.321-6.344-4.106-9.742-5.772c-0.698,2.414-1.442,4.816-2.205,7.212c2.631,2.22,4.838,4.904,6.304,8.126
				c3.752,8.264,5.867,17.555,7,26.593c0.247-2.758,0.057-5.559-0.204-8.308c-0.273-2.878-0.398-5.822-0.808-8.685
				c-0.664-4.648-2.542-9.833-1.265-14.519c0.064-0.235,0.329-0.269,0.51-0.175c2.901,1.49,4.369,5.283,5.53,8.121
				c1.67,4.098,3.313,8.079,4.299,12.415c0.588,2.608,1.066,5.232,1.583,7.852c0.394,2.003,0.843,4.042,0.905,6.09
				c0.034,1.116,0.024,2.236,0.014,3.353c0.014-0.114,0.027-0.233,0.034-0.351C261.981,106.038,258.407,91.007,249.615,79.123z"/>
			<path style="opacity:0.6;fill:#806365;" d="M245.947,139.77c-9.318,4.455-19.446,6.937-29.711,8.124
				c-0.152,0.246-0.312,0.487-0.475,0.726c10.475-1.256,20.7-3.949,30.247-8.722C246.092,139.857,246.03,139.727,245.947,139.77z"/>
			<path style="opacity:0.6;fill:#806365;" d="M249.615,79.123c-0.206-0.114-0.412-0.239-0.615-0.355
				c-2.928-2.321-6.344-4.106-9.742-5.772c-0.104,0.361-0.205,0.722-0.311,1.082c0.133,0.07,0.266,0.137,0.398,0.207
				c4.152,7.068,6.017,15.236,7.587,23.204c1.767,8.971,2.63,18.143,2.001,27.276c-0.607,8.943-2.791,17.613-6.149,25.904
				c-0.655,1.616-1.356,3.264-2.111,4.908c-10.622,7.616-24.269,9.146-36.98,10.223c-17.098,1.457-34.676,0.149-51.293-4.086
				c-0.286-0.07-0.419,0.325-0.149,0.433c3.782,1.573,8.028,2.119,12.048,2.789c4.322,0.725,8.717,1.127,13.081,1.498
				c8.588,0.718,17.221,0.797,25.817,0.15c7.023-0.531,14.132-1.394,20.999-2.998c5.501-1.28,11.452-3.239,15.943-6.875
				c-2.068,4.296-4.595,8.469-7.935,11.693c-13.677,5.013-27.978,7.961-42.717,8.411c-10.703,0.327-21.455,0.01-32.049-1.61
				c-7.922-1.208-15.676-3.351-23.131-6.273c11.712-0.758,18.331-13.808,22.077-23.535c0.129-0.326,0.245-0.655,0.368-0.985
				c7.184,2.038,14.416,3.087,21.843,3.887c7.828,0.848,15.695,1.293,23.565,1.198c4.003-0.051,7.995-0.274,11.955-0.692
				c0.047-0.234,0.094-0.467,0.137-0.702c-4.208,0.419-8.432,0.635-12.626,0.679c-7.486,0.079-14.971-0.419-22.417-1.185
				c-3.557-0.368-7.103-0.815-10.646-1.308c-3.953-0.549-7.739-1.502-11.59-2.477c2.49-6.697,4.426-13.654,5.628-20.719
				c3.084,0.59,6.317,0.682,9.439,0.748c3.554,0.083,7.109,0.157,10.662,0.246c7.2,0.185,14.402,0.341,21.605,0.314
				c3.83-0.012,7.672-0.074,11.515-0.212c0.014-0.271,0.025-0.542,0.027-0.813c-3.826,0.118-7.657,0.17-11.491,0.164
				c-6.994-0.012-13.986-0.178-20.977-0.346c-3.548-0.082-7.102-0.221-10.65-0.229c-3.355-0.009-6.691-0.35-10.041-0.439
				c1.093-6.68,1.534-13.45,1.122-20.196c-0.027-0.437-0.058-0.87-0.096-1.307c6.829-0.295,13.644-0.803,20.471-1.007
				c0.989-0.029,1.979-0.041,2.968-0.06c-0.101-0.057-0.202-0.114-0.303-0.171c-0.376-0.21-0.752-0.424-1.127-0.638
				c-7.359,0.156-14.713,0.521-22.074,1.062c-0.673-7.533-2.501-15.018-5.926-21.766c6.037-1.061,12.151-1.587,18.275-1.673
				c0.216-0.262,0.434-0.522,0.656-0.778c-6.382,0.04-12.783,0.581-19.199,1.803c-0.02,0.002-0.034,0.013-0.048,0.019
				c-0.5-0.953-1.034-1.889-1.6-2.807c-3.155-5.126-7.646-9.973-13.199-12.077c3.094-0.315,6.125-0.956,9.172-1.598
				c4.029-0.854,8.037-1.328,12.151-1.48c1.422-0.051,2.846-0.064,4.27-0.061c-0.591-0.284-1.187-0.56-1.783-0.834
				c-0.605,0.007-1.21,0.008-1.816,0.024c-3.978,0.1-7.877,0.492-11.782,1.27c-3.946,0.789-7.859,1.813-11.881,2.146
				c-0.682-0.182-1.376-0.337-2.087-0.434c1.092-0.315,2.186-0.615,3.291-0.876c5-1.198,10.11-2.118,15.224-2.616
				c2.345-0.229,4.703-0.351,7.066-0.411c-0.654-0.288-1.307-0.577-1.965-0.856c-1.55,0.072-3.098,0.166-4.644,0.303
				c-5.939,0.526-11.815,1.658-17.583,3.172c-3.31,0.872-7.668,2.311-10.864,3.609c-4.664,1.894-7.911,5.729-10.19,10.094
				c-1.628,3.131-2.791,6.491-3.831,9.855c-3.121,10.14-5.025,20.442-5.58,31.04c-0.694,13.158-0.265,27.833,4.824,40.23
				c3.255,7.926,11.411,11.167,18.855,14.142c4.863,1.943,9.849,3.562,14.941,4.792c10.279,2.491,20.88,3.336,31.431,3.432
				c19.91,0.185,39.862-2.699,58.143-10.88c1.198-0.535,2.361-1.153,3.542-1.731c0.677-0.338,1.525-0.323,2.171-0.745
				c0.707-0.456,1.048-1.264,1.524-1.927c0.85-1.184,1.797-2.323,2.586-3.546c1.326-2.069,2.575-4.191,3.73-6.358
				c2.314-4.347,4.282-8.878,5.803-13.56c0.868-2.676,1.606-5.385,2.189-8.141c0.71-3.369,1.192-6.829,1.436-10.267
				C261.981,106.038,258.407,91.007,249.615,79.123z M115.959,155.973c-2.428-5.301-3.552-11.233-4.338-16.982
				c-2.545-18.722-0.419-37.934,5.215-55.891c1.175-3.743,2.609-7.456,4.75-10.755c1.607-2.477,3.471-5.261,6.344-6.381
				c3.312-1.288,7.309,0.312,9.99,2.367c3.713,2.853,5.507,7.383,6.972,11.667c3.399,9.944,4.477,20.54,4.352,31.003
				c-0.16,13.877-2.142,28.23-8.769,40.631c-1.784,3.335-4.001,6.492-6.896,8.955c-2.692,2.291-6.845,4.494-10.429,3.35
				C119.711,162.839,117.387,159.087,115.959,155.973z M133.016,168.412c-2.044-0.828-4.058-1.707-6.045-2.645
				c-0.593-0.283-1.179-0.57-1.758-0.869c4.859,0.103,9.189-3.343,12.154-6.915c4.005-4.823,6.51-10.877,8.414-16.789
				c1.732-5.374,2.963-10.956,3.589-16.569c1.109-9.816,1.13-19.934-0.155-29.732c-0.568-4.294-1.486-8.542-2.712-12.696
				c-1.11-3.755-2.405-7.594-4.601-10.86c-2.886-4.273-7.119-6.504-11.888-6.66c2.018-0.59,4.019-1.236,6.029-1.862
				c18.191,0.683,25.518,23.275,26.766,38.535c0.579,7.089,0.148,14.241-1.03,21.293c-0.027,0.055-0.04,0.114-0.023,0.172
				c-1.198,7.099-3.148,14.083-5.589,20.796c-0.049-0.015-0.102-0.026-0.154-0.037c-0.377-0.098-0.581,0.467-0.195,0.583
				c0.046,0.012,0.086,0.018,0.135,0.035c-0.163,0.44-0.322,0.882-0.488,1.319C151.672,155.474,145.068,167.934,133.016,168.412z
				 M259.894,120.657c-0.468,7.722-2.31,15.292-5.074,22.497c-2.75,7.15-6.6,13.731-10.575,20.243
				c-3.441,1.602-6.924,3.075-10.449,4.414c1.96-1.863,3.469-4.211,4.825-6.515c1.771-2.997,3.258-6.162,4.686-9.331
				c3.747-8.335,5.832-17.422,6.598-26.511c0.779-9.196-0.159-18.498-1.852-27.544c-1.441-7.673-3.201-15.802-7.019-22.729
				c2.38,1.279,4.756,2.568,7.164,3.773c1.878,2.714,3.717,5.422,5.269,8.351c1.748,3.293,3.034,6.77,4.099,10.335
				C259.786,105.063,260.368,112.951,259.894,120.657z"/>
			<path style="opacity:0.6;fill:#806365;" d="M239.126,86.292c-1.24-0.304-2.482-0.609-3.725-0.914
				c-0.023,0.072-0.046,0.144-0.069,0.216c-0.019,0.06-0.054,0.112-0.094,0.158c1.28,0.259,2.561,0.518,3.844,0.759
				C239.211,86.537,239.258,86.32,239.126,86.292z"/>
			<path style="opacity:0.6;fill:#806365;" d="M247.329,120.356c-6.919,1.213-13.872,2-20.848,2.491
				c-0.102,0.254-0.207,0.508-0.309,0.762c7.131-0.564,14.226-1.494,21.211-2.993C247.549,120.581,247.497,120.326,247.329,120.356z
				"/>
			<path style="opacity:0.6;fill:#806365;" d="M244.233,104.009c-2.799-1.023-5.679-1.791-8.607-2.385
				c0.01,0.223,0.002,0.445-0.024,0.666c2.882,0.479,5.748,1.077,8.59,1.849C244.275,104.158,244.318,104.038,244.233,104.009z"/>
			<path style="opacity:0.5;fill:#806365;" d="M112.176,117.111c-0.217,6.857-0.013,13.749,0.776,20.568
				c0.847,7.292,4.33,30.025,16.932,22.175c4.588-2.854,8.039-7.214,10.556-12.162c4.553-8.941,6.589-19.109,6.977-29.073
				c0.411-10.459,0.33-21.39-1.722-31.683c-1.126-5.634-3.378-11.937-7.568-16.012c-5.157-5.016-12.367-1.505-16.026,3.203
				c-4.235,5.449-5.491,12.571-6.868,19.151C113.588,101.131,112.432,109.092,112.176,117.111z M130.174,69.371
				c0.017-0.006,0.031-0.02,0.048-0.029c2.547-0.574,5.221-0.04,7.642,2.296c0.763,0.742,1.453,1.571,2.081,2.453
				c-0.16-0.006-0.33,0.122-0.278,0.307c0.403,1.409,0.315,2.841,0.219,4.285c-0.099,1.489,0.099,3.052,0.123,4.546
				c0.045,3.06-0.017,6.124-0.111,9.181c-0.199,6.165-0.644,12.315-0.969,18.474c-0.643,12.175-1.513,24.595-0.509,36.773
				c0.018,0.149,0.266,0.127,0.258-0.018c-0.311-12.73,0.323-25.322,1.196-38.018c0.428-6.151,0.813-12.307,1.012-18.471
				c0.095-3.053,0.116-6.109,0.058-9.167c-0.05-2.421,0.259-5.104-0.648-7.396c3.043,4.548,4.429,10.505,5.286,15.658
				c0.91,5.503,1.157,11.107,1.22,16.676c0.06,5.385,0.122,10.804-0.354,16.178c-0.652,7.277-2.363,14.556-5.241,21.281
				c-1.896,4.433-5.966,9.903-9.624,13.262c-1.509,0.837-3.209,1.399-4.924,0.991c0.343-1.182,0.427-2.411,0.483-3.645
				c0.062-1.376,0.174-2.87-0.024-4.255c0.246-0.042,0.483-0.101,0.721-0.195c0.068-0.026,0.086-0.093,0.062-0.148
				c3.583-2.309,5.081-7.236,5.518-11.223c0.465-4.234-0.148-10.306-4.431-12.481c-0.148-0.079-0.299-0.018-0.379,0.089
				c-0.184-0.038-0.376-0.067-0.58-0.1c0.158-3.456,0.146-7.071-0.009-10.521c-0.003-0.063-0.048-0.09-0.088-0.092
				c0.603-15.553,2.304-31.088,2.114-46.636C130.089,69.406,130.127,69.385,130.174,69.371z M128.832,132.822
				c0.215,5.428-0.806,11.059-3.201,15.932c-1.789,2.348-2.831-1.593-3.257-3.066c-0.364-1.273-0.547-2.46-0.589-3.785
				c-0.12-3.713,0.042-7.734,1.19-11.291c0.401-1.247,1.165-3.123,2.712-3.182C128.349,127.323,128.755,130.93,128.832,132.822z
				 M125.427,149.94c0.268-0.256,0.516-0.602,0.725-1.035c0.019-0.042,0.021-0.08,0.017-0.119c1.743-2.977,2.543-6.355,2.921-9.799
				c0.308-2.828,0.764-5.693,0.259-8.521c-0.216-1.194-0.845-2.489-1.854-3.192c0.096,0.019,0.189,0.011,0.271-0.019
				c0.328-0.021,0.662-0.039,0.971-0.074c3.959,2.473,4.408,7.705,4.02,11.944c-0.396,4.374-2.141,8.174-5.35,11.15
				c-0.439-0.013-0.885-0.034-1.329-0.069c-0.239-0.021-0.481-0.085-0.731-0.148C125.377,150.017,125.399,149.977,125.427,149.94z
				 M129.348,69.714c-0.281,4.127-0.279,8.29-0.49,12.421c-0.232,4.468-0.497,8.933-0.722,13.404
				c-0.374,7.49-0.657,14.992-0.581,22.492c-0.394,2.813-0.636,5.782-0.474,8.553c-0.539-0.01-1.069,0.037-1.538,0.2
				c-1.591,0.185-2.436,1.746-2.97,3.101c-1.601,4.067-1.868,9.191-1.508,13.513c0.164,1.949,0.874,4.144,1.84,5.834
				c0.441,0.775,0.952,1.131,1.458,1.153c0.378,0.313,0.996,0.349,1.463,0.397c0.291,0.032,0.578,0.033,0.856,0.009
				c-0.245,1.159-0.153,2.409-0.176,3.58c-0.029,1.384-0.183,2.737-0.377,4.1c-1.695-0.63-2.929-2.248-3.823-3.747
				c-2.644-4.414-3.661-9.851-4.497-14.858c-2.159-12.931-1.78-26.278-0.317-39.256c0.758-6.713,1.977-13.667,4.595-19.93
				C123.593,77.065,125.526,71.61,129.348,69.714z M115.307,98.096c1.264-7.38,2.188-15.647,6.303-22.096
				c1.205-1.881,2.856-3.643,4.727-4.913c-1.002,1.102-1.8,2.434-2.463,3.599c-1.736,3.094-3.043,6.464-4.096,9.843
				c-2.961,9.468-3.771,19.524-4.13,29.387c-0.395,10.933-0.035,21.925,2.675,32.591c0.985,3.904,2.334,8.356,5.308,11.252
				c1.957,1.899,4.298,2.033,6.456,1.099c-3.722,2.64-7.893,2.673-10.923-1.692c-3.601-5.182-4.336-11.909-5.171-17.992
				C112.105,125.495,112.982,111.664,115.307,98.096z"/>
			<path style="fill:#FFD479;" d="M243.196,140.029c-8.496,2.728-17.066,4.63-25.798,5.76c-0.229,0.464-0.469,0.922-0.724,1.371
				c9.154-1.069,18.217-3.132,26.59-6.94C243.367,140.172,243.305,139.992,243.196,140.029z"/>
			<path style="fill:#FFD479;" d="M214.565,146.139c-3.419,0.374-6.862,0.634-10.34,0.768c-13.467,0.518-26.949-0.967-40.177-3.402
				c-0.303-0.057-0.382,0.425-0.101,0.52c6.405,2.179,13.378,2.727,20.071,3.43c6.901,0.73,13.865,0.856,20.789,0.594
				c3.183-0.121,6.385-0.326,9.583-0.643C214.46,146.986,214.509,146.562,214.565,146.139z"/>
			<path style="fill:#FFD479;" d="M243.426,118.915c-5.328,0.715-10.707,1.35-16.103,1.855c-0.111,0.27-0.218,0.54-0.328,0.81
				c5.527-0.56,11.039-1.282,16.464-2.499C243.567,119.057,243.536,118.9,243.426,118.915z"/>
			<path style="fill:#FFD479;" d="M215.711,121.61c-3.988,0.2-7.973,0.31-11.94,0.278c-13.257-0.105-26.513-0.552-39.764-0.806
				c-0.376-0.009-0.404,0.531-0.034,0.579c6.556,0.879,13.198,0.878,19.79,0.921c6.875,0.043,13.735,0.41,20.605,0.438
				c3.844,0.011,7.663-0.179,11.48-0.457C215.831,122.241,215.797,121.913,215.711,121.61z"/>
			<path style="fill:#FFD479;" d="M143.97,161.269c11.525-12.948,17.164-30.038,17.273-47.263c0.001-0.238-0.344-0.256-0.369-0.022
				c-0.5,4.282-0.835,8.561-1.577,12.814c-0.738,4.182-1.892,8.304-3.309,12.304c-2.794,7.895-7,15.433-12.262,21.953
				C143.611,161.199,143.842,161.403,143.97,161.269z"/>
			<path style="fill:#FFD479;" d="M127.191,149.984c3.232-2.019,4.29-6.588,4.43-10.137c0.005-0.133-0.209-0.189-0.24-0.048
				c-0.899,3.577-1.891,7.164-4.359,9.997C126.94,149.891,127.081,150.046,127.191,149.984z"/>
			<path style="fill:#FFD479;" d="M124.7,149.402c3.478-2.125,2.973-7.868,2.998-11.327c0.003-0.166-0.23-0.174-0.246-0.015
				c-0.575,3.798-0.391,7.949-3.036,11.02C124.262,149.248,124.513,149.518,124.7,149.402z"/>
			<path style="fill:#FFD479;" d="M245.156,159.558c8.941-8.427,9.654-22.187,12.214-33.431c0.011-0.076-0.099-0.122-0.124-0.042
				c-1.584,5.571-2.652,11.271-4.182,16.852c-1.671,6.086-4.342,11.394-8.161,16.404
				C244.787,159.496,245.015,159.691,245.156,159.558z"/>
		</g>
	</g>
</g>
</svg>
