<?xml version="1.0" encoding="UTF-8"?>
<!DOCTYPE svg PUBLIC "-//W3C//DTD SVG 1.1//EN" "http://www.w3.org/Graphics/SVG/1.1/DTD/svg11.dtd">
<svg xmlns="http://www.w3.org/2000/svg" version="1.1" width="1689px" height="921px" style="shape-rendering:geometricPrecision; text-rendering:geometricPrecision; image-rendering:optimizeQuality; fill-rule:evenodd; clip-rule:evenodd" xmlns:xlink="http://www.w3.org/1999/xlink">
<g><path style="opacity:1" fill="#fefefe" d="M -0.5,-0.5 C 562.5,-0.5 1125.5,-0.5 1688.5,-0.5C 1688.5,306.5 1688.5,613.5 1688.5,920.5C 1125.5,920.5 562.5,920.5 -0.5,920.5C -0.5,613.5 -0.5,306.5 -0.5,-0.5 Z"/></g>
<g><path style="opacity:1" fill="#606873" d="M 804.5,88.5 C 800.681,109.75 797.181,131.083 794,152.5C 788.607,198.762 783.941,245.095 780,291.5C 777.171,332.645 765.504,370.979 745,406.5C 718.696,447.125 692.029,487.459 665,527.5C 649.291,552.552 635.291,578.552 623,605.5C 615.565,628.032 606.232,649.698 595,670.5C 575.361,700.011 550.195,705.845 519.5,688C 506.614,678.109 497.114,665.609 491,650.5C 484.381,632.278 480.214,613.612 478.5,594.5C 477.102,581.88 476.436,569.214 476.5,556.5C 478.89,496.714 475.057,437.381 465,378.5C 460.149,352.427 452.816,327.093 443,302.5C 441.476,298.041 439.309,294.041 436.5,290.5C 436.324,286.711 436.324,282.711 436.5,278.5C 437.466,269.401 441.466,261.901 448.5,256C 451.167,254 453.833,252 456.5,250C 512.391,221.233 567.057,190.733 620.5,158.5C 664.149,141.177 707.816,124.01 751.5,107C 768.978,100.119 786.645,93.9526 804.5,88.5 Z"/></g>
<g><path style="opacity:1" fill="#606873" d="M 820.5,87.5 C 846.703,102.406 874.703,112.906 904.5,119C 939.572,125.011 974.905,128.511 1010.5,129.5C 1013.01,129.927 1015.34,130.593 1017.5,131.5C 1015.54,132.138 1013.71,132.138 1012,131.5C 1005.11,146.284 996.441,159.951 986,172.5C 944.213,220.816 896.046,261.149 841.5,293.5C 837.907,293.074 835.74,291.074 835,287.5C 831.806,275.669 829.473,263.669 828,251.5C 826.3,211.126 823.966,170.793 821,130.5C 820.5,116.171 820.333,101.837 820.5,87.5 Z"/></g>
<g><path style="opacity:1" fill="#9ca6b0" d="M 817.5,84.5 C 882.951,95.3436 947.285,110.344 1010.5,129.5C 974.905,128.511 939.572,125.011 904.5,119C 874.703,112.906 846.703,102.406 820.5,87.5C 819.306,86.7281 818.306,85.7281 817.5,84.5 Z"/></g>
<g><path style="opacity:1" fill="#4a535c" d="M 817.5,84.5 C 818.306,85.7281 819.306,86.7281 820.5,87.5C 820.333,101.837 820.5,116.171 821,130.5C 823.966,170.793 826.3,211.126 828,251.5C 829.473,263.669 831.806,275.669 835,287.5C 835.74,291.074 837.907,293.074 841.5,293.5C 896.046,261.149 944.213,220.816 986,172.5C 996.441,159.951 1005.11,146.284 1012,131.5C 1013.71,132.138 1015.54,132.138 1017.5,131.5C 1023.89,133.213 1028.89,136.879 1032.5,142.5C 1032.06,142.435 1031.73,142.601 1031.5,143C 1042.68,162.989 1054.01,182.822 1065.5,202.5C 1066.11,203.391 1066.44,204.391 1066.5,205.5C 1082.96,280.453 1092.96,356.286 1096.5,433C 1096.85,462.658 1092.35,491.492 1083,519.5C 1070.98,546.697 1051.48,565.697 1024.5,576.5C 1015.95,539.424 1005.12,503.091 992,467.5C 996.979,496.377 1001.65,525.377 1006,554.5C 1006.9,563.877 1008.06,573.211 1009.5,582.5C 1009.17,584.167 1008.83,585.833 1008.5,587.5C 972.68,603.077 937.68,620.244 903.5,639C 864.692,659.849 824.692,677.849 783.5,693C 768.095,697.602 752.429,700.769 736.5,702.5C 734.46,689.337 731.626,676.337 728,663.5C 737.943,594.826 753.776,527.492 775.5,461.5C 780.546,446.597 785.879,431.93 791.5,417.5C 798.679,402.139 806.179,386.806 814,371.5C 821.579,362.924 829.413,354.757 837.5,347C 853.167,335.807 867.667,323.307 881,309.5C 896.707,292.129 912.04,274.462 927,256.5C 942.761,240.571 958.595,224.904 974.5,209.5C 981.01,201.793 987.51,194.127 994,186.5C 998.951,178.259 1003.62,169.926 1008,161.5C 1008.49,159.866 1008.66,158.199 1008.5,156.5C 1004.62,155.874 1002.79,157.541 1003,161.5C 995.543,174.087 986.877,185.753 977,196.5C 958.317,214.017 939.483,231.351 920.5,248.5C 891.833,285.167 859.167,317.833 822.5,346.5C 816.217,341.007 813.217,334.007 813.5,325.5C 820.459,251.57 821.293,177.57 816,103.5C 815.523,99.251 813.357,97.9177 809.5,99.5C 808.902,100.795 808.402,102.128 808,103.5C 807.833,119.5 807.667,135.5 807.5,151.5C 808.393,206.499 808.56,261.499 808,316.5C 807.496,333.962 805.829,351.295 803,368.5C 795.202,381.4 789.369,395.067 785.5,409.5C 783.327,415.028 780.66,420.361 777.5,425.5C 764.178,450.221 751.678,475.554 740,501.5C 733.396,517.043 727.063,532.71 721,548.5C 718.681,554.789 716.848,561.123 715.5,567.5C 713.185,572.756 710.852,578.09 708.5,583.5C 700.04,599.44 692.873,616.107 687,633.5C 680.204,657.941 674.371,682.608 669.5,707.5C 672.833,707.973 675,706.64 676,703.5C 675.21,716.661 672.21,729.328 667,741.5C 663.82,754.734 661.153,768.067 659,781.5C 657.989,788.162 658.489,794.662 660.5,801C 659.244,808.467 658.244,815.967 657.5,823.5C 637.167,823.5 616.833,823.5 596.5,823.5C 597.705,792.293 595.872,761.293 591,730.5C 575.623,759.779 563.456,790.445 554.5,822.5C 532.162,822.436 509.828,822.103 487.5,821.5C 484.18,745.85 481.18,670.184 478.5,594.5C 480.214,613.612 484.381,632.278 491,650.5C 497.114,665.609 506.614,678.109 519.5,688C 550.195,705.845 575.361,700.011 595,670.5C 606.232,649.698 615.565,628.032 623,605.5C 635.291,578.552 649.291,552.552 665,527.5C 692.029,487.459 718.696,447.125 745,406.5C 765.504,370.979 777.171,332.645 780,291.5C 783.941,245.095 788.607,198.762 794,152.5C 797.181,131.083 800.681,109.75 804.5,88.5C 808.255,85.5837 812.588,84.2503 817.5,84.5 Z"/></g>
<g><path style="opacity:1" fill="#2b323a" d="M 1151.5,345.5 C 1151.5,346.167 1151.5,346.833 1151.5,347.5C 1151.28,355.908 1151.95,364.241 1153.5,372.5C 1153.39,373.442 1153.06,374.275 1152.5,375C 1153.14,379.268 1153.81,383.435 1154.5,387.5C 1156.34,410.231 1158.84,432.898 1162,455.5C 1169.93,507.042 1178.09,558.542 1186.5,610C 1186.41,612.954 1185.91,613.121 1185,610.5C 1178.87,575.401 1172.21,540.401 1165,505.5C 1147.42,444.519 1131.09,383.186 1116,321.5C 1103.87,280.922 1087.37,242.255 1066.5,205.5C 1066.44,204.391 1066.11,203.391 1065.5,202.5C 1063.12,192.411 1060.79,182.244 1058.5,172C 1058.67,171.5 1058.83,171 1059,170.5C 1076.61,189.864 1093.61,210.531 1110,232.5C 1114.02,240.042 1118.19,247.542 1122.5,255C 1125.59,262.503 1128.76,270.003 1132,277.5C 1138.84,300.184 1145.34,322.85 1151.5,345.5 Z"/></g>
<g><path style="opacity:1" fill="#4a535c" d="M 649.5,196.5 C 649.751,194.83 650.418,193.33 651.5,192C 651.167,191.833 650.833,191.667 650.5,191.5C 643.634,196.197 636.634,200.697 629.5,205C 608.788,224.048 587.788,242.548 566.5,260.5C 590.149,229.679 616.815,201.512 646.5,176C 656.817,168.014 666.817,159.68 676.5,151C 682.8,147.789 682.967,148.622 677,153.5C 670,163.833 663,174.167 656,184.5C 655.362,185.609 654.862,186.775 654.5,188C 655.627,189.057 656.127,190.223 656,191.5C 653.957,193.382 651.791,195.049 649.5,196.5 Z"/></g>
<g><path style="opacity:1" fill="#4a535c" d="M 645.5,200.5 C 631.334,226.546 616.834,252.546 602,278.5C 576.577,315.089 547.744,348.756 515.5,379.5C 515.167,378.5 514.833,377.5 514.5,376.5C 515.632,370.441 516.966,364.441 518.5,358.5C 518.167,358.167 517.833,357.833 517.5,357.5C 515.929,360.093 513.596,361.093 510.5,360.5C 510.748,354.757 511.581,349.09 513,343.5C 523.66,321.509 535.994,300.509 550,280.5C 550.816,279.177 551.983,278.511 553.5,278.5C 540.951,298.297 530.784,319.297 523,341.5C 522.005,344.126 521.672,346.793 522,349.5C 533.572,323 547.905,298.333 565,275.5C 580.635,259.865 596.135,244.365 611.5,229C 622.408,218.919 633.742,209.419 645.5,200.5 Z"/></g>
<g><path style="opacity:1" fill="#9ca6b0" d="M 620.5,158.5 C 567.057,190.733 512.391,221.233 456.5,250C 453.833,252 451.167,254 448.5,256C 441.466,261.901 437.466,269.401 436.5,278.5C 435.835,280.369 435.169,282.369 434.5,284.5C 430.309,277.292 425.976,270.125 421.5,263C 417.086,259.746 412.252,258.913 407,260.5C 407.419,263.455 408.086,266.455 409,269.5C 412.772,280.816 416.939,291.983 421.5,303C 421.347,304.209 421.014,305.375 420.5,306.5C 417.108,301.599 413.108,297.099 408.5,293C 406.305,291.627 403.971,291.294 401.5,292C 361.602,339.273 326.769,390.107 297,444.5C 263.313,507.216 229.146,569.549 194.5,631.5C 196.01,626.14 197.843,620.807 200,615.5C 218.229,573.835 238.562,533.168 261,493.5C 304.795,415.909 350.128,339.242 397,263.5C 428.382,244.057 460.882,226.557 494.5,211C 536.099,192.019 578.099,174.519 620.5,158.5 Z"/></g>
<g><path style="opacity:1" fill="#39424b" d="M 1032.5,142.5 C 1085.93,192.431 1138.93,242.931 1191.5,294C 1242.53,344.694 1293.19,395.694 1343.5,447C 1388.46,489.474 1434.13,530.974 1480.5,571.5C 1478.6,571.433 1476.77,571.767 1475,572.5C 1458.38,584.516 1443.05,598.183 1429,613.5C 1393.27,660.91 1367.93,713.577 1353,771.5C 1361.35,753.466 1370.68,736.133 1381,719.5C 1378.46,727.434 1375.8,735.434 1373,743.5C 1370.87,750.353 1369.54,757.353 1369,764.5C 1367.43,768.4 1365.43,772.066 1363,775.5C 1362.51,776.793 1362.34,778.127 1362.5,779.5C 1356.83,781.91 1350.83,783.576 1344.5,784.5C 1348.72,742.587 1357.22,701.587 1370,661.5C 1379.41,641.822 1386.08,621.156 1390,599.5C 1392.75,580.666 1390.08,562.666 1382,545.5C 1373.83,530.847 1364.33,517.18 1353.5,504.5C 1341.98,493.151 1330.32,481.984 1318.5,471C 1287.71,448.65 1258.88,423.817 1232,396.5C 1211.38,372.423 1188.88,350.256 1164.5,330C 1161.84,328.09 1159.01,326.59 1156,325.5C 1153.46,325.7 1151.8,327.033 1151,329.5C 1151.1,334.809 1151.26,340.142 1151.5,345.5C 1145.34,322.85 1138.84,300.184 1132,277.5C 1128.76,270.003 1125.59,262.503 1122.5,255C 1118.19,247.542 1114.02,240.042 1110,232.5C 1093.61,210.531 1076.61,189.864 1059,170.5C 1058.83,171 1058.67,171.5 1058.5,172C 1060.79,182.244 1063.12,192.411 1065.5,202.5C 1054.01,182.822 1042.68,162.989 1031.5,143C 1031.73,142.601 1032.06,142.435 1032.5,142.5 Z"/></g>
<g><path style="opacity:1" fill="#88939f" d="M 436.5,278.5 C 436.324,282.711 436.324,286.711 436.5,290.5C 437.013,294.879 437.847,299.213 439,303.5C 444.465,319.03 449.465,334.697 454,350.5C 460.303,370.681 464.303,391.348 466,412.5C 466.667,419.833 466.667,427.167 466,434.5C 464.169,428.836 462.335,423.17 460.5,417.5C 453.247,393.57 446.08,369.57 439,345.5C 434.845,333.865 429.678,322.865 423.5,312.5C 422.529,310.517 421.529,308.517 420.5,306.5C 421.014,305.375 421.347,304.209 421.5,303C 416.939,291.983 412.772,280.816 409,269.5C 408.086,266.455 407.419,263.455 407,260.5C 412.252,258.913 417.086,259.746 421.5,263C 425.976,270.125 430.309,277.292 434.5,284.5C 435.169,282.369 435.835,280.369 436.5,278.5 Z"/></g>
<g><path style="opacity:1" fill="#3f4851" d="M 791.5,417.5 C 796.88,402.17 802.714,387.17 809,372.5C 800.943,384.717 793.109,397.05 785.5,409.5C 789.369,395.067 795.202,381.4 803,368.5C 805.829,351.295 807.496,333.962 808,316.5C 808.56,261.499 808.393,206.499 807.5,151.5C 807.667,135.5 807.833,119.5 808,103.5C 808.402,102.128 808.902,100.795 809.5,99.5C 813.357,97.9177 815.523,99.251 816,103.5C 821.293,177.57 820.459,251.57 813.5,325.5C 813.217,334.007 816.217,341.007 822.5,346.5C 859.167,317.833 891.833,285.167 920.5,248.5C 939.483,231.351 958.317,214.017 977,196.5C 986.877,185.753 995.543,174.087 1003,161.5C 1002.79,157.541 1004.62,155.874 1008.5,156.5C 1008.66,158.199 1008.49,159.866 1008,161.5C 1003.62,169.926 998.951,178.259 994,186.5C 987.51,194.127 981.01,201.793 974.5,209.5C 958.595,224.904 942.761,240.571 927,256.5C 912.04,274.462 896.707,292.129 881,309.5C 867.667,323.307 853.167,335.807 837.5,347C 829.413,354.757 821.579,362.924 814,371.5C 806.179,386.806 798.679,402.139 791.5,417.5 Z"/></g>
<g><path style="opacity:1" fill="#606873" d="M 420.5,306.5 C 421.529,308.517 422.529,310.517 423.5,312.5C 429.525,333.02 432.691,354.02 433,375.5C 435.292,424.477 430.958,472.81 420,520.5C 409.456,552.465 399.123,584.465 389,616.5C 383.509,637.465 378.175,658.465 373,679.5C 371,682.167 369,684.833 367,687.5C 364.392,695.822 361.892,704.155 359.5,712.5C 354.602,727.226 345.269,738.059 331.5,745C 321.412,748.14 311.412,747.807 301.5,744C 280.467,732.773 258.8,723.106 236.5,715C 222.399,709.226 210.232,700.726 200,689.5C 191.834,677.849 187.834,664.849 188,650.5C 187.617,649.944 187.117,649.611 186.5,649.5C 188.992,643.333 191.658,637.333 194.5,631.5C 229.146,569.549 263.313,507.216 297,444.5C 326.769,390.107 361.602,339.273 401.5,292C 403.971,291.294 406.305,291.627 408.5,293C 413.108,297.099 417.108,301.599 420.5,306.5 Z"/></g>
<g><path style="opacity:1" fill="#3f4751" d="M 649.5,196.5 C 648.527,198.139 647.194,199.473 645.5,200.5C 633.742,209.419 622.408,218.919 611.5,229C 596.135,244.365 580.635,259.865 565,275.5C 547.905,298.333 533.572,323 522,349.5C 521.672,346.793 522.005,344.126 523,341.5C 530.784,319.297 540.951,298.297 553.5,278.5C 557.836,272.492 562.169,266.492 566.5,260.5C 587.788,242.548 608.788,224.048 629.5,205C 636.634,200.697 643.634,196.197 650.5,191.5C 650.833,191.667 651.167,191.833 651.5,192C 650.418,193.33 649.751,194.83 649.5,196.5 Z"/></g>
<g><path style="opacity:1" fill="#4a525b" d="M 1344.5,784.5 C 1319.38,791.615 1294.05,798.449 1268.5,805C 1258.84,805.5 1249.17,805.666 1239.5,805.5C 1236.91,795.558 1234.58,785.558 1232.5,775.5C 1221.4,717.216 1212.56,658.549 1206,599.5C 1202.3,578.183 1198.8,556.85 1195.5,535.5C 1194.15,517.344 1191.65,499.344 1188,481.5C 1181.7,452.924 1174.37,424.59 1166,396.5C 1165.62,395.944 1165.12,395.611 1164.5,395.5C 1160.13,379.402 1155.79,363.402 1151.5,347.5C 1151.5,346.833 1151.5,346.167 1151.5,345.5C 1151.26,340.142 1151.1,334.809 1151,329.5C 1151.8,327.033 1153.46,325.7 1156,325.5C 1159.01,326.59 1161.84,328.09 1164.5,330C 1188.88,350.256 1211.38,372.423 1232,396.5C 1258.88,423.817 1287.71,448.65 1318.5,471C 1330.32,481.984 1341.98,493.151 1353.5,504.5C 1364.33,517.18 1373.83,530.847 1382,545.5C 1390.08,562.666 1392.75,580.666 1390,599.5C 1386.08,621.156 1379.41,641.822 1370,661.5C 1357.22,701.587 1348.72,742.587 1344.5,784.5 Z"/></g>
<g><path style="opacity:1" fill="#49525b" d="M 423.5,312.5 C 429.678,322.865 434.845,333.865 439,345.5C 446.08,369.57 453.247,393.57 460.5,417.5C 460.271,421.898 459.938,426.398 459.5,431C 460.684,432.18 461.351,433.68 461.5,435.5C 463.443,451.448 463.943,467.448 463,483.5C 461.662,498.201 459.996,512.867 458,527.5C 448.715,572.925 439.049,618.258 429,663.5C 423.158,706.24 416.991,748.907 410.5,791.5C 412.139,791.074 413.472,791.074 414.5,791.5C 412.972,799.944 410.972,808.278 408.5,816.5C 409.949,817.172 411.282,817.839 412.5,818.5C 400.535,816.4 389.202,812.733 378.5,807.5C 379.856,788.792 381.69,770.125 384,751.5C 385.426,729.153 385.426,706.819 384,684.5C 368.072,720.36 353.239,756.693 339.5,793.5C 335.56,792.277 331.893,790.61 328.5,788.5C 329.976,786.231 331.476,783.898 333,781.5C 338.081,767.018 343.414,752.684 349,738.5C 350.825,737.897 352.659,737.23 354.5,736.5C 360.777,724.141 364.944,711.141 367,697.5C 364.981,702.871 362.481,707.871 359.5,712.5C 361.892,704.155 364.392,695.822 367,687.5C 369,684.833 371,682.167 373,679.5C 378.175,658.465 383.509,637.465 389,616.5C 399.123,584.465 409.456,552.465 420,520.5C 430.958,472.81 435.292,424.477 433,375.5C 432.691,354.02 429.525,333.02 423.5,312.5 Z"/></g>
<g><path style="opacity:1" fill="#8d98a4" d="M 851.5,357.5 C 848.402,365.726 844.569,374.059 840,382.5C 835.052,393.394 830.385,404.394 826,415.5C 816.816,445.934 808.483,476.601 801,507.5C 789.71,540.874 777.544,573.874 764.5,606.5C 774.505,546.662 787.672,487.328 804,428.5C 814.337,401.161 830.17,377.494 851.5,357.5 Z"/></g>
<g><path style="opacity:1" fill="#9ba5af" d="M 602.5,307.5 C 603.043,307.56 603.376,307.893 603.5,308.5C 590.514,340.145 576.68,371.479 562,402.5C 552.68,428.483 541.68,453.816 529,478.5C 528.333,476.833 528.333,475.167 529,473.5C 537.61,441.393 547.61,409.726 559,378.5C 570.989,353.168 585.489,329.501 602.5,307.5 Z"/></g>
<g><path style="opacity:1" fill="#39424b" d="M 993.5,442.5 C 996.505,442.253 999.005,443.253 1001,445.5C 1002.2,450.6 1001.36,455.267 998.5,459.5C 996.5,460.833 994.5,460.833 992.5,459.5C 990.085,455.097 989.252,450.43 990,445.5C 991.145,444.364 992.312,443.364 993.5,442.5 Z"/></g>
<g><path style="opacity:1" fill="#313840" d="M 791.5,417.5 C 785.879,431.93 780.546,446.597 775.5,461.5C 773.827,462.343 772.66,463.676 772,465.5C 762.895,485.284 754.229,505.284 746,525.5C 728.582,560.335 712.249,595.668 697,631.5C 691.788,653.789 685.788,675.789 679,697.5C 680.759,687.194 682.759,676.861 685,666.5C 692.546,638.701 700.38,611.035 708.5,583.5C 710.852,578.09 713.185,572.756 715.5,567.5C 729.845,539.148 743.345,510.482 756,481.5C 762.646,465.579 769.313,449.579 776,433.5C 776.822,430.883 777.322,428.216 777.5,425.5C 780.66,420.361 783.327,415.028 785.5,409.5C 793.109,397.05 800.943,384.717 809,372.5C 802.714,387.17 796.88,402.17 791.5,417.5 Z"/></g>
<g><path style="opacity:1" fill="#3e4750" d="M 1164.5,395.5 C 1165.12,395.611 1165.62,395.944 1166,396.5C 1174.37,424.59 1181.7,452.924 1188,481.5C 1191.65,499.344 1194.15,517.344 1195.5,535.5C 1184.97,489.034 1174.64,442.367 1164.5,395.5 Z"/></g>
<g><path style="opacity:1" fill="#39414a" d="M 777.5,425.5 C 777.322,428.216 776.822,430.883 776,433.5C 769.313,449.579 762.646,465.579 756,481.5C 743.345,510.482 729.845,539.148 715.5,567.5C 716.848,561.123 718.681,554.789 721,548.5C 727.063,532.71 733.396,517.043 740,501.5C 751.678,475.554 764.178,450.221 777.5,425.5 Z"/></g>
<g><path style="opacity:1" fill="#39424b" d="M 1220.5,475.5 C 1223.19,475.336 1225.85,475.503 1228.5,476C 1232.86,484.61 1231.52,492.277 1224.5,499C 1222.19,499.497 1219.86,499.663 1217.5,499.5C 1216.23,497.175 1214.9,494.841 1213.5,492.5C 1214.01,488.427 1214.85,484.427 1216,480.5C 1217.63,478.938 1219.13,477.271 1220.5,475.5 Z"/></g>
<g><path style="opacity:1" fill="#38414a" d="M 476.5,556.5 C 476.436,569.214 477.102,581.88 478.5,594.5C 481.18,670.184 484.18,745.85 487.5,821.5C 462.519,820.182 437.519,819.182 412.5,818.5C 411.282,817.839 409.949,817.172 408.5,816.5C 410.972,808.278 412.972,799.944 414.5,791.5C 418.682,774.759 422.182,757.759 425,740.5C 427.772,718.632 430.939,696.965 434.5,675.5C 443.981,631.347 454.481,586.68 466,541.5C 468.101,528.389 469.935,515.223 471.5,502C 471.472,500.93 471.139,500.097 470.5,499.5C 471.82,493.043 472.653,493.377 473,500.5C 474.333,519.315 475.499,537.982 476.5,556.5 Z"/></g>
<g><path style="opacity:1" fill="#313941" d="M 1151.5,347.5 C 1155.79,363.402 1160.13,379.402 1164.5,395.5C 1174.64,442.367 1184.97,489.034 1195.5,535.5C 1198.8,556.85 1202.3,578.183 1206,599.5C 1212.56,658.549 1221.4,717.216 1232.5,775.5C 1232.73,780.222 1233.4,784.889 1234.5,789.5C 1234.17,790.167 1233.83,790.833 1233.5,791.5C 1229.59,776.376 1226.42,761.042 1224,745.5C 1215.04,710.382 1206.71,675.049 1199,639.5C 1193.32,605.037 1189.32,570.37 1187,535.5C 1181.88,482.975 1171.21,431.642 1155,381.5C 1154.5,383.473 1154.34,385.473 1154.5,387.5C 1153.81,383.435 1153.14,379.268 1152.5,375C 1153.06,374.275 1153.39,373.442 1153.5,372.5C 1151.95,364.241 1151.28,355.908 1151.5,347.5 Z"/></g>
<g><path style="opacity:1" fill="#39424b" d="M 775.5,461.5 C 753.776,527.492 737.943,594.826 728,663.5C 731.626,676.337 734.46,689.337 736.5,702.5C 732.854,703.283 729.188,703.45 725.5,703C 723.396,701.342 722.063,699.176 721.5,696.5C 723.597,685.864 725.097,675.197 726,664.5C 709.021,716.098 699.521,769.098 697.5,823.5C 684.167,823.5 670.833,823.5 657.5,823.5C 658.244,815.967 659.244,808.467 660.5,801C 658.489,794.662 657.989,788.162 659,781.5C 661.153,768.067 663.82,754.734 667,741.5C 672.21,729.328 675.21,716.661 676,703.5C 675,706.64 672.833,707.973 669.5,707.5C 674.371,682.608 680.204,657.941 687,633.5C 692.873,616.107 700.04,599.44 708.5,583.5C 700.38,611.035 692.546,638.701 685,666.5C 682.759,676.861 680.759,687.194 679,697.5C 685.788,675.789 691.788,653.789 697,631.5C 712.249,595.668 728.582,560.335 746,525.5C 754.229,505.284 762.895,485.284 772,465.5C 772.66,463.676 773.827,462.343 775.5,461.5 Z"/></g>
<g><path style="opacity:1" fill="#4b535d" d="M 355.5,533.5 C 357.857,533.337 360.19,533.503 362.5,534C 363.081,534.893 363.415,535.893 363.5,537C 361.137,541.558 358.637,546.058 356,550.5C 351.256,553.928 348.923,552.928 349,547.5C 350.504,542.472 352.67,537.805 355.5,533.5 Z"/></g>
<g><path style="opacity:1" fill="#313841" d="M 470.5,499.5 C 471.139,500.097 471.472,500.93 471.5,502C 469.935,515.223 468.101,528.389 466,541.5C 454.481,586.68 443.981,631.347 434.5,675.5C 438.03,647.986 442.53,620.653 448,593.5C 455.394,562.136 462.894,530.802 470.5,499.5 Z"/></g>
<g><path style="opacity:1" fill="#2c333b" d="M 1076.5,812.5 C 1059.49,812.917 1042.49,813.584 1025.5,814.5C 1024.55,739.389 1019.55,664.555 1010.5,590C 1010.54,588.236 1010.88,586.569 1011.5,585C 1015.8,582.849 1020.14,580.682 1024.5,578.5C 1038.76,630.525 1052.26,682.859 1065,735.5C 1070.22,760.968 1074.06,786.635 1076.5,812.5 Z"/></g>
<g><path style="opacity:1" fill="#38414a" d="M 1066.5,205.5 C 1087.37,242.255 1103.87,280.922 1116,321.5C 1131.09,383.186 1147.42,444.519 1165,505.5C 1172.21,540.401 1178.87,575.401 1185,610.5C 1185.91,613.121 1186.41,612.954 1186.5,610C 1178.09,558.542 1169.93,507.042 1162,455.5C 1158.84,432.898 1156.34,410.231 1154.5,387.5C 1154.34,385.473 1154.5,383.473 1155,381.5C 1171.21,431.642 1181.88,482.975 1187,535.5C 1189.32,570.37 1193.32,605.037 1199,639.5C 1206.71,675.049 1215.04,710.382 1224,745.5C 1226.42,761.042 1229.59,776.376 1233.5,791.5C 1233.83,790.833 1234.17,790.167 1234.5,789.5C 1233.4,784.889 1232.73,780.222 1232.5,775.5C 1234.58,785.558 1236.91,795.558 1239.5,805.5C 1185.3,807.496 1130.97,809.829 1076.5,812.5C 1074.06,786.635 1070.22,760.968 1065,735.5C 1052.26,682.859 1038.76,630.525 1024.5,578.5C 1020.14,580.682 1015.8,582.849 1011.5,585C 1010.88,586.569 1010.54,588.236 1010.5,590C 1019.55,664.555 1024.55,739.389 1025.5,814.5C 928.196,818.59 830.863,821.59 733.5,823.5C 734.602,807.687 736.768,792.021 740,776.5C 742.897,751.569 741.731,726.902 736.5,702.5C 752.429,700.769 768.095,697.602 783.5,693C 824.692,677.849 864.692,659.849 903.5,639C 937.68,620.244 972.68,603.077 1008.5,587.5C 1008.83,585.833 1009.17,584.167 1009.5,582.5C 1008.06,573.211 1006.9,563.877 1006,554.5C 1001.65,525.377 996.979,496.377 992,467.5C 1005.12,503.091 1015.95,539.424 1024.5,576.5C 1051.48,565.697 1070.98,546.697 1083,519.5C 1092.35,491.492 1096.85,462.658 1096.5,433C 1092.96,356.286 1082.96,280.453 1066.5,205.5 Z"/></g>
<g><path style="opacity:1" fill="#2b333b" d="M 1109.5,574.5 C 1111.53,574.338 1113.53,574.505 1115.5,575C 1116.89,575.956 1117.56,577.289 1117.5,579C 1117.37,584.079 1117.21,589.245 1117,594.5C 1112.87,598.801 1109.2,598.467 1106,593.5C 1103.15,588.32 1102.82,582.987 1105,577.5C 1106.41,576.219 1107.91,575.219 1109.5,574.5 Z"/></g>
<g><path style="opacity:1" fill="#39424b" d="M 1323.5,588.5 C 1328.02,588.18 1331.52,589.846 1334,593.5C 1332.78,601.611 1328.45,603.944 1321,600.5C 1320.33,597.5 1320.33,594.5 1321,591.5C 1321.7,590.309 1322.53,589.309 1323.5,588.5 Z"/></g>
<g><path style="opacity:1" fill="#404952" d="M 436.5,290.5 C 439.309,294.041 441.476,298.041 443,302.5C 452.816,327.093 460.149,352.427 465,378.5C 475.057,437.381 478.89,496.714 476.5,556.5C 475.499,537.982 474.333,519.315 473,500.5C 472.653,493.377 471.82,493.043 470.5,499.5C 462.894,530.802 455.394,562.136 448,593.5C 442.53,620.653 438.03,647.986 434.5,675.5C 430.939,696.965 427.772,718.632 425,740.5C 422.182,757.759 418.682,774.759 414.5,791.5C 413.472,791.074 412.139,791.074 410.5,791.5C 416.991,748.907 423.158,706.24 429,663.5C 439.049,618.258 448.715,572.925 458,527.5C 459.996,512.867 461.662,498.201 463,483.5C 463.943,467.448 463.443,451.448 461.5,435.5C 461.351,433.68 460.684,432.18 459.5,431C 459.938,426.398 460.271,421.898 460.5,417.5C 462.335,423.17 464.169,428.836 466,434.5C 466.667,427.167 466.667,419.833 466,412.5C 464.303,391.348 460.303,370.681 454,350.5C 449.465,334.697 444.465,319.03 439,303.5C 437.847,299.213 437.013,294.879 436.5,290.5 Z"/></g>
<g><path style="opacity:1" fill="#2b333b" d="M 1079.5,608.5 C 1084.08,607.697 1087.25,609.363 1089,613.5C 1097.84,627.184 1104.51,641.851 1109,657.5C 1109.67,663.167 1109.67,668.833 1109,674.5C 1101.77,691.556 1092.27,692.89 1080.5,678.5C 1069.59,661.77 1065.09,643.437 1067,623.5C 1068.86,616.387 1073.02,611.387 1079.5,608.5 Z"/></g>
<g><path style="opacity:1" fill="#39424b" d="M 1295.5,615.5 C 1298.85,615.335 1302.18,615.502 1305.5,616C 1306.33,617.816 1307.16,619.649 1308,621.5C 1308.67,629.5 1308.67,637.5 1308,645.5C 1303.48,652.649 1298.15,653.315 1292,647.5C 1286.54,639.797 1285.21,631.464 1288,622.5C 1289.74,619.254 1292.24,616.921 1295.5,615.5 Z"/></g>
<g><path style="opacity:1" fill="#2c333b" d="M 1480.5,571.5 C 1483.37,573.538 1485.71,576.038 1487.5,579C 1489.05,587.569 1490.71,596.069 1492.5,604.5C 1481.67,608.14 1471.33,612.973 1461.5,619C 1441.23,635.434 1423.56,654.268 1408.5,675.5C 1416.7,657.256 1426.2,639.256 1437,621.5C 1447.37,609.451 1458.21,597.618 1469.5,586C 1472.82,583.006 1476.49,580.506 1480.5,578.5C 1479.92,576.998 1479.08,575.665 1478,574.5C 1470.17,579.088 1462.84,584.422 1456,590.5C 1446.86,601.055 1437.53,611.388 1428,621.5C 1411.88,648.127 1398.54,676.461 1388,706.5C 1394.01,696.685 1400.51,687.352 1407.5,678.5C 1400.25,693.352 1393.75,708.685 1388,724.5C 1387.33,725.833 1387.33,727.167 1388,728.5C 1395.32,716.533 1402.65,704.533 1410,692.5C 1415.16,686.187 1419.82,679.52 1424,672.5C 1437.5,655.667 1452.67,640.5 1469.5,627C 1477.82,623.063 1486.15,619.23 1494.5,615.5C 1501.39,656.511 1508.39,697.511 1515.5,738.5C 1464.43,752.045 1413.43,765.712 1362.5,779.5C 1362.34,778.127 1362.51,776.793 1363,775.5C 1365.43,772.066 1367.43,768.4 1369,764.5C 1369.54,757.353 1370.87,750.353 1373,743.5C 1375.8,735.434 1378.46,727.434 1381,719.5C 1370.68,736.133 1361.35,753.466 1353,771.5C 1367.93,713.577 1393.27,660.91 1429,613.5C 1443.05,598.183 1458.38,584.516 1475,572.5C 1476.77,571.767 1478.6,571.433 1480.5,571.5 Z"/></g>
<g><path style="opacity:1" fill="#252c34" d="M 1408.5,675.5 C 1407.89,676.391 1407.56,677.391 1407.5,678.5C 1400.51,687.352 1394.01,696.685 1388,706.5C 1398.54,676.461 1411.88,648.127 1428,621.5C 1437.53,611.388 1446.86,601.055 1456,590.5C 1462.84,584.422 1470.17,579.088 1478,574.5C 1479.08,575.665 1479.92,576.998 1480.5,578.5C 1476.49,580.506 1472.82,583.006 1469.5,586C 1458.21,597.618 1447.37,609.451 1437,621.5C 1426.2,639.256 1416.7,657.256 1408.5,675.5 Z"/></g>
<g><path style="opacity:1" fill="#38414a" d="M 1492.5,604.5 C 1492.75,608.249 1493.42,611.915 1494.5,615.5C 1486.15,619.23 1477.82,623.063 1469.5,627C 1452.67,640.5 1437.5,655.667 1424,672.5C 1419.82,679.52 1415.16,686.187 1410,692.5C 1402.65,704.533 1395.32,716.533 1388,728.5C 1387.33,727.167 1387.33,725.833 1388,724.5C 1393.75,708.685 1400.25,693.352 1407.5,678.5C 1407.56,677.391 1407.89,676.391 1408.5,675.5C 1423.56,654.268 1441.23,635.434 1461.5,619C 1471.33,612.973 1481.67,608.14 1492.5,604.5 Z"/></g>
<g><path style="opacity:1" fill="#39424b" d="M 629.5,636.5 C 632.97,635.875 635.804,636.875 638,639.5C 640.241,650.641 637.074,659.808 628.5,667C 622.949,668.462 619.782,666.295 619,660.5C 617.668,655.447 618.835,651.114 622.5,647.5C 623.273,645.187 623.94,642.854 624.5,640.5C 626.21,639.113 627.877,637.779 629.5,636.5 Z"/></g>
<g><path style="opacity:1" fill="#39424b" d="M 186.5,649.5 C 187.117,649.611 187.617,649.944 188,650.5C 187.834,664.849 191.834,677.849 200,689.5C 210.232,700.726 222.399,709.226 236.5,715C 258.8,723.106 280.467,732.773 301.5,744C 311.412,747.807 321.412,748.14 331.5,745C 345.269,738.059 354.602,727.226 359.5,712.5C 362.481,707.871 364.981,702.871 367,697.5C 364.944,711.141 360.777,724.141 354.5,736.5C 352.659,737.23 350.825,737.897 349,738.5C 343.414,752.684 338.081,767.018 333,781.5C 331.476,783.898 329.976,786.231 328.5,788.5C 309.329,780.92 290.329,772.753 271.5,764C 237.167,747.167 202.833,730.333 168.5,713.5C 167.441,710.155 167.608,706.822 169,703.5C 174.563,685.384 180.396,667.384 186.5,649.5 Z"/></g>
<g><path style="opacity:1" fill="#2c333b" d="M 736.5,702.5 C 741.731,726.902 742.897,751.569 740,776.5C 736.768,792.021 734.602,807.687 733.5,823.5C 721.5,823.5 709.5,823.5 697.5,823.5C 699.521,769.098 709.021,716.098 726,664.5C 725.097,675.197 723.597,685.864 721.5,696.5C 722.063,699.176 723.396,701.342 725.5,703C 729.188,703.45 732.854,703.283 736.5,702.5 Z"/></g>
<g><path style="opacity:1" fill="#39424b" d="M 378.5,807.5 C 375.101,806.984 371.768,806.15 368.5,805C 358.883,801.071 349.216,797.238 339.5,793.5C 353.239,756.693 368.072,720.36 384,684.5C 385.426,706.819 385.426,729.153 384,751.5C 381.69,770.125 379.856,788.792 378.5,807.5 Z"/></g>
<g><path style="opacity:1" fill="#2b333b" d="M 949.5,723.5 C 950.978,723.238 952.311,723.571 953.5,724.5C 954.965,727.672 957.131,730.338 960,732.5C 962.05,740.245 961.717,747.912 959,755.5C 953.478,762.411 948.478,762.078 944,754.5C 939.456,745.778 939.456,737.111 944,728.5C 946.191,727.167 948.024,725.5 949.5,723.5 Z"/></g>
<g><path style="opacity:1" fill="#39424a" d="M 596.5,823.5 C 582.421,823.815 568.421,823.482 554.5,822.5C 563.456,790.445 575.623,759.779 591,730.5C 595.872,761.293 597.705,792.293 596.5,823.5 Z"/></g>
</svg>
