<?xml version="1.0" encoding="UTF-8"?>
<svg version="1.1" xmlns="http://www.w3.org/2000/svg" width="1689" height="921">
<path d="M0 0 C557.37 0 1114.74 0 1689 0 C1689 303.93 1689 607.86 1689 921 C1131.63 921 574.26 921 0 921 C0 617.07 0 313.14 0 0 Z " fill="#FEFEFE" transform="translate(0,0)"/>
<path d="M0 0 C0.66039276 0.11231964 1.32078552 0.22463928 2.00119019 0.34036255 C12.38016868 2.10662866 22.67238877 4.16988465 32.94140625 6.4921875 C38.62520392 7.77471538 44.33062567 8.93796208 50.04077148 10.09667969 C69.82696579 14.11313225 69.82696579 14.11313225 79.34375 16.85546875 C83.6002589 18.009058 87.88750311 18.98094909 92.18652344 19.96264648 C98.17861287 21.34327021 104.1547074 22.78923703 110.13085938 24.23706055 C112.24046449 24.74769192 114.35068769 25.2557123 116.4609375 25.76367188 C130.22578451 29.08822771 143.87300444 32.738805 157.4375 36.8125 C165.62416943 39.26466579 173.80475425 41.68317703 182.078125 43.828125 C188.65917892 46.14436185 193.11208276 49.64203973 197.8125 54.625 C198.85741693 55.70242329 199.9042899 56.77795305 200.953125 57.8515625 C201.45392578 58.36493164 201.95472656 58.87830078 202.47070312 59.40722656 C204.84363329 61.78180689 207.39453651 63.93160871 209.94921875 66.10546875 C212.99436253 68.80471385 215.80342701 71.73311063 218.66015625 74.62890625 C220.65159461 76.59224671 222.68802578 78.43329669 224.8125 80.25 C227.9853592 82.96869248 230.93838382 85.84001675 233.875 88.8125 C236.75057659 91.72303801 239.63374094 94.53674022 242.75 97.1875 C246.30786305 100.22680811 249.58940782 103.48614997 252.875 106.8125 C256.05786886 110.03460903 259.22190239 113.20302554 262.6875 116.125 C267.4858658 120.19908417 271.84174177 124.72898002 276.24536133 129.2199707 C279.29876335 132.31531617 282.38441186 135.29616718 285.6875 138.125 C291.829303 143.42089027 297.40818558 149.30312009 303.09765625 155.07421875 C303.98324219 155.96753906 304.86882813 156.86085937 305.78125 157.78125 C306.96170898 158.97911133 306.96170898 158.97911133 308.16601562 160.20117188 C310.29024662 162.24882641 312.43739531 164.18342473 314.66992188 166.10742188 C319.0642238 169.92165021 323.16064394 173.98858207 327.25 178.125 C328.01876465 178.89755127 328.7875293 179.67010254 329.57958984 180.46606445 C332.8335983 183.73626036 336.08156266 187.0124349 339.33007812 190.28808594 C341.71795352 192.69415285 344.10890793 195.09713038 346.5 197.5 C347.22106934 198.22936768 347.94213867 198.95873535 348.68505859 199.71020508 C349.72654053 200.75664185 349.72654053 200.75664185 350.7890625 201.82421875 C351.6855249 202.72853638 351.6855249 202.72853638 352.60009766 203.65112305 C354.5593538 205.51260562 356.55877698 207.27926308 358.60435486 209.0438385 C363.01787895 212.88501532 367.1609738 216.95772511 371.29125977 221.09936523 C372.09073029 221.89708344 372.89020081 222.69480164 373.71389771 223.51669312 C376.33390712 226.13233142 378.95027693 228.75157506 381.56640625 231.37109375 C383.39893749 233.20295059 385.2316171 235.03465903 387.06443787 236.8662262 C390.89639298 240.69671076 394.72659109 244.52893963 398.55541992 248.36254883 C402.96380385 252.77637357 407.37577828 257.18658469 411.78963429 261.59493679 C416.05912916 265.85932345 420.32577911 270.12654385 424.59126091 274.39494514 C426.39614516 276.20049387 428.20176533 278.00530727 430.0081501 279.80935478 C432.53724712 282.33589677 435.06309022 284.86564901 437.58813477 287.39624023 C438.32651077 288.13259201 439.06488678 288.86894379 439.82563782 289.62760925 C443.79547322 293.61351826 447.57413532 297.70065036 451.24876499 301.95957851 C453.62240589 304.66408937 456.13443447 307.2119475 458.68334961 309.75024414 C459.21772141 310.28636826 459.7520932 310.82249237 460.30265808 311.37486267 C462.04174136 313.11828976 463.78438874 314.85810052 465.52734375 316.59765625 C466.75385354 317.82484122 467.98021498 319.05217447 469.20643616 320.27964783 C471.76580528 322.84048381 474.32695493 325.39952171 476.8894043 327.95727539 C480.15510508 331.21727954 483.41629475 334.48175365 486.67615414 337.74759769 C489.20438627 340.27946285 491.73501939 342.80891744 494.26635933 345.33767509 C495.46903192 346.53968599 496.67097709 347.74242519 497.8721447 348.94594002 C506.34081588 357.43103649 506.34081588 357.43103649 515.26930237 365.42698669 C517.95163688 367.74150101 520.40359351 370.27723939 522.875 372.8125 C526.80890584 376.80088006 530.81432405 380.60413058 535.08203125 384.23828125 C536.92929629 385.8601719 538.65256714 387.55910205 540.375 389.3125 C542.63297943 391.60576036 544.93496504 393.77678028 547.375 395.875 C551.4801024 399.41084015 555.4249991 403.10580677 559.375 406.8125 C563.78302184 410.94629501 568.20728619 415.03503441 572.7890625 418.9765625 C575.69863231 421.53741983 578.5334259 424.17665072 581.375 426.8125 C585.48422122 430.62286877 589.62181609 434.38338727 593.86328125 438.046875 C596.34112707 440.2216057 598.76078875 442.45588402 601.1875 444.6875 C604.74634111 447.93878694 608.36019619 451.05289458 612.125 454.0625 C618.1753535 458.94097729 623.7778887 464.25514017 629.4296875 469.58203125 C632.54473884 472.51527351 635.71964803 475.36361512 638.96484375 478.15234375 C642.28716492 481.0398417 645.52337002 484.02385962 648.7734375 486.9921875 C650.74223421 488.84926667 650.74223421 488.84926667 652.875 489.8125 C653.48168945 491.74487305 653.48168945 491.74487305 653.98828125 494.32421875 C654.27844116 495.77985229 654.27844116 495.77985229 654.57446289 497.26489258 C654.77676514 498.33247803 654.97906738 499.40006348 655.1875 500.5 C655.4033374 501.60690186 655.6191748 502.71380371 655.84155273 503.85424805 C657.76354822 513.8707613 659.42845927 523.92761263 661.06738281 533.99365234 C662.22581587 541.06921551 663.47609143 548.10590875 664.9375 555.125 C666.68729997 563.53208491 668.05379907 571.97772167 669.37524414 580.46166992 C670.55891724 588.00028556 671.91068899 595.49053701 673.37060547 602.97998047 C675.20386548 612.41306764 676.83567973 621.87926179 678.45214844 631.3515625 C678.81706297 633.47531453 679.19268058 635.59722239 679.5703125 637.71875 C679.75335937 638.7603125 679.93640625 639.801875 680.125 640.875 C680.27453125 641.71160156 680.4240625 642.54820312 680.578125 643.41015625 C680.9263074 646.22768488 680.92439379 648.97647331 680.875 651.8125 C670.91597632 654.86060739 660.90415659 657.61159478 650.8125 660.1875 C641.13202766 662.66133114 631.53509833 665.32986313 621.95947266 668.18041992 C613.15947527 670.77872957 604.29415839 673.08918507 595.39648438 675.328125 C588.86856801 676.98308971 582.44268934 678.84428446 576.01586914 680.85522461 C571.27619218 682.29978531 566.48897917 683.53004866 561.6875 684.75 C554.77643568 686.53073409 547.87393305 688.33049559 541 690.25 C540.29383545 690.447146 539.5876709 690.64429199 538.86010742 690.84741211 C534.53975708 692.05779939 530.22296017 693.28061069 525.90625 694.50390625 C515.35997664 697.48490397 504.81267947 700.37643897 494.16552734 702.9753418 C489.334755 704.16544127 484.54705497 705.45242103 479.77287292 706.85249329 C476.22626319 707.887203 472.67250809 708.89515814 469.1164856 709.89700317 C466.90009267 710.5229818 464.68554288 711.15551353 462.47262573 711.79367065 C443.10103225 717.31206673 424.86718605 720.03912728 404.6738739 720.39286423 C400.72672887 720.47164527 396.78098549 720.59555933 392.83496094 720.71704102 C391.09872488 720.77017364 389.36248829 720.82328904 387.62625122 720.87638855 C386.28530584 720.91753312 386.28530584 720.91753312 384.91727066 720.9595089 C382.08685111 721.04470493 379.25632904 721.12529667 376.42575073 721.20503235 C358.61494499 721.7144826 340.81386552 722.4307722 323.01171875 723.17578125 C322.26264173 723.20710671 321.51356471 723.23843217 320.74178839 723.27070689 C313.00054289 723.59463224 305.25939063 723.9207443 297.51829493 724.24822849 C287.16835165 724.68599702 276.81812947 725.11678779 266.46777344 725.54467773 C264.87924376 725.61037512 263.29071417 725.67607469 261.70218468 725.74177647 C259.33164734 725.83981703 256.96110988 725.93785451 254.59057176 726.0358761 C232.20304726 726.96175677 209.81592644 727.89662188 187.42952538 728.84931374 C104.70901155 732.36747404 21.97037434 735.07963019 -60.80858612 736.76513672 C-63.04918122 736.81094975 -65.28975954 736.85750933 -67.53033447 736.90429688 C-89.39405111 737.35899442 -111.25718814 737.64920698 -133.125 737.8125 C-134.52831699 737.82317253 -134.52831699 737.82317253 -135.95998383 737.83406067 C-193.72345454 738.26701104 -251.44246145 737.88979614 -309.1875 736.4375 C-310.46242813 736.40576187 -311.73735626 736.37402374 -313.05091858 736.34132385 C-339.29068575 735.68576878 -365.52251542 734.91409099 -391.74609375 733.7734375 C-392.68725603 733.73262684 -393.62841831 733.69181618 -394.59810066 733.64976883 C-400.44163193 733.39334088 -406.28365209 733.11450844 -412.125 732.8125 C-412.85661976 732.77586369 -413.58823952 732.73922737 -414.34202957 732.70148087 C-416.3888045 732.59618206 -418.43471996 732.48076766 -420.48071289 732.36132812 C-421.61142715 732.29739868 -422.74214142 732.23346924 -423.90711975 732.16760254 C-429.5541301 731.54443836 -434.77943816 729.79479982 -440.125 727.9375 C-441.19105469 727.58558594 -442.25710938 727.23367188 -443.35546875 726.87109375 C-448.73341511 725.07399118 -453.93239685 723.08074903 -459.125 720.8125 C-461.75542496 719.82996093 -464.40788918 718.91483785 -467.0625 718 C-478.47499642 714.01470366 -489.81326343 709.87365995 -500.9453125 705.15234375 C-503.32996194 704.14750989 -505.71858862 703.16183608 -508.1171875 702.19140625 C-508.83140869 701.90128662 -509.54562988 701.61116699 -510.28149414 701.31225586 C-511.64409807 700.75940682 -513.00773953 700.20910206 -514.37280273 699.66235352 C-519.68768386 697.49741788 -524.87860614 695.08392983 -530.07110596 692.64382935 C-534.80268614 690.42230273 -539.5523118 688.24461369 -544.31640625 686.09375 C-545.0034816 685.78311615 -545.69055695 685.4724823 -546.39845276 685.1524353 C-549.19604313 683.8880331 -551.99403535 682.62454704 -554.79370117 681.36474609 C-563.25265289 677.55610627 -571.61879489 673.6241986 -579.89770508 669.43798828 C-584.62798123 667.05549501 -589.40485224 664.77501936 -594.1875 662.5 C-595.16138672 662.03489014 -596.13527344 661.56978027 -597.13867188 661.09057617 C-602.00201913 658.76932599 -606.87030192 656.45905763 -611.74609375 654.1640625 C-619.41457742 650.54814171 -627.05588981 646.93684069 -634.5 642.875 C-642.00981841 638.78557773 -649.71034488 635.13191215 -657.44677734 631.49243164 C-658.87304443 630.81942017 -658.87304443 630.81942017 -660.328125 630.1328125 C-661.18051758 629.73336426 -662.03291016 629.33391602 -662.91113281 628.92236328 C-665.125 627.8125 -665.125 627.8125 -668.125 625.8125 C-665.40676182 614.0654922 -661.98107492 602.62289709 -658.22631836 591.16772461 C-657.3157164 588.38482964 -656.41811569 585.59797001 -655.52148438 582.81054688 C-652.29641222 572.87084241 -648.79337957 563.1455737 -644.68432617 553.53613281 C-643.06601457 549.7376821 -641.65224545 545.88329985 -640.25 542 C-637.41939464 534.30777088 -634.09143507 526.8792559 -630.6796875 519.4296875 C-628.81160536 515.34758209 -626.9925329 511.24660663 -625.1953125 507.1328125 C-620.52851805 496.46638711 -615.85880812 485.88782297 -610.27075195 475.66796875 C-607.75708575 471.06479265 -605.49226846 466.3944985 -603.3125 461.625 C-596.75649263 447.37854872 -588.90434022 433.73350882 -581.0390625 420.17578125 C-578.90460634 416.42523685 -576.84191957 412.63931275 -574.78027344 408.84838867 C-563.89948616 388.89225449 -552.87588756 369.00319207 -540.875 349.6953125 C-538.7484806 346.19225153 -536.80753337 342.61048905 -534.87109375 339 C-527.99803105 326.45320098 -520.60032936 314.1823797 -513.33251953 301.86132812 C-512.16634383 299.8826491 -511.00258122 297.90257605 -509.83984375 295.921875 C-503.99924404 285.97437258 -498.1224787 276.04842457 -492.23779297 266.12695312 C-488.40906864 259.67113938 -484.58908123 253.21027988 -480.77905273 246.7434082 C-475.65028234 238.04304538 -470.47916596 229.37661289 -465.125 220.8125 C-464.60212402 219.97557617 -464.07924805 219.13865234 -463.54052734 218.27636719 C-462.95352051 217.33696289 -462.36651367 216.39755859 -461.76171875 215.4296875 C-461.14264648 214.4382373 -460.52357422 213.44678711 -459.88574219 212.42529297 C-458.58449349 210.3462302 -457.27913472 208.26973434 -455.96972656 206.19580078 C-452.78585505 201.14114875 -449.67169071 196.07071141 -446.72265625 190.875 C-440.43011169 179.91223708 -435.7903713 173.27809355 -424.125 167.8125 C-421.57988735 166.37430513 -419.07531867 164.86874389 -416.5625 163.375 C-409.79473943 159.44954523 -409.79473943 159.44954523 -406.125 158.8125 C-406.125 158.1525 -406.125 157.4925 -406.125 156.8125 C-399.4375 153.46875 -392.75 150.125 -386.0625 146.78125 C-385.411604 146.45576172 -384.76070801 146.13027344 -384.09008789 145.79492188 C-382.76909149 145.13450573 -381.447963 144.47435373 -380.12670898 143.81445312 C-376.80141918 142.15322496 -373.47847716 140.48760999 -370.16015625 138.8125 C-361.24092036 134.31722267 -352.25178211 129.99526496 -343.19775391 125.77832031 C-341.1657185 124.83147319 -339.13536008 123.88112123 -337.10546875 122.9296875 C-315.7085465 112.90742708 -294.10178781 103.31250843 -272.125 94.625 C-267.86081204 92.93576066 -263.66042544 91.18034149 -259.5 89.25 C-252.15333189 85.85257174 -244.56780823 83.0963005 -236.98828125 80.26953125 C-236.28405029 80.00648193 -235.57981934 79.74343262 -234.85424805 79.47241211 C-233.49317635 78.96471452 -232.13140386 78.45889004 -230.76879883 77.95532227 C-226.49524206 76.36573111 -222.31385635 74.61121544 -218.125 72.8125 C-216.40165982 72.17160922 -214.67271755 71.54549871 -212.9375 70.9375 C-209.11532893 69.56817462 -205.35980571 68.10195979 -201.62109375 66.51953125 C-194.91009311 63.70679066 -188.14998802 61.0292823 -181.375 58.375 C-180.14652344 57.89272949 -178.91804688 57.41045898 -177.65234375 56.91357422 C-171.16131436 54.37148285 -164.66156642 51.86009185 -158.125 49.4375 C-151.71760001 47.05760858 -145.41807025 44.4776191 -139.125 41.8125 C-130.47663753 38.16139721 -121.88324304 34.63409695 -112.9375 31.765625 C-108.97121216 30.42149412 -105.14657223 28.79141422 -101.29296875 27.15625 C-91.22671908 22.88647209 -81.08155643 19.0519201 -70.74682617 15.4909668 C-64.34429111 13.27276088 -58.03322665 10.86888221 -51.73242188 8.37841797 C-45.76708685 6.03185809 -39.74921468 3.86422601 -33.69262695 1.76538086 C-29.6372244 0.3604302 -29.6372244 0.3604302 -25.70703125 -1.35546875 C-17.53971664 -3.9872963 -8.20294984 -1.41995207 0 0 Z " fill="#48515A" transform="translate(835.125,87.1875)"/>
<path d="M0 0 C1.65012665 1.40948318 3.2994778 2.81988253 4.9453125 4.234375 C6.27054423 5.37316729 7.59847743 6.50882697 8.9296875 7.640625 C13.42824668 11.50685658 17.62030293 15.59459767 21.78515625 19.81640625 C23.77659461 21.77974671 25.81302578 23.62079669 27.9375 25.4375 C31.1103592 28.15619248 34.06338382 31.02751675 37 34 C39.87557659 36.91053801 42.75874094 39.72424022 45.875 42.375 C49.43286305 45.41430811 52.71440782 48.67364997 56 52 C59.18286886 55.22210903 62.34690239 58.39052554 65.8125 61.3125 C70.6108658 65.38658417 74.96674177 69.91648002 79.37036133 74.4074707 C82.42376335 77.50281617 85.50941186 80.48366718 88.8125 83.3125 C94.954303 88.60839027 100.53318558 94.49062009 106.22265625 100.26171875 C107.10824219 101.15503906 107.99382812 102.04835938 108.90625 102.96875 C109.69322266 103.76732422 110.48019531 104.56589844 111.29101562 105.38867188 C113.41524662 107.43632641 115.56239531 109.37092473 117.79492188 111.29492188 C122.1892238 115.10915021 126.28564394 119.17608207 130.375 123.3125 C131.14376465 124.08505127 131.9125293 124.85760254 132.70458984 125.65356445 C135.9585983 128.92376036 139.20656266 132.1999349 142.45507812 135.47558594 C144.84295352 137.88165285 147.23390793 140.28463038 149.625 142.6875 C150.34606934 143.41686768 151.06713867 144.14623535 151.81005859 144.89770508 C152.85154053 145.94414185 152.85154053 145.94414185 153.9140625 147.01171875 C154.8105249 147.91603638 154.8105249 147.91603638 155.72509766 148.83862305 C157.6843538 150.70010562 159.68377698 152.46676308 161.72935486 154.2313385 C166.14287895 158.07251532 170.2859738 162.14522511 174.41625977 166.28686523 C175.21573029 167.08458344 176.01520081 167.88230164 176.83889771 168.70419312 C179.45890712 171.31983142 182.07527693 173.93907506 184.69140625 176.55859375 C186.52393749 178.39045059 188.3566171 180.22215903 190.18943787 182.0537262 C194.02139298 185.88421076 197.85159109 189.71643963 201.68041992 193.55004883 C206.08880385 197.96387357 210.50077828 202.37408469 214.91463429 206.78243679 C219.18412916 211.04682345 223.45077911 215.31404385 227.71626091 219.58244514 C229.52114516 221.38799387 231.32676533 223.19280727 233.1331501 224.99685478 C235.66224712 227.52339677 238.18809022 230.05314901 240.71313477 232.58374023 C241.82069878 233.6882679 241.82069878 233.6882679 242.95063782 234.81510925 C246.92047322 238.80101826 250.69913532 242.88815036 254.37376499 247.14707851 C256.74740589 249.85158937 259.25943447 252.3994475 261.80834961 254.93774414 C262.34272141 255.47386826 262.8770932 256.00999237 263.42765808 256.56236267 C265.16674136 258.30578976 266.90938874 260.04560052 268.65234375 261.78515625 C269.87885354 263.01234122 271.10521498 264.23967447 272.33143616 265.46714783 C274.89080528 268.02798381 277.45195493 270.58702171 280.0144043 273.14477539 C283.28010508 276.40477954 286.54129475 279.66925365 289.80115414 282.93509769 C292.32938627 285.46696285 294.86001939 287.99641744 297.39135933 290.52517509 C298.59403192 291.72718599 299.79597709 292.92992519 300.9971447 294.13344002 C309.46581588 302.61853649 309.46581588 302.61853649 318.39430237 310.61448669 C321.07663688 312.92900101 323.52859351 315.46473939 326 318 C329.93390584 321.98838006 333.93932405 325.79163058 338.20703125 329.42578125 C340.05429629 331.0476719 341.77756714 332.74660205 343.5 334.5 C345.75797943 336.79326036 348.05996504 338.96428028 350.5 341.0625 C354.6051024 344.59834015 358.5499991 348.29330677 362.5 352 C366.90802184 356.13379501 371.33228619 360.22253441 375.9140625 364.1640625 C378.82363231 366.72491983 381.6584259 369.36415072 384.5 372 C388.60922122 375.81036877 392.74681609 379.57088727 396.98828125 383.234375 C399.46612707 385.4091057 401.88578875 387.64338402 404.3125 389.875 C407.87134111 393.12628694 411.48519619 396.24039458 415.25 399.25 C421.3003535 404.12847729 426.9028887 409.44264017 432.5546875 414.76953125 C435.66973884 417.70277351 438.84464803 420.55111512 442.08984375 423.33984375 C445.41216492 426.2273417 448.64837002 429.21135962 451.8984375 432.1796875 C453.86723421 434.03676667 453.86723421 434.03676667 456 435 C456.60668945 436.93237305 456.60668945 436.93237305 457.11328125 439.51171875 C457.40344116 440.96735229 457.40344116 440.96735229 457.69946289 442.45239258 C457.90176514 443.51997803 458.10406738 444.58756348 458.3125 445.6875 C458.5283374 446.79440186 458.7441748 447.90130371 458.96655273 449.04174805 C460.88854822 459.0582613 462.55345927 469.11511263 464.19238281 479.18115234 C465.35081587 486.25671551 466.60109143 493.29340875 468.0625 500.3125 C469.81229997 508.71958491 471.17879907 517.16522167 472.50024414 525.64916992 C473.68391724 533.18778556 475.03568899 540.67803701 476.49560547 548.16748047 C478.32886548 557.60056764 479.96067973 567.06676179 481.57714844 576.5390625 C481.94206297 578.66281453 482.31768058 580.78472239 482.6953125 582.90625 C482.87835937 583.9478125 483.06140625 584.989375 483.25 586.0625 C483.39953125 586.89910156 483.5490625 587.73570312 483.703125 588.59765625 C484.0513074 591.41518488 484.04939379 594.16397331 484 597 C474.04097632 600.04810739 464.02915659 602.79909478 453.9375 605.375 C444.25702766 607.84883114 434.66009833 610.51736313 425.08447266 613.36791992 C416.28447527 615.96622957 407.41915839 618.27668507 398.52148438 620.515625 C391.99356801 622.17058971 385.56768934 624.03178446 379.14086914 626.04272461 C374.40119218 627.48728531 369.61397917 628.71754866 364.8125 629.9375 C357.90143568 631.71823409 350.99893305 633.51799559 344.125 635.4375 C343.41883545 635.634646 342.7126709 635.83179199 341.98510742 636.03491211 C337.66475708 637.24529939 333.34796017 638.46811069 329.03125 639.69140625 C318.48497664 642.67240397 307.93767947 645.56393897 297.29052734 648.1628418 C292.459755 649.35294127 287.67205497 650.63992103 282.89787292 652.03999329 C279.35126319 653.074703 275.79750809 654.08265814 272.2414856 655.08450317 C270.02509267 655.7104818 267.81054288 656.34301353 265.59762573 656.98117065 C246.22603225 662.49956673 227.99218605 665.22662728 207.7988739 665.58036423 C203.85172887 665.65914527 199.90598549 665.78305933 195.95996094 665.90454102 C194.22372488 665.95767364 192.48748829 666.01078904 190.75125122 666.06388855 C189.41030584 666.10503312 189.41030584 666.10503312 188.04227066 666.1470089 C185.21185111 666.23220493 182.38132904 666.31279667 179.55075073 666.39253235 C161.73994499 666.9019826 143.93886552 667.6182722 126.13671875 668.36328125 C125.38764173 668.39460671 124.63856471 668.42593217 123.86678839 668.45820689 C116.12554289 668.78213224 108.38439063 669.1082443 100.64329493 669.43572849 C90.29335165 669.87349702 79.94312947 670.30428779 69.59277344 670.73217773 C68.00424376 670.79787512 66.41571417 670.86357469 64.82718468 670.92927647 C62.45664734 671.02731703 60.08610988 671.12535451 57.71557176 671.2233761 C35.32804726 672.14925677 12.94092644 673.08412188 -9.44547462 674.03681374 C-64.0173749 676.35779416 -118.59222421 678.35623265 -173.19138336 679.91939545 C-175.98280995 679.99950666 -178.77421351 680.0803814 -181.56561279 680.16143799 C-232.38733281 681.63364843 -283.15709375 682.30491639 -334 682 C-334.07514435 673.08982824 -334.09162918 664.25511551 -333.25 655.375 C-333.16057129 654.4144873 -333.07114258 653.45397461 -332.97900391 652.46435547 C-328.54087457 606.88845955 -318.9603973 562.56912237 -305 519 C-304.67 519 -304.34 519 -304 519 C-302.7091083 524.01479382 -301.42767342 529.03187569 -300.15478516 534.05126953 C-299.72082802 535.75700261 -299.28433411 537.46209245 -298.84521484 539.16650391 C-298.21297229 541.62235762 -297.59001343 544.08041155 -296.96875 546.5390625 C-296.77188599 547.29555084 -296.57502197 548.05203918 -296.37219238 548.83145142 C-295.33274442 552.98662898 -294.78480987 556.6782649 -295 561 C-251.7882799 556.98352602 -208.54135783 537.87033584 -170.39257812 518.22851562 C-166.98399116 516.47831057 -163.55511621 514.76999298 -160.125 513.0625 C-158.85410933 512.4258957 -157.5832779 511.78917313 -156.3125 511.15234375 C-152.98460234 509.48759801 -149.6492542 507.83832336 -146.3125 506.19140625 C-136.18199749 501.17786597 -126.15190496 496.07231992 -116.30957031 490.51269531 C-109.62998644 486.75181901 -102.8098241 483.32349585 -95.92822266 479.95019531 C-94.05465027 479.02693073 -92.18830888 478.09068109 -90.32421875 477.1484375 C-74.07523504 468.9387386 -57.69373002 460.96944007 -41.01269531 453.67382812 C-34.89748286 450.98965907 -28.94026485 448.05313338 -23 445 C-23.5248579 431.61367104 -25.31017173 418.49444056 -27.25 405.25 C-27.40651031 404.16795288 -27.56302063 403.08590576 -27.72427368 401.97106934 C-30.44571449 383.16434477 -33.57729228 364.48763304 -37.1953125 345.83203125 C-37.38391846 344.85524414 -37.57252441 343.87845703 -37.7668457 342.87207031 C-38.11641908 341.07211936 -38.4712439 339.27317555 -38.83276367 337.47558594 C-39.59723264 333.59142957 -40.21723539 329.98264881 -40 326 C-37.15774506 328.84225494 -36.43397019 332.28277159 -35.2421875 336.03125 C-34.97820663 336.84517212 -34.71422577 337.65909424 -34.44224548 338.49768066 C-33.57990371 341.16304618 -32.72689796 343.83127956 -31.875 346.5 C-31.28102675 348.35031938 -30.68686887 350.2005795 -30.0925293 352.05078125 C-28.91686059 355.71606934 -27.74595432 359.38283287 -26.57861328 363.05078125 C-25.30559125 367.04919286 -24.01378441 371.04117382 -22.71484375 375.03125 C-17.32743871 391.8028029 -13.10693276 408.86939315 -8.90625 425.96875 C-8.71294601 426.75076782 -8.51964203 427.53278564 -8.32048035 428.33850098 C-7 433.76335802 -7 433.76335802 -7 436 C-1.03438775 433.185327 4.51417383 430.15783887 9.89453125 426.33203125 C12.18027917 424.88594583 14.46649217 423.9329322 17 423 C17 422.34 17 421.68 17 421 C19.046875 419.125 19.046875 419.125 21.75 417 C22.63171875 416.29875 23.5134375 415.5975 24.421875 414.875 C27 413 27 413 29.203125 412 C31.56727565 410.68429877 31.85788726 409.44678897 33 407 C34.21776392 405.38656531 35.43801178 403.77481867 36.6809082 402.18066406 C50.78836344 383.93041089 57.80905389 362.23244915 60.65136719 339.52246094 C60.89372284 337.7689465 61.18454634 336.02172862 61.51269531 334.28222656 C63.5591545 322.63231234 63.30070622 310.92137127 63.26074219 299.12890625 C63.25016345 295.43211921 63.26060492 291.73583338 63.2734375 288.0390625 C63.28966513 263.6988378 61.40049174 239.65174965 58.5 215.5 C58.070313 211.86488702 57.64427451 208.22935227 57.21875 204.59375 C57.06293709 203.27318855 57.06293709 203.27318855 56.90397644 201.9259491 C56.18269677 195.75504821 55.55305331 189.57865664 54.95703125 183.39453125 C54.26534792 176.27921038 53.39355499 169.23659709 52.1875 162.1875 C51.82893405 160.0339362 51.47088429 157.8802864 51.11328125 155.7265625 C50.92846191 154.6221582 50.74364258 153.51775391 50.55322266 152.37988281 C50.00238989 149.01460088 49.4865534 145.64571775 48.98046875 142.2734375 C46.39987006 125.29766243 43.2220839 108.46538505 39.875 91.625 C39.6571283 90.52020294 39.43925659 89.41540588 39.21478271 88.27713013 C38.58487812 85.09220429 37.94631785 81.90914457 37.3046875 78.7265625 C37.11729004 77.77769669 36.92989258 76.82883087 36.73681641 75.85121155 C35.1248276 67.95461017 33.14263088 60.49392219 29.07421875 53.4765625 C28.52443359 52.5175 27.97464844 51.5584375 27.40820312 50.5703125 C26.84037109 49.59835938 26.27253906 48.62640625 25.6875 47.625 C24.56557938 45.68016426 23.44448281 43.73485292 22.32421875 41.7890625 C21.77088867 40.83128906 21.21755859 39.87351563 20.64746094 38.88671875 C18.50857939 35.13892156 16.44707131 31.35171877 14.39086914 27.55810547 C12.42107536 23.93523391 10.40217027 20.34098733 8.375 16.75 C8.00632812 16.09515625 7.63765625 15.4403125 7.2578125 14.765625 C6.70867187 13.79109375 6.70867187 13.79109375 6.1484375 12.796875 C5.79491211 12.16845703 5.44138672 11.54003906 5.07714844 10.89257812 C4.34082164 9.59883258 3.59352774 8.31128378 2.83691406 7.02929688 C0 2.20379837 0 2.20379837 0 0 Z " fill="#3B444C" transform="translate(1032,142)"/>
<path d="M0 0 C-0.60500111 10.82743359 -2.59625465 21.34445827 -4.54785156 31.98779297 C-7.95126586 50.76338986 -10.34268645 69.55650976 -12.38818359 88.5246582 C-12.48894196 89.4542485 -12.58970032 90.38383881 -12.69351196 91.34159851 C-12.88264364 93.09560581 -13.06897487 94.84991813 -13.25204468 96.60456848 C-13.33612579 97.38942123 -13.42020691 98.17427399 -13.50683594 98.98291016 C-13.61412018 100.00634018 -13.61412018 100.00634018 -13.72357178 101.05044556 C-14.01176375 103.08296571 -14.4960033 105.01144074 -15 107 C-15.20001737 108.95260016 -15.36278879 110.9091713 -15.5 112.8671875 C-15.5825 114.00027344 -15.665 115.13335937 -15.75 116.30078125 C-15.8325 117.48027344 -15.915 118.65976563 -16 119.875 C-16.1641125 122.2059104 -16.33069862 124.53664823 -16.5 126.8671875 C-16.5721875 127.89956543 -16.644375 128.93194336 -16.71875 129.99560547 C-17 133 -17 133 -17.49511719 135.95117188 C-18.04548656 139.27467898 -18.32933734 142.55452444 -18.578125 145.9140625 C-18.68506511 147.30741011 -18.79251239 148.70071885 -18.90039062 150.09399414 C-18.9851062 151.19809128 -18.9851062 151.19809128 -19.0715332 152.32449341 C-20.25687939 167.6040679 -21.77344154 182.83498661 -23.5 198.0625 C-23.60155396 198.97050354 -23.70310791 199.87850708 -23.80773926 200.81402588 C-25.65132969 217.22822762 -27.81230771 233.60839996 -31.375 249.75 C-31.69307617 251.19802002 -31.69307617 251.19802002 -32.01757812 252.67529297 C-33.82554615 260.66581831 -36.14390794 268.31467972 -39 276 C-39.37769531 277.06863281 -39.75539063 278.13726562 -40.14453125 279.23828125 C-48.05274544 300.89991143 -60.54974912 320.71773754 -73 340 C-73.57524414 340.89106445 -74.15048828 341.78212891 -74.74316406 342.70019531 C-82.56582618 354.79363109 -90.49857503 366.81140802 -98.54589844 378.7565918 C-102.1553846 384.13688332 -105.56993707 389.5613096 -108.75366211 395.20581055 C-109.16495361 395.79789307 -109.57624512 396.38997559 -110 397 C-110.66 397 -111.32 397 -112 397 C-112.25007813 397.70382812 -112.50015625 398.40765625 -112.7578125 399.1328125 C-114.14879769 402.34345126 -115.89183462 404.99379746 -117.875 407.875 C-120.78835153 412.16557225 -123.5175131 416.44877401 -126 421 C-126.66 421 -127.32 421 -128 421 C-128.24363281 421.68449219 -128.48726562 422.36898438 -128.73828125 423.07421875 C-130.23496349 426.54485342 -132.15712392 429.63922393 -134.1875 432.8125 C-135.08732099 434.23822988 -135.98705488 435.66401473 -136.88671875 437.08984375 C-137.92419814 438.72674065 -138.961979 440.3634465 -140 442 C-157.08061706 468.94294751 -172.59778509 496.1339582 -183.8828125 526.04296875 C-185.52439246 530.38798982 -187.265333 534.69153847 -189 539 C-189.31710937 539.79792969 -189.63421875 540.59585938 -189.9609375 541.41796875 C-190.96663715 543.94830906 -191.98225409 546.47448236 -193 549 C-193.36867188 549.92554688 -193.73734375 550.85109375 -194.1171875 551.8046875 C-198.67625733 563.03847393 -203.72691311 575.22749316 -211 585 C-211.66 585 -212.32 585 -213 585 C-213.33 586.32 -213.66 587.64 -214 589 C-214.66 589 -215.32 589 -216 589 C-216.23847656 589.56976562 -216.47695313 590.13953125 -216.72265625 590.7265625 C-221.77708132 599.7225117 -233.1561605 606.38956455 -242.8125 609.375 C-256.78847769 612.07361358 -269.82376006 609.04959946 -281.8125 601.6875 C-283.55680124 600.47990684 -285.28652197 599.25094408 -287 598 C-287.84046875 597.42765625 -288.6809375 596.8553125 -289.546875 596.265625 C-310.71567531 580.88208688 -319.53693679 551.69217085 -323.56640625 526.98046875 C-326.62412845 505.96207198 -328.09054842 484.75378405 -328.26036072 463.52822304 C-328.28191058 460.84348481 -328.30888418 458.15884357 -328.33703613 455.47416687 C-328.39605682 449.75365185 -328.44835532 444.03308564 -328.5 438.3125 C-328.72918236 408.57508636 -328.72918236 408.57508636 -329.4765625 378.84765625 C-329.51495239 377.7529451 -329.55334229 376.65823395 -329.59289551 375.53034973 C-329.87827379 368.27918971 -330.48237326 361.1208867 -331.40625 353.921875 C-331.90358783 349.9801367 -332.29061346 346.03422737 -332.65625 342.078125 C-334.95912253 317.20582144 -339.04300534 293.252941 -345 269 C-345.23976563 268.01112793 -345.47953125 267.02225586 -345.7265625 266.00341797 C-351.01857262 244.31562649 -357.94968835 223.41134116 -367 203 C-366.147956 212.57643778 -363.6114949 221.23675849 -359.9375 230.125 C-358.25013635 234.22288314 -357.01893129 238.30065558 -355.90234375 242.5859375 C-354.72161932 247.05326717 -353.45640028 251.49453458 -352.1875 255.9375 C-351.80235229 257.29524536 -351.80235229 257.29524536 -351.40942383 258.68041992 C-350.1240634 263.18532105 -348.80244874 267.67217787 -347.3828125 272.13671875 C-343.8400558 283.33545122 -341.39550916 294.3328795 -340 306 C-339.90356201 306.75812988 -339.80712402 307.51625977 -339.70776367 308.29736328 C-338.88562809 315.41002705 -338.88566754 322.47212094 -338.9375 329.625 C-338.94201172 330.81996094 -338.94652344 332.01492188 -338.95117188 333.24609375 C-338.96284397 336.16411647 -338.97921674 339.08203037 -339 342 C-340.72445557 339.41331664 -341.59222367 337.59799599 -342.55078125 334.7109375 C-342.834375 333.86104248 -343.11796875 333.01114746 -343.41015625 332.13549805 C-343.70792969 331.22453369 -344.00570313 330.31356934 -344.3125 329.375 C-344.62445313 328.42858643 -344.93640625 327.48217285 -345.2578125 326.50708008 C-347.76590732 318.84023159 -350.09574277 311.13299733 -352.31689453 303.37890625 C-354.27071456 296.57475243 -356.26325055 289.78172917 -358.25390625 282.98828125 C-359.34515771 279.26207128 -360.41635124 275.53141666 -361.46484375 271.79296875 C-365.60510115 257.23478151 -370.60087565 242.26298371 -378 229 C-378.66 228.67 -379.32 228.34 -380 228 C-379.74605469 228.80179688 -379.49210938 229.60359375 -379.23046875 230.4296875 C-370.18565413 260.30806389 -370.67648995 291.70946601 -370.80438232 322.63568115 C-370.81539048 326.01137647 -370.81484537 329.3870328 -370.81424427 332.762743 C-370.81451474 336.02423248 -370.81997 339.2856956 -370.82724571 342.54717636 C-370.83042362 344.09819211 -370.83239774 345.64921082 -370.83313942 347.20022964 C-370.83529158 349.33812981 -370.84400005 351.47589757 -370.85473633 353.61376953 C-370.85854813 354.82694855 -370.86235992 356.04012756 -370.86628723 357.29006958 C-371 360 -371 360 -372 361 C-372.25242539 362.79860191 -372.44510534 364.60563659 -372.61328125 366.4140625 C-372.72454346 367.55584961 -372.83580566 368.69763672 -372.95043945 369.87402344 C-373.12965942 371.73075684 -373.12965942 371.73075684 -373.3125 373.625 C-375.92098039 398.99766777 -379.99274693 424.99191351 -389.5 448.8125 C-391.51230224 454.06152119 -392.71613274 459.53673508 -394 465 C-394.66 465 -395.32 465 -396 465 C-396.09796875 465.72703125 -396.1959375 466.4540625 -396.296875 467.203125 C-397.42719102 474.80352585 -399.36578393 481.78787445 -402 489 C-402.66 489 -403.32 489 -404 489 C-404.10054687 490.28777344 -404.20109375 491.57554687 -404.3046875 492.90234375 C-404.88477332 498.08370267 -406.37537109 502.67223287 -408.125 507.5625 C-414.06913998 524.85370254 -418.96266704 542.21400758 -422.79223633 560.09472656 C-430.14750452 594.09833635 -430.14750452 594.09833635 -436 598 C-437.01396473 600.38210306 -437.88457392 602.67498387 -438.6875 605.125 C-438.91244141 605.78371094 -439.13738281 606.44242188 -439.36914062 607.12109375 C-439.921968 608.74428901 -440.46221309 610.37175979 -441 612 C-440.34 612.33 -439.68 612.66 -439 613 C-442.465 620.92 -442.465 620.92 -446 629 C-446.66 629 -447.32 629 -448 629 C-448.10054687 629.55042969 -448.20109375 630.10085938 -448.3046875 630.66796875 C-451.15086203 640.21384624 -458.94385214 648.82572388 -467.4375 653.75 C-479.55249354 659.97176787 -489.93868901 660.11507907 -503 656 C-508.54087388 653.76597108 -513.75679835 650.84654107 -519 648 C-531.44986587 641.44820361 -544.33862058 636.22346329 -557.40722656 631.04638672 C-571.70961668 625.38051127 -585.44350145 619.43152967 -597 609 C-597.71800781 608.36320313 -598.43601562 607.72640625 -599.17578125 607.0703125 C-610.8607129 596.11156304 -614.9679076 582.46607351 -616.5078125 566.95703125 C-616.67023438 565.98121094 -616.83265625 565.00539063 -617 564 C-617.66 563.67 -618.32 563.34 -619 563 C-618.45472656 561.65421875 -618.45472656 561.65421875 -617.8984375 560.28125 C-617.39014273 559.02102774 -616.88237436 557.7605931 -616.375 556.5 C-616.10212158 555.82219482 -615.82924316 555.14438965 -615.5480957 554.44604492 C-613.92930224 550.39975961 -612.37839546 546.33706366 -610.890625 542.2409668 C-607.83022088 533.84717092 -604.27385136 525.73786026 -600.5546875 517.6171875 C-598.68660536 513.53508209 -596.8675329 509.43410663 -595.0703125 505.3203125 C-590.40351805 494.65388711 -585.73380812 484.07532297 -580.14575195 473.85546875 C-577.63208575 469.25229265 -575.36726846 464.5819985 -573.1875 459.8125 C-566.63149263 445.56604872 -558.77934022 431.92100882 -550.9140625 418.36328125 C-548.77960634 414.61273685 -546.71691957 410.82681275 -544.65527344 407.03588867 C-533.77448616 387.07975449 -522.75088756 367.19069207 -510.75 347.8828125 C-508.6234806 344.37975153 -506.68253337 340.79798905 -504.74609375 337.1875 C-497.87303105 324.64070098 -490.47532936 312.3698797 -483.20751953 300.04882812 C-482.04134383 298.0701491 -480.87758122 296.09007605 -479.71484375 294.109375 C-473.87424404 284.16187258 -467.9974787 274.23592457 -462.11279297 264.31445312 C-458.28406864 257.85863938 -454.46408123 251.39777988 -450.65405273 244.9309082 C-445.52528234 236.23054538 -440.35416596 227.56411289 -435 219 C-434.47712402 218.16307617 -433.95424805 217.32615234 -433.41552734 216.46386719 C-432.82852051 215.52446289 -432.24151367 214.58505859 -431.63671875 213.6171875 C-431.01764648 212.6257373 -430.39857422 211.63428711 -429.76074219 210.61279297 C-428.45949349 208.5337302 -427.15413472 206.45723434 -425.84472656 204.38330078 C-422.66085505 199.32864875 -419.54669071 194.25821141 -416.59765625 189.0625 C-410.30511169 178.09973708 -405.6653713 171.46559355 -394 166 C-391.45488735 164.56180513 -388.95031867 163.05624389 -386.4375 161.5625 C-379.66973943 157.63704523 -379.66973943 157.63704523 -376 157 C-376 156.34 -376 155.68 -376 155 C-369.3125 151.65625 -362.625 148.3125 -355.9375 144.96875 C-355.286604 144.64326172 -354.63570801 144.31777344 -353.96508789 143.98242188 C-352.64409149 143.32200573 -351.322963 142.66185373 -350.00170898 142.00195312 C-346.67641918 140.34072496 -343.35347716 138.67510999 -340.03515625 137 C-331.11592036 132.50472267 -322.12678211 128.18276496 -313.07275391 123.96582031 C-311.0407185 123.01897319 -309.01036008 122.06862123 -306.98046875 121.1171875 C-285.5835465 111.09492708 -263.97678781 101.50000843 -242 92.8125 C-237.73581204 91.12326066 -233.53542544 89.36784149 -229.375 87.4375 C-222.02833189 84.04007174 -214.44280823 81.2838005 -206.86328125 78.45703125 C-206.15905029 78.19398193 -205.45481934 77.93093262 -204.72924805 77.65991211 C-203.36817635 77.15221452 -202.00640386 76.64639004 -200.64379883 76.14282227 C-196.37024206 74.55323111 -192.18885635 72.79871544 -188 71 C-186.27665982 70.35910922 -184.54771755 69.73299871 -182.8125 69.125 C-178.99032893 67.75567462 -175.23480571 66.28945979 -171.49609375 64.70703125 C-164.78509311 61.89429066 -158.02498802 59.2167823 -151.25 56.5625 C-150.02152344 56.08022949 -148.79304688 55.59795898 -147.52734375 55.10107422 C-141.03631436 52.55898285 -134.53656642 50.04759185 -128 47.625 C-121.59260001 45.24510858 -115.29307025 42.6651191 -109 40 C-100.35163753 36.34889721 -91.75824304 32.82159695 -82.8125 29.953125 C-78.84621216 28.60899412 -75.02157223 26.97891422 -71.16796875 25.34375 C-61.10598725 21.07578251 -50.96516135 17.24283609 -40.63500977 13.68286133 C-34.85257494 11.67918941 -29.13317076 9.55049406 -23.4375 7.3125 C-22.69508057 7.02117187 -21.95266113 6.72984375 -21.18774414 6.4296875 C-19.77432722 5.87457003 -18.36099307 5.31924174 -16.94775391 4.76367188 C-14.18007722 3.67852614 -11.40747419 2.60915254 -8.625 1.5625 C-7.81289063 1.25441406 -7.00078125 0.94632812 -6.1640625 0.62890625 C-4 0 -4 0 0 0 Z " fill="#606873" transform="translate(805,89)"/>
<path d="M0 0 C0.66 0.33 1.32 0.66 2 1 C-7.51855074 6.66002413 -17.09415583 12.20212505 -26.75 17.625 C-33.89939872 21.64168659 -40.97469958 25.71167976 -47.890625 30.12109375 C-51.54159233 32.32726873 -55.27379995 34.35156471 -59.02441406 36.38256836 C-63.95802153 39.06431676 -68.8523075 41.81587123 -73.75 44.5625 C-74.82548096 45.16457275 -75.90096191 45.76664551 -77.0090332 46.38696289 C-82.4314126 49.42547794 -87.84609408 52.47655922 -93.24609375 55.5546875 C-102.23710652 60.67716795 -111.19817649 65.73432651 -120.5 70.2734375 C-128.08597722 74.01562716 -135.53912779 78.01580792 -143 82 C-143.80646973 82.42748535 -144.61293945 82.8549707 -145.44384766 83.29541016 C-166.55109654 94.35436796 -166.55109654 94.35436796 -179 114 C-180.57033536 124.56729433 -179.87512335 133.69008632 -177 144 C-176.75894531 144.90492188 -176.51789063 145.80984375 -176.26953125 146.7421875 C-175.0905044 150.92415013 -173.65772026 154.9224133 -172 158.9375 C-170.29647104 163.10025874 -169.03551221 167.23702069 -167.90234375 171.5859375 C-166.72161932 176.05326717 -165.45640028 180.49453458 -164.1875 184.9375 C-163.93073486 185.84266357 -163.67396973 186.74782715 -163.40942383 187.68041992 C-162.1240634 192.18532105 -160.80244874 196.67217787 -159.3828125 201.13671875 C-155.8400558 212.33545122 -153.39550916 223.3328795 -152 235 C-151.85534302 236.13719482 -151.85534302 236.13719482 -151.70776367 237.29736328 C-150.88562809 244.41002705 -150.88566754 251.47212094 -150.9375 258.625 C-150.94201172 259.81996094 -150.94652344 261.01492188 -150.95117188 262.24609375 C-150.96284397 265.16411647 -150.97921674 268.08203037 -151 271 C-152.72445557 268.41331664 -153.59222367 266.59799599 -154.55078125 263.7109375 C-154.834375 262.86104248 -155.11796875 262.01114746 -155.41015625 261.13549805 C-155.70792969 260.22453369 -156.00570313 259.31356934 -156.3125 258.375 C-156.62445313 257.42858643 -156.93640625 256.48217285 -157.2578125 255.50708008 C-159.76590732 247.84023159 -162.09574277 240.13299733 -164.31689453 232.37890625 C-166.27071456 225.57475243 -168.26325055 218.78172917 -170.25390625 211.98828125 C-171.34515771 208.26207128 -172.41635124 204.53141666 -173.46484375 200.79296875 C-177.60510115 186.23478151 -182.60087565 171.26298371 -190 158 C-190.66 157.67 -191.32 157.34 -192 157 C-191.74605469 157.80179688 -191.49210938 158.60359375 -191.23046875 159.4296875 C-182.18565413 189.30806389 -182.67648995 220.70946601 -182.80438232 251.63568115 C-182.81539048 255.01137647 -182.81484537 258.3870328 -182.81424427 261.762743 C-182.81451474 265.02423248 -182.81997 268.2856956 -182.82724571 271.54717636 C-182.83042362 273.09819211 -182.83239774 274.64921082 -182.83313942 276.20022964 C-182.83529158 278.33812981 -182.84400005 280.47589757 -182.85473633 282.61376953 C-182.85854813 283.82694855 -182.86235992 285.04012756 -182.86628723 286.29006958 C-183 289 -183 289 -184 290 C-184.25242539 291.79860191 -184.44510534 293.60563659 -184.61328125 295.4140625 C-184.72454346 296.55584961 -184.83580566 297.69763672 -184.95043945 298.87402344 C-185.12965942 300.73075684 -185.12965942 300.73075684 -185.3125 302.625 C-187.92098039 327.99766777 -191.99274693 353.99191351 -201.5 377.8125 C-203.51230224 383.06152119 -204.71613274 388.53673508 -206 394 C-206.66 394 -207.32 394 -208 394 C-208.09796875 394.72703125 -208.1959375 395.4540625 -208.296875 396.203125 C-209.42719102 403.80352585 -211.36578393 410.78787445 -214 418 C-214.66 418 -215.32 418 -216 418 C-216.10054687 419.28777344 -216.20109375 420.57554687 -216.3046875 421.90234375 C-216.88477332 427.08370267 -218.37537109 431.67223287 -220.125 436.5625 C-226.06913998 453.85370254 -230.96266704 471.21400758 -234.79223633 489.09472656 C-242.14750452 523.09833635 -242.14750452 523.09833635 -248 527 C-249.01396473 529.38210306 -249.88457392 531.67498387 -250.6875 534.125 C-250.91244141 534.78371094 -251.13738281 535.44242188 -251.36914062 536.12109375 C-251.921968 537.74428901 -252.46221309 539.37175979 -253 541 C-252.34 541.33 -251.68 541.66 -251 542 C-254.465 549.92 -254.465 549.92 -258 558 C-258.66 558 -259.32 558 -260 558 C-260.10054687 558.55042969 -260.20109375 559.10085938 -260.3046875 559.66796875 C-263.15086203 569.21384624 -270.94385214 577.82572388 -279.4375 582.75 C-291.55249354 588.97176787 -301.93868901 589.11507907 -315 585 C-320.54087388 582.76597108 -325.75679835 579.84654107 -331 577 C-343.44986587 570.44820361 -356.33862058 565.22346329 -369.40722656 560.04638672 C-383.70961668 554.38051127 -397.44350145 548.43152967 -409 538 C-409.71800781 537.36320313 -410.43601562 536.72640625 -411.17578125 536.0703125 C-422.8607129 525.11156304 -426.9679076 511.46607351 -428.5078125 495.95703125 C-428.67023438 494.98121094 -428.83265625 494.00539063 -429 493 C-429.66 492.67 -430.32 492.34 -431 492 C-430.63648438 491.1028125 -430.27296875 490.205625 -429.8984375 489.28125 C-429.39014273 488.02102774 -428.88237436 486.7605931 -428.375 485.5 C-428.10212158 484.82219482 -427.82924316 484.14438965 -427.5480957 483.44604492 C-425.92930224 479.39975961 -424.37839546 475.33706366 -422.890625 471.2409668 C-419.83022088 462.84717092 -416.27385136 454.73786026 -412.5546875 446.6171875 C-410.68660536 442.53508209 -408.8675329 438.43410663 -407.0703125 434.3203125 C-402.40351805 423.65388711 -397.73380812 413.07532297 -392.14575195 402.85546875 C-389.63208575 398.25229265 -387.36726846 393.5819985 -385.1875 388.8125 C-378.63149263 374.56604872 -370.77934022 360.92100882 -362.9140625 347.36328125 C-360.77960634 343.61273685 -358.71691957 339.82681275 -356.65527344 336.03588867 C-345.77448616 316.07975449 -334.75088756 296.19069207 -322.75 276.8828125 C-320.6234806 273.37975153 -318.68253337 269.79798905 -316.74609375 266.1875 C-309.87303105 253.64070098 -302.47532936 241.3698797 -295.20751953 229.04882812 C-294.04134383 227.0701491 -292.87758122 225.09007605 -291.71484375 223.109375 C-285.87424404 213.16187258 -279.9974787 203.23592457 -274.11279297 193.31445312 C-270.28406864 186.85863938 -266.46408123 180.39777988 -262.65405273 173.9309082 C-257.52528234 165.23054538 -252.35416596 156.56411289 -247 148 C-246.47712402 147.16307617 -245.95424805 146.32615234 -245.41552734 145.46386719 C-244.82852051 144.52446289 -244.24151367 143.58505859 -243.63671875 142.6171875 C-243.01764648 141.6257373 -242.39857422 140.63428711 -241.76074219 139.61279297 C-240.45949349 137.5337302 -239.15413472 135.45723434 -237.84472656 133.38330078 C-234.66085505 128.32864875 -231.54669071 123.25821141 -228.59765625 118.0625 C-222.30511169 107.09973708 -217.6653713 100.46559355 -206 95 C-203.45488735 93.56180513 -200.95031867 92.05624389 -198.4375 90.5625 C-191.66973943 86.63704523 -191.66973943 86.63704523 -188 86 C-188 85.34 -188 84.68 -188 84 C-181.3125 80.65625 -174.625 77.3125 -167.9375 73.96875 C-167.286604 73.64326172 -166.63570801 73.31777344 -165.96508789 72.98242188 C-164.64409149 72.32200573 -163.322963 71.66185373 -162.00170898 71.00195312 C-158.67641918 69.34072496 -155.35347716 67.67510999 -152.03515625 66 C-143.11592036 61.50472267 -134.12678211 57.18276496 -125.07275391 52.96582031 C-123.0407185 52.01897319 -121.01036008 51.06862123 -118.98046875 50.1171875 C-97.5835465 40.09492708 -75.97678781 30.50000843 -54 21.8125 C-49.73581204 20.12326066 -45.53542544 18.36784149 -41.375 16.4375 C-34.02833189 13.04007174 -26.44280823 10.2838005 -18.86328125 7.45703125 C-17.80693481 7.06245728 -17.80693481 7.06245728 -16.72924805 6.65991211 C-15.36817635 6.15221452 -14.00640386 5.64639004 -12.64379883 5.14282227 C-9.42533239 3.94568226 -6.27199449 2.67995912 -3.1484375 1.2578125 C-2.10945313 0.84273437 -1.07046875 0.42765625 0 0 Z " fill="#606873" transform="translate(617,160)"/>
<path d="M0 0 C3.87847979 3.48904932 5.26797078 7.8072084 7.1875 12.5625 C7.58114746 13.53558105 7.97479492 14.50866211 8.38037109 15.51123047 C19.08419828 42.58208102 26.107769 71.34179847 31 100 C31.17128418 100.98033203 31.34256836 101.96066406 31.51904297 102.97070312 C33.76693046 115.91690764 35.51513613 128.79691451 36.56640625 141.89453125 C36.87660375 145.73797138 37.29215815 149.55247926 37.78248596 153.37660217 C38.75880469 161.21604092 39.25604194 169.02777783 39.53125 176.921875 C39.57327042 178.11557709 39.61529083 179.30927917 39.65858459 180.53915405 C40.01018677 191.49592528 40.14512586 202.45246521 40.24609375 213.4140625 C40.25867816 214.75945288 40.25867816 214.75945288 40.2715168 216.13202286 C40.34874243 224.5081955 40.41908766 232.88441168 40.47680664 241.26074219 C40.61196666 260.40505835 40.82762663 279.40788212 42.53881836 298.48730469 C43.27251217 306.74973728 43.41813448 315.02269116 43.5625 323.3125 C43.60725289 325.64331878 43.65428448 327.97404301 43.70530701 330.30473328 C43.75027922 332.38315543 43.78863779 334.46171784 43.82641602 336.5402832 C43.92472279 339.8763951 44.17155093 343.18248877 44.45458984 346.5078125 C45.30010515 357.09457798 45.58348227 367.71295343 45.97265625 378.32421875 C46.06073756 380.68065518 46.14899231 383.03708513 46.2374115 385.39350891 C46.42137469 390.31118993 46.60356746 395.22893228 46.78442383 400.14672852 C47.01562919 406.43094944 47.25078631 412.7150149 47.48720646 418.99904156 C47.66963155 423.85729303 47.85020867 428.71561182 48.03021049 433.57395363 C48.11621802 435.890683 48.20273419 438.20739355 48.28978157 440.52408409 C48.41125033 443.76558443 48.53028581 447.00716545 48.64868164 450.2487793 C48.68451355 451.19293198 48.72034546 452.13708466 48.75726318 453.10984802 C48.94547783 458.34102063 49.0149458 463.55766385 48.99555111 468.79203129 C49.00093257 471.46283327 49.11347871 474.11603551 49.27539062 476.78173828 C49.33545288 477.79624054 49.39551514 478.8107428 49.45739746 479.85598755 C49.5230188 480.91671478 49.58864014 481.97744202 49.65625 483.0703125 C49.72283813 484.19138397 49.78942627 485.31245544 49.85803223 486.46749878 C50.06923101 490.02017285 50.28422039 493.57260142 50.5 497.125 C50.71556958 500.68455057 50.93022486 504.2441442 51.14196777 507.80392456 C51.27322907 510.01005527 51.40665782 512.21605845 51.54260254 514.42190552 C51.87255601 519.96046553 52.06975918 525.4516538 52 531 C38.52900461 531.12487704 25.11843133 530.82506199 11.66186523 530.20043945 C8.67255749 530.06180702 5.68301216 529.92978853 2.69335938 529.79882812 C-2.03724918 529.58952515 -6.76650136 529.35902658 -11.4956665 529.11950684 C-13.76300453 529.01130943 -16.0298205 528.92518445 -18.29833984 528.84667969 C-26.73617766 528.46791308 -34.03286847 526.89315653 -42 524.125 C-43.06605469 523.77308594 -44.13210938 523.42117188 -45.23046875 523.05859375 C-50.60841511 521.26149118 -55.80739685 519.26824903 -61 517 C-63.63042496 516.01746093 -66.28288918 515.10233785 -68.9375 514.1875 C-80.34999642 510.20220366 -91.68826343 506.06115995 -102.8203125 501.33984375 C-105.20496194 500.33500989 -107.59358862 499.34933608 -109.9921875 498.37890625 C-110.70640869 498.08878662 -111.42062988 497.79866699 -112.15649414 497.49975586 C-113.51909807 496.94690682 -114.88273953 496.39660206 -116.24780273 495.84985352 C-121.56268386 493.68491788 -126.75360614 491.27142983 -131.94610596 488.83132935 C-136.67768614 486.60980273 -141.4273118 484.43211369 -146.19140625 482.28125 C-146.8784816 481.97061615 -147.56555695 481.6599823 -148.27345276 481.3399353 C-151.07104313 480.0755331 -153.86903535 478.81204704 -156.66870117 477.55224609 C-165.12765289 473.74360627 -173.49379489 469.8116986 -181.77270508 465.62548828 C-186.50298123 463.24299501 -191.27985224 460.96251936 -196.0625 458.6875 C-197.03638672 458.22239014 -198.01027344 457.75728027 -199.01367188 457.27807617 C-203.87701913 454.95682599 -208.74530192 452.64655763 -213.62109375 450.3515625 C-221.28957742 446.73564171 -228.93088981 443.12434069 -236.375 439.0625 C-243.88481841 434.97307773 -251.58534488 431.31941215 -259.32177734 427.67993164 C-260.74804443 427.00692017 -260.74804443 427.00692017 -262.203125 426.3203125 C-263.05551758 425.92086426 -263.90791016 425.52141602 -264.78613281 425.10986328 C-267 424 -267 424 -270 422 C-267.21546718 409.98629744 -263.73350131 398.26084376 -259.93652344 386.53125 C-258.98718367 383.58522795 -258.06007508 380.63272205 -257.1328125 377.6796875 C-256.52738757 375.79904535 -255.92066599 373.91882002 -255.3125 372.0390625 C-255.03946045 371.15900543 -254.7664209 370.27894836 -254.48510742 369.3722229 C-254.21802979 368.56312469 -253.95095215 367.75402649 -253.67578125 366.92041016 C-253.3341394 365.85362534 -253.3341394 365.85362534 -252.9855957 364.76528931 C-251.71779035 362.49453749 -250.37389197 361.94563496 -248 361 C-247.91363281 361.99257813 -247.82726562 362.98515625 -247.73828125 364.0078125 C-245.97351421 381.92186286 -240.14490818 397.21257652 -226 409 C-212.09781278 419.26113819 -196.13276683 426.05739862 -180 432 C-168.0497238 436.52880127 -156.6175319 441.81700653 -145.40625 447.9609375 C-136.94007196 452.48004605 -129.45729399 454.74715801 -120 456 C-119.24074219 456.11472656 -118.48148438 456.22945312 -117.69921875 456.34765625 C-109.19776706 457.03410887 -100.12233199 451.79534326 -93.734375 446.58203125 C-87.53183268 440.92430684 -83.79943446 434.45066403 -80 427 C-79.34 427 -78.68 427 -78 427 C-77.81824219 426.43152344 -77.63648438 425.86304688 -77.44921875 425.27734375 C-76.21328028 421.48079431 -74.9547243 417.80120128 -73.25 414.1875 C-71.71538706 411.25053378 -71.71538706 411.25053378 -72.5625 409.1875 C-73.21572885 405.92135575 -72.03305309 403.83947296 -70.75 400.8125 C-70.31171875 399.74644531 -69.8734375 398.68039062 -69.421875 397.58203125 C-68 395 -68 395 -65 394 C-64.11480101 392.04010429 -64.11480101 392.04010429 -63.58984375 389.5390625 C-63.34218262 388.54036133 -63.09452148 387.54166016 -62.83935547 386.51269531 C-62.56236816 385.35350586 -62.28538086 384.19431641 -62 383 C-61.6638417 381.66447816 -61.32534753 380.32954271 -60.98486328 378.99511719 C-60.02787349 375.24060355 -59.08551439 371.48261268 -58.14819336 367.72314453 C-57.56864198 365.39962425 -56.98660371 363.0767373 -56.40429688 360.75390625 C-56.02051021 359.21883075 -55.63704635 357.68367451 -55.25390625 356.1484375 C-55.06389542 355.38711014 -54.87388458 354.62578278 -54.67811584 353.84138489 C-53.57080972 349.37848358 -52.5133522 344.90709243 -51.49008179 340.42424011 C-49.52101718 331.82976787 -47.1237284 323.46545731 -44.4375 315.0625 C-43.66499008 312.61600364 -42.89284736 310.1693913 -42.12109375 307.72265625 C-41.75870605 306.57812988 -41.39631836 305.43360352 -41.02294922 304.25439453 C-38.3208128 295.68125023 -38.3208128 295.68125023 -36 287 C-35.34 287 -34.68 287 -34 287 C-33.72736328 285.90945313 -33.72736328 285.90945313 -33.44921875 284.796875 C-31.6328125 277.53125 -29.81640625 270.265625 -28 263 C-27.34 263 -26.68 263 -26 263 C-25.814375 261.824375 -25.814375 261.824375 -25.625 260.625 C-24.10215536 251.79250108 -22.0603239 243.95528327 -18.62109375 235.68359375 C-16.2673998 229.36727804 -14.95323958 222.75581393 -13.5 216.1875 C-13.26889023 215.15147141 -13.26889023 215.15147141 -13.03311157 214.09451294 C-9.47860802 198.11715696 -6.93469135 182.35312498 -5.64526367 166.02905273 C-5.57412354 165.14161377 -5.5029834 164.2541748 -5.4296875 163.33984375 C-5.34050049 162.15442993 -5.34050049 162.15442993 -5.24951172 160.94506836 C-5 159 -5 159 -4 157 C-3.89780357 154.86591048 -3.86156171 152.72856521 -3.85473633 150.59204102 C-3.85137772 149.93286179 -3.8480191 149.27368256 -3.84455872 148.5945282 C-3.83500881 146.39763525 -3.83310101 144.20081874 -3.83203125 142.00390625 C-3.82881224 140.45718862 -3.8254477 138.91047129 -3.82194519 137.36375427 C-3.81593756 134.09934795 -3.81410605 130.8349681 -3.81469727 127.57055664 C-3.81477735 124.27655402 -3.80803421 120.98269394 -3.79418945 117.6887207 C-3.66531689 86.57267634 -5.09992054 56.43864839 -12 26 C-9 27 -9 27 -7.83666992 28.95507812 C-7.28910034 30.2302832 -7.28910034 30.2302832 -6.73046875 31.53125 C-6.31966064 32.47782471 -5.90885254 33.42439941 -5.4855957 34.3996582 C-5.05722412 35.422771 -4.62885254 36.44588379 -4.1875 37.5 C-3.74172607 38.55082764 -3.29595215 39.60165527 -2.83666992 40.68432617 C3.04685932 54.69817274 7.53789884 68.639732 11.39306641 83.34375 C13.27372374 90.47176324 15.37774241 97.45331631 17.79199219 104.41650391 C20.12799076 111.20657762 22.08254218 118.0913972 23.99633789 125.01098633 C25.13694323 129.10967971 26.29166725 133.09178593 28 137 C28.39227556 122.47976935 27.72162689 108.56522837 25.36279297 94.22607422 C25.07127205 92.43732072 24.81336386 90.64310479 24.56640625 88.84765625 C23.56892464 82.17378446 21.46311546 75.87223814 19.38793945 69.47119141 C17.58530408 63.90874247 15.91917985 58.32706066 14.375 52.6875 C14.17173096 51.94709473 13.96846191 51.20668945 13.7590332 50.44384766 C13.17107496 48.29633553 12.5854186 46.1482056 12 44 C11.2992835 41.43522958 10.58968847 38.87346701 9.875 36.3125 C9.58367187 35.25675781 9.29234375 34.20101562 8.9921875 33.11328125 C8.03411301 29.92335524 8.03411301 29.92335524 6.55078125 26.67578125 C4.77798943 22.47377345 3.51770531 18.26617099 2.3125 13.875 C2.08755859 13.08996094 1.86261719 12.30492187 1.63085938 11.49609375 C0.54361383 7.57672226 -0.30532623 4.10952599 0 0 Z " fill="#424B54" transform="translate(437,291)"/>
<path d="M0 0 C13.00321754 1.18371681 25.58532993 3.65355963 38.33544922 6.42578125 C41.61270416 7.1320396 44.89794483 7.79113126 48.1875 8.4375 C85.41455457 15.85761507 85.41455457 15.85761507 96.46875 19.04296875 C100.7252589 20.196558 105.01250311 21.16844909 109.31152344 22.15014648 C115.30361287 23.53077021 121.2797074 24.97673703 127.25585938 26.42456055 C129.36546449 26.93519192 131.47568769 27.4432123 133.5859375 27.95117188 C147.49865483 31.31141079 161.28820237 35.0130242 175 39.125 C177.31241524 39.81538812 179.62491275 40.50550076 181.9375 41.1953125 C183.51917969 41.66759277 183.51917969 41.66759277 185.1328125 42.14941406 C188.41553219 43.12327266 191.70441836 44.07072262 195 45 C192.80593061 53.33746368 188.60047937 60.06070688 184.06298828 67.29394531 C183.14648411 68.76489873 182.2562098 70.25213601 181.37109375 71.7421875 C180.30511555 73.53048525 179.16295157 75.27319312 178 77 C177.34 77 176.68 77 176 77 C175.74347656 77.56460938 175.48695313 78.12921875 175.22265625 78.7109375 C171.17835522 86.28269599 164.56520191 92.7029029 158.78515625 98.96875 C156.95554062 100.8768145 156.95554062 100.8768145 156 103 C155.34 103 154.68 103 154 103 C153.72414063 103.59167969 153.44828125 104.18335938 153.1640625 104.79296875 C150.60711569 109.64087127 146.7145149 113.48118998 142.5625 117 C138.30713661 120.60762985 134.42021543 124.53747663 130.5 128.5 C126.0804168 132.95845566 121.67411005 137.35182944 116.875 141.40625 C114.59616622 143.34325871 112.39675343 145.35905625 110.1875 147.375 C95.06163941 161 95.06163941 161 92 161 C92 161.66 92 162.32 92 163 C89.66268139 164.91842255 87.31565371 166.72103957 84.875 168.5 C84.15812012 169.02883789 83.44124023 169.55767578 82.70263672 170.10253906 C80.47363563 171.74227528 78.23730526 173.37161891 76 175 C75.30712891 175.50853516 74.61425781 176.01707031 73.90039062 176.54101562 C71.97971435 177.95025818 70.05379302 179.35189373 68.125 180.75 C67.53702637 181.17990234 66.94905273 181.60980469 66.34326172 182.05273438 C62.23292226 185 62.23292226 185 60 185 C60 185.66 60 186.32 60 187 C57.69663066 188.66754343 55.39384859 190.22246169 53 191.75 C48.67192127 194.55711457 44.42038942 197.35274122 40.375 200.5625 C37.65433488 202.67131248 35.53184042 203.77925997 32 204 C32 204.66 32 205.32 32 206 C28.75826116 207.92960645 26.62264755 209 22.8125 209 C19.14836972 207.69719812 18.73119514 206.43439252 17 203 C9.70886795 180.69771374 9.28412303 156.82130202 8.17877579 133.60110474 C7.82099831 126.17450765 7.43290068 118.74939091 7.046875 111.32421875 C7.00431391 110.50042095 6.96175282 109.67662315 6.91790199 108.82786179 C6.09853809 93.0340554 5.01004695 77.26986797 3.8125 61.5 C2.54643714 44.80301988 1.51476794 28.15350922 1.23950195 11.40820312 C1.21847412 10.17263672 1.19744629 8.93707031 1.17578125 7.6640625 C1.16458252 6.60654785 1.15338379 5.5490332 1.1418457 4.45947266 C1.16216501 1.99518605 1.16216501 1.99518605 0 0 Z " fill="#606873" transform="translate(818,85)"/>
<path d="M0 0 C0.66 0.33 1.32 0.66 2 1 C-7.51855074 6.66002413 -17.09415583 12.20212505 -26.75 17.625 C-33.89939872 21.64168659 -40.97469958 25.71167976 -47.890625 30.12109375 C-51.54159233 32.32726873 -55.27379995 34.35156471 -59.02441406 36.38256836 C-63.95802153 39.06431676 -68.8523075 41.81587123 -73.75 44.5625 C-74.82548096 45.16457275 -75.90096191 45.76664551 -77.0090332 46.38696289 C-82.4314126 49.42547794 -87.84609408 52.47655922 -93.24609375 55.5546875 C-102.23710652 60.67716795 -111.19817649 65.73432651 -120.5 70.2734375 C-128.08597722 74.01562716 -135.53912779 78.01580792 -143 82 C-143.80646973 82.42748535 -144.61293945 82.8549707 -145.44384766 83.29541016 C-166.55109654 94.35436796 -166.55109654 94.35436796 -179 114 C-180.57033536 124.56729433 -179.87512335 133.69008632 -177 144 C-176.75894531 144.90492188 -176.51789063 145.80984375 -176.26953125 146.7421875 C-175.0905044 150.92415013 -173.65772026 154.9224133 -172 158.9375 C-170.29647104 163.10025874 -169.03551221 167.23702069 -167.90234375 171.5859375 C-166.72161932 176.05326717 -165.45640028 180.49453458 -164.1875 184.9375 C-163.93073486 185.84266357 -163.67396973 186.74782715 -163.40942383 187.68041992 C-162.1240634 192.18532105 -160.80244874 196.67217787 -159.3828125 201.13671875 C-155.8400558 212.33545122 -153.39550916 223.3328795 -152 235 C-151.85534302 236.13719482 -151.85534302 236.13719482 -151.70776367 237.29736328 C-150.88562809 244.41002705 -150.88566754 251.47212094 -150.9375 258.625 C-150.94201172 259.81996094 -150.94652344 261.01492188 -150.95117188 262.24609375 C-150.96284397 265.16411647 -150.97921674 268.08203037 -151 271 C-152.72445557 268.41331664 -153.59222367 266.59799599 -154.55078125 263.7109375 C-154.834375 262.86104248 -155.11796875 262.01114746 -155.41015625 261.13549805 C-155.70792969 260.22453369 -156.00570313 259.31356934 -156.3125 258.375 C-156.62445313 257.42858643 -156.93640625 256.48217285 -157.2578125 255.50708008 C-159.76590732 247.84023159 -162.09574277 240.13299733 -164.31689453 232.37890625 C-166.27071456 225.57475243 -168.26325055 218.78172917 -170.25390625 211.98828125 C-171.34515771 208.26207128 -172.41635124 204.53141666 -173.46484375 200.79296875 C-179.7563249 178.65183661 -189.18118247 145.95393091 -210 133 C-213.13754256 132.92959231 -215.15826072 133.24663334 -217.54174805 135.37988281 C-219.19945751 137.27967633 -220.73229 139.23658912 -222.25 141.25 C-223.10404419 142.34308472 -223.10404419 142.34308472 -223.9753418 143.45825195 C-225.66523801 145.62772292 -227.33370649 147.81237925 -229 150 C-229.83305627 151.07284264 -230.66752499 152.14459122 -231.50390625 153.21484375 C-233.52940401 155.82297199 -235.53446082 158.44543424 -237.53173828 161.07519531 C-239.24016355 163.31484027 -240.9618766 165.54399527 -242.68359375 167.7734375 C-265.33170513 197.17983142 -285.58056622 228.13739999 -304.328125 260.15332031 C-306.04326549 263.07366759 -307.76984143 265.98696511 -309.5 268.8984375 C-310.07564697 269.8680542 -310.65129395 270.8376709 -311.24438477 271.83666992 C-312.33218885 273.66829045 -313.42112347 275.49924028 -314.51147461 277.3293457 C-318.15507614 283.47634619 -321.61310173 289.70834157 -325 296 C-325.52053955 296.96494385 -326.0410791 297.9298877 -326.57739258 298.92407227 C-327.65000376 300.91294349 -328.72234989 302.90195768 -329.79443359 304.89111328 C-338.05180831 320.20099764 -338.05180831 320.20099764 -341.875 326.625 C-344.97250452 331.83339649 -347.65105259 337.21339098 -350.328125 342.64453125 C-353.38739723 348.78451921 -356.73584486 354.7606097 -360.10546875 360.734375 C-365.97755303 371.17963802 -371.55626521 381.76077395 -377.00195312 392.43359375 C-380.0561842 398.38776639 -383.24369058 404.18676501 -386.73583984 409.89501953 C-388.20728315 412.34515166 -389.4730105 414.8511619 -390.6875 417.4375 C-393.64344557 423.46396267 -396.99024787 429.20887982 -400.39135742 434.98999023 C-403.26454087 439.90903098 -406.03551219 444.87337284 -408.71875 449.8984375 C-409.03303955 450.48670319 -409.3473291 451.07496887 -409.67114258 451.68106079 C-411.22846208 454.60133504 -412.77650989 457.52603777 -414.31640625 460.45556641 C-414.88230469 461.52210449 -415.44820312 462.58864258 -416.03125 463.6875 C-416.53205078 464.64011719 -417.03285156 465.59273437 -417.54882812 466.57421875 C-418.8581447 468.76287445 -420.10485692 470.31605414 -422 472 C-421.27165963 467.0027758 -419.37822646 462.52788935 -417.5 457.875 C-417.14397705 456.98973633 -416.7879541 456.10447266 -416.42114258 455.19238281 C-413.35666852 447.67844468 -409.95132374 440.3627898 -406.421875 433.05859375 C-403.21821824 426.41696319 -400.18879965 419.69507623 -397.15698242 412.97363281 C-391.10607069 399.6609377 -384.38868658 386.68473706 -377.51782227 373.78027344 C-376.43113865 371.73804498 -375.34921499 369.69334251 -374.26757812 367.6484375 C-370.53215636 360.60776999 -366.68539391 353.6625725 -362.63232422 346.79785156 C-360.52395027 343.18403681 -358.52731531 339.51552587 -356.53662109 335.8359375 C-345.74694902 315.92287254 -334.70732208 296.12060084 -322.75 276.8828125 C-320.6234806 273.37975153 -318.68253337 269.79798905 -316.74609375 266.1875 C-309.87303105 253.64070098 -302.47532936 241.3698797 -295.20751953 229.04882812 C-294.04134383 227.0701491 -292.87758122 225.09007605 -291.71484375 223.109375 C-285.87424404 213.16187258 -279.9974787 203.23592457 -274.11279297 193.31445312 C-270.28406864 186.85863938 -266.46408123 180.39777988 -262.65405273 173.9309082 C-257.52528234 165.23054538 -252.35416596 156.56411289 -247 148 C-246.47712402 147.16307617 -245.95424805 146.32615234 -245.41552734 145.46386719 C-244.82852051 144.52446289 -244.24151367 143.58505859 -243.63671875 142.6171875 C-243.01764648 141.6257373 -242.39857422 140.63428711 -241.76074219 139.61279297 C-240.45949349 137.5337302 -239.15413472 135.45723434 -237.84472656 133.38330078 C-234.66085505 128.32864875 -231.54669071 123.25821141 -228.59765625 118.0625 C-222.30511169 107.09973708 -217.6653713 100.46559355 -206 95 C-203.45488735 93.56180513 -200.95031867 92.05624389 -198.4375 90.5625 C-191.66973943 86.63704523 -191.66973943 86.63704523 -188 86 C-188 85.34 -188 84.68 -188 84 C-181.3125 80.65625 -174.625 77.3125 -167.9375 73.96875 C-167.286604 73.64326172 -166.63570801 73.31777344 -165.96508789 72.98242188 C-164.64409149 72.32200573 -163.322963 71.66185373 -162.00170898 71.00195312 C-158.67641918 69.34072496 -155.35347716 67.67510999 -152.03515625 66 C-143.11592036 61.50472267 -134.12678211 57.18276496 -125.07275391 52.96582031 C-123.0407185 52.01897319 -121.01036008 51.06862123 -118.98046875 50.1171875 C-97.5835465 40.09492708 -75.97678781 30.50000843 -54 21.8125 C-49.73581204 20.12326066 -45.53542544 18.36784149 -41.375 16.4375 C-34.02833189 13.04007174 -26.44280823 10.2838005 -18.86328125 7.45703125 C-17.80693481 7.06245728 -17.80693481 7.06245728 -16.72924805 6.65991211 C-15.36817635 6.15221452 -14.00640386 5.64639004 -12.64379883 5.14282227 C-9.42533239 3.94568226 -6.27199449 2.67995912 -3.1484375 1.2578125 C-2.10945313 0.84273437 -1.07046875 0.42765625 0 0 Z " fill="#98A2AC" transform="translate(617,160)"/>
<path d="M0 0 C0 4.26875608 -2.4354427 6.56308029 -4.9375 9.8125 C-9.59862328 16.00337353 -13.89687728 22.32420338 -18.02734375 28.87890625 C-19.37758854 31.01523414 -20.7679422 33.126589 -22.19140625 35.21484375 C-24.11201328 37.91695206 -24.11201328 37.91695206 -25 41 C-24.34 41 -23.68 41 -23 41 C-23.97053199 44.77429109 -24.77248148 45.8593163 -28.15234375 47.94921875 C-33.44943401 51.61925349 -35.96646361 57.08347319 -39 62.625 C-39.6386499 63.76130859 -40.2772998 64.89761719 -40.93530273 66.06835938 C-42.63052714 69.08566671 -44.30608962 72.1134194 -45.97625732 75.14465332 C-47.67507687 78.22345357 -49.38705128 81.29492479 -51.09765625 84.3671875 C-53.03856771 87.85397214 -54.97581276 91.34253968 -56.90039062 94.83837891 C-61.73413157 103.60858757 -66.85021444 112.17737026 -72.125 120.6875 C-74.16631709 123.99065204 -76.19242675 127.28444826 -78.0625 130.6875 C-80.3365853 134.57545229 -82.89289396 138.20141275 -85.51171875 141.86328125 C-87.01891645 143.91763418 -87.01891645 143.91763418 -88 146 C-88.66 146 -89.32 146 -90 146 C-90.2475 146.70125 -90.495 147.4025 -90.75 148.125 C-92.17180238 151.39514548 -93.87246288 154.141122 -96 157 C-96.66 157 -97.32 157 -98 157 C-98.37511719 157.82177734 -98.37511719 157.82177734 -98.7578125 158.66015625 C-100.23925148 161.45066552 -102.00385613 163.89203824 -103.875 166.4375 C-104.55304688 167.36433594 -105.23109375 168.29117188 -105.9296875 169.24609375 C-106.61289062 170.15488281 -107.29609375 171.06367188 -108 172 C-109.05574219 173.40958984 -109.05574219 173.40958984 -110.1328125 174.84765625 C-110.74898437 175.55792969 -111.36515625 176.26820313 -112 177 C-112.66 177 -113.32 177 -114 177 C-114.21398437 177.52078125 -114.42796875 178.0415625 -114.6484375 178.578125 C-116.55974279 182.00300732 -119.05772178 184.79832071 -121.625 187.75 C-122.16261963 188.37253662 -122.70023926 188.99507324 -123.25415039 189.63647461 C-127.31089503 194.29624066 -131.53223647 198.73103625 -136 203 C-139.47106361 206.38841924 -142.62257762 209.87596016 -145.66796875 213.64453125 C-146.10753906 214.09183594 -146.54710937 214.53914062 -147 215 C-147.66 215 -148.32 215 -149 215 C-149 215.66 -149 216.32 -149 217 C-151.37313144 219.5765427 -153.80067829 221.84443183 -156.5625 224 C-159.12561732 225.96023318 -159.12561732 225.96023318 -161.1875 228.75 C-161.785625 229.4925 -162.38375 230.235 -163 231 C-163.66 231 -164.32 231 -165 231 C-164.41523944 223.90593106 -163.36766005 216.98436101 -162 210 C-162.99 210.99 -162.99 210.99 -164 212 C-166.625 212.125 -166.625 212.125 -169 212 C-170.24273788 193.77317773 -158.29995158 177.15489096 -149.31738281 162.21582031 C-147.92462556 159.8732212 -146.5648101 157.51370483 -145.2109375 155.1484375 C-144.75702637 154.36009521 -144.30311523 153.57175293 -143.83544922 152.75952148 C-142.95928381 151.23608288 -142.08832722 149.70963419 -141.22314453 148.17993164 C-140.2042702 146.41996294 -139.1092717 144.70443862 -138 143 C-137.34 143 -136.68 143 -136 143 C-135.59974609 141.89011719 -135.59974609 141.89011719 -135.19140625 140.7578125 C-134.02375558 138.05498832 -132.77451906 136.15933103 -130.9375 133.875 C-130.01904297 132.72451172 -130.01904297 132.72451172 -129.08203125 131.55078125 C-126.00798222 127.78463863 -122.92476484 124.0262844 -119.8203125 120.28515625 C-117.98555784 118.14402141 -117.98555784 118.14402141 -117 116 C-116.34 116 -115.68 116 -115 116 C-114.77054688 115.30777344 -114.54109375 114.61554688 -114.3046875 113.90234375 C-112.7177381 110.37209404 -110.53801295 107.55136475 -108.125 104.5625 C-107.64321289 103.95776855 -107.16142578 103.35303711 -106.66503906 102.72998047 C-101.6968549 96.53814503 -96.53707274 90.51266334 -91.32324219 84.52734375 C-90.12347206 83.14251683 -88.93968742 81.74388057 -87.7578125 80.34375 C-87.13648438 79.6115625 -86.51515625 78.879375 -85.875 78.125 C-85.35679687 77.50882812 -84.83859375 76.89265625 -84.3046875 76.2578125 C-83 75 -83 75 -81 75 C-80.79004395 74.46479736 -80.58008789 73.92959473 -80.36376953 73.37817383 C-78.4709196 70.07737698 -75.86640665 67.60116412 -73.1796875 64.94921875 C-72.60219757 64.37218704 -72.02470764 63.79515533 -71.42971802 63.20063782 C-70.20648633 61.98042338 -68.98082895 60.76263649 -67.75292969 59.54711914 C-65.89728973 57.7095724 -64.04961463 55.86431462 -62.203125 54.01757812 C-56.30267082 48.13502905 -50.36235378 42.38662289 -44 37 C-42.43388527 35.58733042 -40.8708353 34.17124656 -39.3125 32.75 C-33.87904292 27.84825738 -28.29818063 23.1346312 -22.6953125 18.42919922 C-20.97841163 16.98180035 -19.26943258 15.52554265 -17.5625 14.06640625 C-11.84251347 9.18291029 -6.09187193 4.41959336 0 0 Z " fill="#4A535C" transform="translate(680,149)"/>
<path d="M0 0 C0.08636719 0.99257813 0.17273438 1.98515625 0.26171875 3.0078125 C2.02648579 20.92186286 7.85509182 36.21257652 22 48 C35.90218722 58.26113819 51.86723317 65.05739862 68 71 C79.9502762 75.52880127 91.3824681 80.81700653 102.59375 86.9609375 C111.05992804 91.48004605 118.54270601 93.74715801 128 95 C128.75925781 95.11472656 129.51851562 95.22945312 130.30078125 95.34765625 C138.80223294 96.03410887 147.87766801 90.79534326 154.265625 85.58203125 C160.46816732 79.92430684 164.20056554 73.45066403 168 66 C168.66 66 169.32 66 170 66 C170.268125 65.21625 170.53625 64.4325 170.8125 63.625 C172 61 172 61 175 59 C174.51714418 68.65711645 171.28645261 78.49681463 165 86 C164.34596191 86.11077881 163.69192383 86.22155762 163.01806641 86.33569336 C160.78931743 86.81996627 160.78931743 86.81996627 159.78662109 89.11938477 C159.45227051 90.05065186 159.11791992 90.98191895 158.7734375 91.94140625 C158.38591309 92.9895752 157.99838867 94.03774414 157.59912109 95.11767578 C157.19516113 96.25446777 156.79120117 97.39125977 156.375 98.5625 C155.50306653 100.92691437 154.62798471 103.29016973 153.75 105.65234375 C153.30140625 106.86519043 152.8528125 108.07803711 152.390625 109.32763672 C150.18599341 115.14962906 147.79101879 120.88815336 145.375 126.625 C144.93720215 127.6672876 144.4994043 128.7095752 144.04833984 129.78344727 C143.03533664 132.19029881 142.01947156 134.59588281 141 137 C135.10858462 135.87263039 129.81913988 134.32025564 124.375 131.8125 C123.68535156 131.50280273 122.99570312 131.19310547 122.28515625 130.87402344 C117.23943097 128.59791245 112.21858375 126.26553179 107.21069336 123.9074707 C102.19445736 121.5457862 97.15306562 119.24192147 92.10717773 116.94433594 C83.56831958 113.05341051 75.08337451 109.11665221 66.71875 104.86328125 C61.82989265 102.39270159 56.88059892 100.04706659 51.9375 97.6875 C50.95450928 97.21787842 49.97151855 96.74825684 48.95874023 96.2644043 C44.10433879 93.94824163 39.24541149 91.64218651 34.37890625 89.3515625 C26.71042258 85.73564171 19.06911019 82.12434069 11.625 78.0625 C4.11518159 73.97307773 -3.58534488 70.31941215 -11.32177734 66.67993164 C-12.27262207 66.23125732 -13.2234668 65.78258301 -14.203125 65.3203125 C-15.48171387 64.72114014 -15.48171387 64.72114014 -16.78613281 64.10986328 C-19 63 -19 63 -22 61 C-19.22252885 48.97475092 -15.70386072 37.26203939 -11.8815918 25.53125 C-10.92430272 22.5843741 -9.98444587 19.63226872 -9.04492188 16.6796875 C-8.43594069 14.79914049 -7.82595305 12.91891903 -7.21484375 11.0390625 C-6.93664291 10.15900543 -6.65844208 9.27894836 -6.37181091 8.3722229 C-6.10465775 7.56312469 -5.83750458 6.75402649 -5.56225586 5.92041016 C-5.33227402 5.20922028 -5.10229218 4.4980304 -4.86534119 3.76528931 C-3.85784394 1.71000274 -2.55427089 0 0 0 Z " fill="#3A424B" transform="translate(189,652)"/>
<path d="M0 0 C0.33 0 0.66 0 1 0 C6.42083304 20.55543795 11.40313284 40.86280382 14 62 C14.10022461 62.69883301 14.20044922 63.39766602 14.30371094 64.11767578 C15.33700777 71.867402 15.24387661 79.69557888 15.25 87.5 C15.25067474 88.27654938 15.25134949 89.05309875 15.25204468 89.85317993 C15.23296128 103.76497355 14.14572568 117.24605615 12 131 C11.788463 132.39020839 11.57756272 133.78051377 11.3671875 135.17089844 C9.95876189 144.45536836 8.48530276 153.72689358 7 163 C-4.88 163 -16.76 163 -29 163 C-29 144.28832665 -29 144.28832665 -28.25 136.375 C-28.16057129 135.4144873 -28.07114258 134.45397461 -27.97900391 133.46435547 C-23.54087457 87.88845955 -13.9603973 43.56912237 0 0 Z " fill="#2D343C" transform="translate(727,661)"/>
<path d="M0 0 C0 3.24559851 -0.54300581 4.40500182 -2.01953125 7.2265625 C-2.45942383 8.08072754 -2.89931641 8.93489258 -3.35253906 9.81494141 C-3.83432617 10.74226074 -4.31611328 11.66958008 -4.8125 12.625 C-21.7722204 45.96286971 -33.00170435 80.21241702 -41.125 116.625 C-43.56063119 127.51267834 -46.55369157 138.12378738 -49.95800781 148.74609375 C-50.9283228 151.7761683 -51.88669324 154.80971748 -52.84204102 157.8445282 C-53.71451206 160.61127786 -54.59312889 163.37604775 -55.47351074 166.14028931 C-55.90006165 167.4806638 -56.32532342 168.82144938 -56.74914551 170.16268921 C-59.12871157 177.67600154 -61.73345226 184.98060092 -64.83935547 192.22387695 C-66.59213256 196.41631034 -68.04586606 200.69689796 -69.5 205 C-71.69519488 211.38052594 -74.00628614 217.64962575 -76.671875 223.8515625 C-78.43845983 228.03940771 -80.09777253 232.26595678 -81.75 236.5 C-82.05615234 237.27875488 -82.36230469 238.05750977 -82.67773438 238.85986328 C-82.96455078 239.5970459 -83.25136719 240.33422852 -83.546875 241.09375 C-83.80307617 241.75052734 -84.05927734 242.40730469 -84.32324219 243.08398438 C-85.01285878 245.03640539 -85.53029499 246.98441621 -86 249 C-86.66 249 -87.32 249 -88 249 C-85.13463574 232.97703688 -82.00084139 217.03814229 -78.54296875 201.1328125 C-76.94164622 193.76448927 -75.40057765 186.38433704 -73.875 179 C-73.62387451 177.78626709 -73.37274902 176.57253418 -73.11401367 175.32202148 C-71.83398107 169.11468795 -70.58147924 162.90303715 -69.36425781 156.68310547 C-67.96775335 149.55981774 -66.4520166 142.50573533 -64.63354492 135.47485352 C-63.30562402 130.31690252 -62.1101491 125.13516735 -60.93798828 119.93969727 C-51.83566016 79.73725457 -40.69225968 43.52779144 -12 13 C-10.7219949 11.54794751 -9.45041295 10.09019771 -8.1875 8.625 C-5.57359678 5.61467543 -2.86178319 2.77506249 0 0 Z " fill="#8C98A4" transform="translate(852,358)"/>
<path d="M0 0 C0.33 0 0.66 0 1 0 C4.17981307 30.92724981 1.26361137 62.91936109 -2 93.75 C-2.08358765 94.54487823 -2.16717529 95.33975647 -2.2532959 96.15872192 C-3.17759741 104.83574364 -4.25410445 113.44232581 -6 122 C-12.33788458 120.83805449 -17.82062163 118.93461054 -23.72265625 116.3671875 C-28.46136719 114.39037125 -33.30256382 112.76061027 -38.1640625 111.11328125 C-41 110 -41 110 -43 108 C-42.5937979 103.45668948 -40.68471215 99.25429458 -39.04296875 95.03515625 C-38.74393646 94.25775085 -38.44490417 93.48034546 -38.1368103 92.67938232 C-37.15795903 90.13875668 -36.17297718 87.60056215 -35.1875 85.0625 C-34.5056501 83.29847065 -33.82392926 81.53439142 -33.14233398 79.77026367 C-27.63335468 65.53590812 -21.99642565 51.355518 -16.28417969 37.20166016 C-15.08287961 34.20663179 -13.90015982 31.20519269 -12.7265625 28.19921875 C-8.93950184 18.52412359 -4.86736174 9.18714528 0 0 Z " fill="#39424B" transform="translate(384,686)"/>
<path d="M0 0 C0 4.26875608 -2.4354427 6.56308029 -4.9375 9.8125 C-9.59862328 16.00337353 -13.89687728 22.32420338 -18.02734375 28.87890625 C-19.37758854 31.01523414 -20.7679422 33.126589 -22.19140625 35.21484375 C-24.11201328 37.91695206 -24.11201328 37.91695206 -25 41 C-24.34 41 -23.68 41 -23 41 C-24.38609608 46.45527815 -27.8729941 48.50150333 -32.25 51.5625 C-37.91293192 55.66014176 -43.39505333 59.86929042 -48.6875 64.4375 C-49.25049805 64.920979 -49.81349609 65.40445801 -50.39355469 65.90258789 C-52.96760478 68.13915314 -55.38768877 70.39862498 -57.76953125 72.84765625 C-60 75 -60 75 -62 75 C-62.23074219 75.5671875 -62.46148438 76.134375 -62.69921875 76.71875 C-64.33335994 79.58463124 -66.33309884 81.32913002 -68.8125 83.5 C-69.66457031 84.2528125 -70.51664063 85.005625 -71.39453125 85.78125 C-73.07258389 87.21023636 -74.77703887 88.60906313 -76.51171875 89.96875 C-79.1987088 92.16221126 -81.55897731 94.53514739 -84 97 C-85.39976136 98.39169822 -86.79954534 99.78337392 -88.20001221 101.17436218 C-90.32724197 103.28813858 -92.45174293 105.40464936 -94.57617188 107.52124023 C-95.69834011 108.63833449 -96.82139746 109.75453627 -97.9453125 110.86987305 C-99.57525916 112.48773725 -101.20199561 114.10876898 -102.828125 115.73046875 C-103.33224915 116.22943161 -103.83637329 116.72839447 -104.35577393 117.24247742 C-107.01257455 119.86820556 -107.01257455 119.86820556 -109 123 C-109.66 123 -110.32 123 -111 123 C-111 123.66 -111 124.32 -111 125 C-111.54527344 125.54398437 -112.09054687 126.08796875 -112.65234375 126.6484375 C-115.70752733 129.70870458 -118.08456357 133.09090054 -120.5625 136.625 C-121.08408691 137.3662915 -121.60567383 138.10758301 -122.14306641 138.87133789 C-127.32060473 146.31746579 -132.06814968 154.00892174 -136.68920898 161.80981445 C-137.5948736 163.32307899 -138.51741863 164.82632267 -139.45336914 166.32104492 C-144.09072565 173.79729355 -147.58343851 181.65241063 -151.11914062 189.69335938 C-151.57869141 190.72138672 -152.03824219 191.74941406 -152.51171875 192.80859375 C-153.12213013 194.19776001 -153.12213013 194.19776001 -153.74487305 195.61499023 C-154.93942974 197.88490355 -156.0825832 199.32352244 -158 201 C-157.40834104 195.50911624 -156.03303443 190.73280792 -154.125 185.5625 C-153.86847656 184.85029297 -153.61195313 184.13808594 -153.34765625 183.40429688 C-151.6064256 178.58747541 -149.80490131 173.79325587 -148 169 C-147.34 169 -146.68 169 -146 169 C-145.91621094 168.17242187 -145.83242188 167.34484375 -145.74609375 166.4921875 C-144.83516431 162.2284654 -143.14218679 158.92663935 -141.0625 155.125 C-140.47057861 154.02321411 -140.47057861 154.02321411 -139.86669922 152.89916992 C-136.59935224 146.90305668 -133.06056702 141.0938274 -129.36352539 135.35400391 C-126.9893141 131.66100113 -124.95948177 127.93533805 -123 124 C-122.02234634 122.51237433 -121.0047 121.04975295 -119.9375 119.625 C-119.43089844 118.93664062 -118.92429687 118.24828125 -118.40234375 117.5390625 C-117.93957031 117.03117187 -117.47679687 116.52328125 -117 116 C-116.34 116 -115.68 116 -115 116 C-114.77054688 115.30777344 -114.54109375 114.61554688 -114.3046875 113.90234375 C-112.7177381 110.37209404 -110.53801295 107.55136475 -108.125 104.5625 C-107.64321289 103.95776855 -107.16142578 103.35303711 -106.66503906 102.72998047 C-101.6968549 96.53814503 -96.53707274 90.51266334 -91.32324219 84.52734375 C-90.12347206 83.14251683 -88.93968742 81.74388057 -87.7578125 80.34375 C-87.13648438 79.6115625 -86.51515625 78.879375 -85.875 78.125 C-85.35679687 77.50882812 -84.83859375 76.89265625 -84.3046875 76.2578125 C-83 75 -83 75 -81 75 C-80.79004395 74.46479736 -80.58008789 73.92959473 -80.36376953 73.37817383 C-78.4709196 70.07737698 -75.86640665 67.60116412 -73.1796875 64.94921875 C-72.60219757 64.37218704 -72.02470764 63.79515533 -71.42971802 63.20063782 C-70.20648633 61.98042338 -68.98082895 60.76263649 -67.75292969 59.54711914 C-65.89728973 57.7095724 -64.04961463 55.86431462 -62.203125 54.01757812 C-56.30267082 48.13502905 -50.36235378 42.38662289 -44 37 C-42.43388527 35.58733042 -40.8708353 34.17124656 -39.3125 32.75 C-33.87904292 27.84825738 -28.29818063 23.1346312 -22.6953125 18.42919922 C-20.97841163 16.98180035 -19.26943258 15.52554265 -17.5625 14.06640625 C-11.84251347 9.18291029 -6.09187193 4.41959336 0 0 Z " fill="#3F4851" transform="translate(680,149)"/>
<path d="M0 0 C0.33 0 0.66 0 1 0 C5.10733613 31.19599986 6.2153607 61.55733753 6 93 C-7.53 93 -21.06 93 -35 93 C-36.31305929 89.06082213 -35.38477344 87.39393055 -34.078125 83.47265625 C-33.86249405 82.82031006 -33.6468631 82.16796387 -33.42469788 81.49584961 C-32.71021009 79.34775072 -31.9811244 77.20498918 -31.25 75.0625 C-31.00212738 74.32780487 -30.75425476 73.59310974 -30.49887085 72.83615112 C-22.12637486 48.03945361 -13.19473294 22.69094226 0 0 Z " fill="#39424A" transform="translate(591,731)"/>
<path d="M0 0 C13.00321754 1.18371681 25.58532993 3.65355963 38.33544922 6.42578125 C41.61270416 7.1320396 44.89794483 7.79113126 48.1875 8.4375 C85.41455457 15.85761507 85.41455457 15.85761507 96.46875 19.04296875 C100.7252589 20.196558 105.01250311 21.16844909 109.31152344 22.15014648 C115.30361287 23.53077021 121.2797074 24.97673703 127.25585938 26.42456055 C129.36546449 26.93519192 131.47568769 27.4432123 133.5859375 27.95117188 C147.54460703 31.32245679 161.37370669 35.04188952 175.125 39.1875 C177.46030822 39.89141402 179.79622303 40.59331952 182.1328125 41.29296875 C183.14230957 41.5974292 184.15180664 41.90188965 185.19189453 42.21557617 C187.78344524 42.939507 190.3549725 43.51234386 193 44 C193 44.33 193 44.66 193 45 C180.15391175 45.31805996 167.52020046 44.47053848 154.72851562 43.32958984 C151.34391934 43.03040146 147.95867184 42.74193826 144.57276917 42.45808411 C141.56191644 42.20516879 138.55141971 41.94817807 135.54098511 41.69033813 C134.08039991 41.56558744 132.61972919 41.44183305 131.15896606 41.31918335 C119.37504021 40.32509107 107.59978331 39.20962371 96.07080078 36.47802734 C93.91858569 35.98120618 91.76315809 35.56959056 89.58984375 35.17578125 C61.49233685 30.01199668 35.18514131 20.82467201 10.125 7.1875 C9.23796387 6.70716309 8.35092773 6.22682617 7.43701172 5.73193359 C6.61475098 5.2777002 5.79249023 4.8234668 4.9453125 4.35546875 C4.20812988 3.94965576 3.47094727 3.54384277 2.71142578 3.12573242 C1 2 1 2 0 0 Z " fill="#9CA6B0" transform="translate(818,85)"/>
<path d="M0 0 C1 2 1 2 0.45849609 3.88842773 C0.14992676 4.64583252 -0.15864258 5.4032373 -0.4765625 6.18359375 C-0.81494141 7.022854 -1.15332031 7.86211426 -1.50195312 8.72680664 C-2.05786133 10.06859985 -2.05786133 10.06859985 -2.625 11.4375 C-2.99818359 12.35329834 -3.37136719 13.26909668 -3.75585938 14.21264648 C-5.94429154 19.54955743 -8.2199876 24.83123608 -10.66796875 30.0546875 C-12.11144497 33.24642084 -13.45044536 36.47212174 -14.78759766 39.70947266 C-17.52491273 46.32780233 -20.33718704 52.82308262 -23.625 59.1875 C-33.0816219 77.55540147 -40.87533653 96.91464427 -48.45483398 116.11450195 C-55.84193866 134.78312377 -64.20656965 152.95656704 -73 171 C-73.33 171 -73.66 171 -74 171 C-73.49411381 165.15486091 -72.58056594 159.69141157 -70.9375 154.0625 C-70.72198486 153.30654541 -70.50646973 152.55059082 -70.28442383 151.77172852 C-67.34937393 141.58478207 -64.20767078 131.45811889 -61.04394531 121.34033203 C-60.3608641 119.15466386 -59.680419 116.96816966 -59.00292969 114.78076172 C-52.43075412 93.58008969 -45.54418529 72.59498811 -35 53 C-34.28457031 51.60394531 -34.28457031 51.60394531 -33.5546875 50.1796875 C-24.2705352 32.40716737 -12.06991277 15.95813571 0 0 Z " fill="#9BA5AF" transform="translate(603,308)"/>
<path d="M0 0 C0 4.26875608 -2.4354427 6.56308029 -4.9375 9.8125 C-9.59862328 16.00337353 -13.89687728 22.32420338 -18.02734375 28.87890625 C-19.37758854 31.01523414 -20.7679422 33.126589 -22.19140625 35.21484375 C-24.11201328 37.91695206 -24.11201328 37.91695206 -25 41 C-24.34 41 -23.68 41 -23 41 C-24.26941497 44.91402949 -25.51167694 46.79072873 -29 49 C-29.66 48.67 -30.32 48.34 -31 48 C-30.67 46.68 -30.34 45.36 -30 44 C-34.34462547 46.98390811 -38.67752405 49.9840934 -43 53 C-43.94230469 53.65742188 -44.88460937 54.31484375 -45.85546875 54.9921875 C-56.68774019 62.70438076 -66.55588495 71.49305274 -76.30078125 80.515625 C-78.50697664 82.54621873 -80.73367629 84.5374104 -83 86.5 C-86.48991864 89.52704522 -89.90638662 92.62942906 -93.3125 95.75 C-94.0869043 96.45866211 -94.0869043 96.45866211 -94.87695312 97.18164062 C-96.879706 99.02122573 -98.86043174 100.85255543 -100.73046875 102.828125 C-102 104 -102 104 -104 104 C-104 104.66 -104 105.32 -104 106 C-104.66 106 -105.32 106 -106 106 C-106 106.66 -106 107.32 -106 108 C-106.61875 108.0825 -107.2375 108.165 -107.875 108.25 C-110.1765144 108.79994195 -110.1765144 108.79994195 -111.125 111 C-111.558125 111.99 -111.558125 111.99 -112 113 C-112.99 113.495 -112.99 113.495 -114 114 C-109.14285561 103.08448197 -99.14365998 93.48726951 -91.33935547 84.54345703 C-90.13231714 83.15248067 -88.94203746 81.74700436 -87.75390625 80.33984375 C-87.13386719 79.60894531 -86.51382813 78.87804687 -85.875 78.125 C-85.35679687 77.50882812 -84.83859375 76.89265625 -84.3046875 76.2578125 C-83 75 -83 75 -81 75 C-80.79004395 74.46479736 -80.58008789 73.92959473 -80.36376953 73.37817383 C-78.4709196 70.07737698 -75.86640665 67.60116412 -73.1796875 64.94921875 C-72.60219757 64.37218704 -72.02470764 63.79515533 -71.42971802 63.20063782 C-70.20648633 61.98042338 -68.98082895 60.76263649 -67.75292969 59.54711914 C-65.89728973 57.7095724 -64.04961463 55.86431462 -62.203125 54.01757812 C-56.30267082 48.13502905 -50.36235378 42.38662289 -44 37 C-42.43388527 35.58733042 -40.8708353 34.17124656 -39.3125 32.75 C-33.87904292 27.84825738 -28.29818063 23.1346312 -22.6953125 18.42919922 C-20.97841163 16.98180035 -19.26943258 15.52554265 -17.5625 14.06640625 C-11.84251347 9.18291029 -6.09187193 4.41959336 0 0 Z " fill="#4A535C" transform="translate(680,149)"/>
<path d="M0 0 C0 4.03066454 -1.59263686 5.86435711 -3.75 9.25 C-8.18408925 16.24600749 -12.26490174 23.39426384 -16.1875 30.6875 C-16.54263672 31.33783203 -16.89777344 31.98816406 -17.26367188 32.65820312 C-18.92560701 35.75186227 -20.24572286 38.57508549 -21 42 C-21.66 42 -22.32 42 -23 42 C-23.10699219 42.83273437 -23.21398437 43.66546875 -23.32421875 44.5234375 C-24.08059216 48.41460704 -25.36736177 51.95236632 -26.8125 55.625 C-27.35574363 57.0410627 -27.89739714 58.4577364 -28.4375 59.875 C-28.70304688 60.57109375 -28.96859375 61.2671875 -29.2421875 61.984375 C-32.46822864 70.43711292 -32.46822864 70.43711292 -34.49609375 79.21875 C-35 82 -35 82 -36.75 83.875 C-39.36304771 85.18152386 -41.11533524 85.24038873 -44 85 C-45.24273788 66.77317773 -33.29995158 50.15489096 -24.31738281 35.21582031 C-22.92462556 32.8732212 -21.5648101 30.51370483 -20.2109375 28.1484375 C-19.75702637 27.36009521 -19.30311523 26.57175293 -18.83544922 25.75952148 C-17.95928381 24.23608288 -17.08832722 22.70963419 -16.22314453 21.17993164 C-15.2042702 19.41996294 -14.1092717 17.70443862 -13 16 C-12.34 16 -11.68 16 -11 16 C-10.7421875 15.27167969 -10.484375 14.54335938 -10.21875 13.79296875 C-8.95193547 10.88985212 -7.47591792 8.77821114 -5.5 6.3125 C-4.8915625 5.54550781 -4.283125 4.77851563 -3.65625 3.98828125 C-2 2 -2 2 0 0 Z " fill="#515A64" transform="translate(555,276)"/>
<path d="M0 0 C2.69889008 2.69889008 2.36189059 4.22842456 2.4375 8 C2.31352588 16.00518604 -0.21855402 22.12259472 -5.5 28.125 C-8 30 -8 30 -10.5625 30.5625 C-13.76251117 29.82403588 -14.96871191 28.53911011 -17 26 C-18.63547495 21.09357516 -18.57522753 17.31822976 -16.5 12.5625 C-16.005 11.716875 -15.51 10.87125 -15 10 C-14.34 10 -13.68 10 -13 10 C-13.103125 9.278125 -13.20625 8.55625 -13.3125 7.8125 C-12.8670035 3.8030315 -11.05765894 2.50172095 -8 0 C-5.03944845 -1.25599156 -3.00603449 -1.10221265 0 0 Z " fill="#38414A" transform="translate(637,638)"/>
<path d="M0 0 C3.87847979 3.48904932 5.26797078 7.8072084 7.1875 12.5625 C7.58114746 13.53558105 7.97479492 14.50866211 8.38037109 15.51123047 C17.94659261 39.70498364 24.46773072 65.30481723 29.4375 90.8125 C29.6015332 91.6475708 29.76556641 92.4826416 29.93457031 93.34301758 C30.79001221 97.97570434 31.15722073 102.28966704 31 107 C30.34 106.01 29.68 105.02 29 104 C28.34 104 27.68 104 27 104 C26.91024902 103.40276123 26.82049805 102.80552246 26.72802734 102.19018555 C24.72067854 89.11742022 21.96702689 76.80760945 17.74365234 64.28515625 C16.49680084 60.45372813 15.43443941 56.57417636 14.375 52.6875 C14.06985474 51.57544189 14.06985474 51.57544189 13.75854492 50.44091797 C13.17056152 48.29443297 12.58515987 46.14725616 12 44 C11.2992835 41.43522958 10.58968847 38.87346701 9.875 36.3125 C9.58367187 35.25675781 9.29234375 34.20101562 8.9921875 33.11328125 C8.03411301 29.92335524 8.03411301 29.92335524 6.55078125 26.67578125 C4.77798943 22.47377345 3.51770531 18.26617099 2.3125 13.875 C2.08755859 13.08996094 1.86261719 12.30492187 1.63085938 11.49609375 C0.54361383 7.57672226 -0.30532623 4.10952599 0 0 Z " fill="#49525B" transform="translate(437,291)"/>
<path d="M0 0 C0.33 0 0.66 0 1 0 C3.11442226 25.5610302 3.13920358 51.1353613 3.06866455 76.76263428 C3.0582098 80.98107377 3.05382084 85.19951988 3.04882812 89.41796875 C3.03828293 97.61199645 3.02134713 105.80599333 3 114 C2.67 114 2.34 114 2 114 C1.98018066 113.11666992 1.96036133 112.23333984 1.93994141 111.32324219 C1.84185219 107.13196043 1.73563844 102.94096657 1.625 98.75 C1.60487854 97.9728363 1.58475708 97.19567261 1.56402588 96.3949585 C1.33032322 87.64154785 0.97716383 78.95038722 0.16308594 70.22851562 C-2.00205021 46.90376074 -0.67322636 23.37873435 0 0 Z " fill="#4E5760" transform="translate(474,443)"/>
<path d="M0 0 C2.53070362 2.87579957 2.30255871 6.43199847 2.1796875 10.09765625 C1.94307456 12.60266717 1.68454495 14.08574437 0 16 C-3 16.875 -3 16.875 -6 17 C-9.43772727 13.56227273 -9.97127774 9.89039016 -10.125 5.125 C-10.08375 4.09375 -10.0425 3.0625 -10 2 C-9.34 2 -8.68 2 -8 2 C-8 1.34 -8 0.68 -8 0 C-5.04063954 -1.47968023 -3.13239866 -0.84835797 0 0 Z " fill="#38414A" transform="translate(1000,444)"/>
<path d="M0 0 C2.9375 0.1875 2.9375 0.1875 3.9375 1.1875 C3.7976324 7.761277 1.12249573 13.14626377 -3.0625 18.1875 C-6.4375 19.3125 -6.4375 19.3125 -9.0625 19.1875 C-10.42937861 14.70579499 -9.61484071 12.22872331 -7.75 8 C-7.30011719 6.95457031 -6.85023438 5.90914062 -6.38671875 4.83203125 C-4.60683533 1.27751481 -4.06062151 0.24860948 0 0 Z " fill="#4B535D" transform="translate(359.0625,533.8125)"/>
<path d="M0 0 C-0.50486259 4.34181831 -1.23803936 7.5475492 -4 11 C-6.625 11.875 -6.625 11.875 -9 12 C-10.57897833 10.42102167 -10.24543509 8.80637428 -10.3125 6.625 C-10.25092061 2.32812695 -10.25092061 2.32812695 -8.375 -0.125 C-5.25969781 -1.27274291 -3.17780914 -0.79445229 0 0 Z " fill="#38414A" transform="translate(400,670)"/>
<path d="M0 0 C0.66 0.33 1.32 0.66 2 1 C1.26680542 1.43082886 1.26680542 1.43082886 0.51879883 1.87036133 C-1.71677212 3.18417289 -3.95213764 4.49833358 -6.1875 5.8125 C-6.95642578 6.26431641 -7.72535156 6.71613281 -8.51757812 7.18164062 C-9.26845703 7.62314453 -10.01933594 8.06464844 -10.79296875 8.51953125 C-11.52217529 8.94661377 -12.25138184 9.37369629 -13.00268555 9.8137207 C-14.6546752 10.79489877 -16.28380319 11.81445579 -17.90625 12.84375 C-20 14 -20 14 -22.3125 13.6875 C-22.869375 13.460625 -23.42625 13.23375 -24 13 C-23.9765625 11.19140625 -23.9765625 11.19140625 -23 9 C-20.4310922 7.7754274 -18.05793968 6.82463959 -15.375 5.9375 C-13.96558476 5.44822786 -12.55672501 4.95735246 -11.1484375 4.46484375 C-10.45717773 4.22878418 -9.76591797 3.99272461 -9.05371094 3.74951172 C-7.01884325 3.00687694 -5.07147661 2.15308166 -3.1015625 1.25390625 C-2.07804688 0.84011719 -1.05453125 0.42632812 0 0 Z " fill="#A2A9B1" transform="translate(617,160)"/>
<path d="M0 0 C0.99 0.33 1.98 0.66 3 1 C4.81857774 10.6533309 6.45089248 20.17286886 7 30 C6.34 29.67 5.68 29.34 5 29 C4.31396484 26.6550293 4.31396484 26.6550293 3.7109375 23.57421875 C3.49179688 22.46755859 3.27265625 21.36089844 3.046875 20.22070312 C2.82515625 19.05474609 2.6034375 17.88878906 2.375 16.6875 C2.14554688 15.53314453 1.91609375 14.37878906 1.6796875 13.18945312 C0 4.57605562 0 4.57605562 0 0 Z " fill="#2D353F" transform="translate(1178,571)"/>
<path d="M0 0 C0.66 0.33 1.32 0.66 2 1 C-0.15928935 8.39393019 -2.5304518 15.70417741 -5 23 C-5.66 23 -6.32 23 -7 23 C-5.68 15.74 -4.36 8.48 -3 1 C-2.01 0.67 -1.02 0.34 0 0 Z " fill="#86909A" transform="translate(771,584)"/>
<path d="M0 0 C0.66 0 1.32 0 2 0 C1.34503672 4.32275763 -0.20418336 8.0507926 -2 12 C-4.82773726 18.27477235 -7.48527005 24.59278911 -10 31 C-11.5994868 27.01188969 -10.30093746 24.53706452 -8.69140625 20.703125 C-8.19189453 19.49785156 -7.69238281 18.29257812 -7.17773438 17.05078125 C-6.63956594 15.78375091 -6.10115132 14.51682512 -5.5625 13.25 C-5.02696125 11.96787913 -4.49244391 10.68533112 -3.95898438 9.40234375 C-2.64932328 6.26387662 -1.32934142 3.13017027 0 0 Z " fill="#3D454E" transform="translate(801,393)"/>
<path d="M0 0 C0.125 2.375 0.125 2.375 0 5 C-2 7 -2 7 -5.125 7.125 C-6.548125 7.063125 -6.548125 7.063125 -8 7 C-8 3 -8 3 -6.8125 1.25 C-4.44116664 -0.38540232 -2.81923877 -0.22858693 0 0 Z " fill="#39424B" transform="translate(666,570)"/>
<path d="M0 0 C0.99 0.33 1.98 0.66 3 1 C2.39254603 5.85963179 0.27241033 9.7405518 -2 14 C-2.33 14 -2.66 14 -3 14 C-2.58846263 9.02906176 -2.20399168 4.55491614 0 0 Z " fill="#959EA8" transform="translate(532,465)"/>
<path d="M0 0 C0.66 0 1.32 0 2 0 C2.36842105 4.54385965 2.36842105 4.54385965 0.6875 6.625 C0.130625 7.07875 -0.42625 7.5325 -1 8 C-1.474375 8.474375 -1.94875 8.94875 -2.4375 9.4375 C-4.29166667 11.29166667 -6.14583333 13.14583333 -8 15 C-6.62992438 11.34426939 -4.98982135 8.04532353 -3 4.6875 C-2.484375 3.80449219 -1.96875 2.92148437 -1.4375 2.01171875 C-0.7259375 1.01591797 -0.7259375 1.01591797 0 0 Z " fill="#A1A9B1" transform="translate(381,290)"/>
<path d="M0 0 C3 1 3 1 4.75 3.875 C6 7 6 7 5 10 C4.01 10.33 3.02 10.66 2 11 C1.34 7.37 0.68 3.74 0 0 Z " fill="#4D5660" transform="translate(425,317)"/>
<path d="M0 0 C0.33 0.66 0.66 1.32 1 2 C1.66 2 2.32 2 3 2 C1.73058503 5.91402949 0.48832306 7.79072873 -3 10 C-3.66 9.67 -4.32 9.34 -5 9 C-3.35 6.03 -1.7 3.06 0 0 Z " fill="#525B65" transform="translate(654,188)"/>
<path d="M0 0 C4.04352289 0.46656033 8.01928836 1.15560662 12 2 C12 2.33 12 2.66 12 3 C6.39 3 0.78 3 -5 3 C-3.68 2.34 -2.36 1.68 -1 1 C-0.67 0.67 -0.34 0.34 0 0 Z " fill="#939AA4" transform="translate(999,127)"/>
<path d="M0 0 C1.57156655 3.1431331 0.11705576 5.365464 -0.9375 8.625 C-1.31777344 9.81351563 -1.69804688 11.00203125 -2.08984375 12.2265625 C-2.39019531 13.14179687 -2.69054687 14.05703125 -3 15 C-3.66 14.34 -4.32 13.68 -5 13 C-4.71857705 8.21580984 -2.2129098 4.1479193 0 0 Z " fill="#3D454E" transform="translate(709,583)"/>
<path d="M0 0 C0 3.21534057 -0.26476072 4.35582586 -2 7 C-4.375 8.5625 -4.375 8.5625 -7 10 C-8.34631825 10.98244845 -9.68441297 11.97676564 -11 13 C-9.46356148 9.31930113 -7.21849055 7.01224796 -4.375 4.25 C-3.55773437 3.45078125 -2.74046875 2.6515625 -1.8984375 1.828125 C-0.95871094 0.92320312 -0.95871094 0.92320312 0 0 Z " fill="#88919B" transform="translate(852,358)"/>
<path d="M0 0 C0 2.31 0 4.62 0 7 C-0.99 7 -1.98 7 -3 7 C-4.68798827 8.43750191 -4.68798827 8.43750191 -6 10 C-5.55090939 8.51800098 -5.09043436 7.03944764 -4.625 5.5625 C-4.36976563 4.73878906 -4.11453125 3.91507813 -3.8515625 3.06640625 C-2.98795614 0.97077431 -2.43893676 0 0 0 Z " fill="#4F555A" transform="translate(189,652)"/>
<path d="M0 0 C0.99 0.33 1.98 0.66 3 1 C1.02 4.96 -0.96 8.92 -3 13 C-4.23593891 9.29218328 -3.5678132 8.32489747 -2.0625 4.8125 C-1.68222656 3.91144531 -1.30195312 3.01039063 -0.91015625 2.08203125 C-0.60980469 1.39496094 -0.30945313 0.70789063 0 0 Z " fill="#3C444D" transform="translate(789,400)"/>
<path d="M0 0 C0.33 0 0.66 0 1 0 C1 3.63 1 7.26 1 11 C0.01 11.33 -0.98 11.66 -2 12 C-1.85904936 10.3745692 -1.71207913 8.74965949 -1.5625 7.125 C-1.48128906 6.22007812 -1.40007813 5.31515625 -1.31640625 4.3828125 C-1 2 -1 2 0 0 Z " fill="#313A43" transform="translate(665,774)"/>
<path d="M0 0 C0.66 0.66 1.32 1.32 2 2 C0.35 5.63 -1.3 9.26 -3 13 C-3.66 12.67 -4.32 12.34 -5 12 C-4.35758106 10.186287 -3.71096881 8.37405876 -3.0625 6.5625 C-2.70285156 5.55316406 -2.34320312 4.54382813 -1.97265625 3.50390625 C-1 1 -1 1 0 0 Z " fill="#2D363F" transform="translate(1357,760)"/>
<path d="M0 0 C0.99 0.33 1.98 0.66 3 1 C0.525 6.94 0.525 6.94 -2 13 C-3.03103689 8.87585243 -2.94701684 8.0158858 -1.5625 4.25 C-1.27503906 3.45078125 -0.98757813 2.6515625 -0.69140625 1.828125 C-0.46324219 1.22484375 -0.23507812 0.6215625 0 0 Z " fill="#515A63" transform="translate(363,701)"/>
<path d="M0 0 C0.66 0 1.32 0 2 0 C1.3125 3.375 1.3125 3.375 0 7 C-2.625 8.4375 -2.625 8.4375 -5 9 C-3.50079488 5.88626628 -1.91847864 2.87771795 0 0 Z " fill="#333C45" transform="translate(807,375)"/>
<path d="M0 0 C1 2 1 2 0.44140625 3.9453125 C0.15136719 4.66460937 -0.13867188 5.38390625 -0.4375 6.125 C-0.72496094 6.84945313 -1.01242187 7.57390625 -1.30859375 8.3203125 C-1.53675781 8.87460937 -1.76492188 9.42890625 -2 10 C-2.99 10 -3.98 10 -5 10 C-5.99 10.495 -5.99 10.495 -7 11 C-5.22054913 6.95579349 -2.60470327 3.53921513 0 0 Z " fill="#959DA8" transform="translate(603,308)"/>
<path d="M0 0 C0.66 0 1.32 0 2 0 C2 1.98 2 3.96 2 6 C1.34 6 0.68 6 0 6 C-0.33 6.66 -0.66 7.32 -1 8 C-1.66 8 -2.32 8 -3 8 C-1.125 2.25 -1.125 2.25 0 0 Z " fill="#A7AFB6" transform="translate(226,560)"/>
<path d="M0 0 C0.33 0 0.66 0 1 0 C1.22162329 1.62324086 1.42689803 3.248721 1.625 4.875 C1.74101563 5.77992188 1.85703125 6.68484375 1.9765625 7.6171875 C1.98429687 8.40351562 1.99203125 9.18984375 2 10 C1.34 10.66 0.68 11.32 0 12 C-1.16063604 7.74433453 -0.76173392 4.3164922 0 0 Z " fill="#343D46" transform="translate(1226,741)"/>
</svg>
